<?xml version="1.0" encoding="UTF-8" standalone="no"?>
<!-- Created with Inkscape (http://www.inkscape.org/) -->

<svg
   width="1000"
   height="1000"
   viewBox="0 0 264.58333 264.58333"
   version="1.1"
   id="svg5"
   inkscape:version="1.2.2 (732a01da63, 2022-12-09)"
   sodipodi:docname="appIcon.svg"
   xmlns:inkscape="http://www.inkscape.org/namespaces/inkscape"
   xmlns:sodipodi="http://sodipodi.sourceforge.net/DTD/sodipodi-0.dtd"
   xmlns="http://www.w3.org/2000/svg"
   xmlns:svg="http://www.w3.org/2000/svg">
  <sodipodi:namedview
     id="namedview7"
     pagecolor="#ffffff"
     bordercolor="#ffffff"
     borderopacity="1"
     inkscape:showpageshadow="0"
     inkscape:pageopacity="0"
     inkscape:pagecheckerboard="1"
     inkscape:deskcolor="#505050"
     inkscape:document-units="mm"
     showgrid="false"
     inkscape:zoom="0.93806818"
     inkscape:cx="285.16051"
     inkscape:cy="695.04543"
     inkscape:window-width="3440"
     inkscape:window-height="1369"
     inkscape:window-x="2552"
     inkscape:window-y="-8"
     inkscape:window-maximized="1"
     inkscape:current-layer="layer1" />
  <defs
     id="defs2" />
  <g
     inkscape:label="Ebene 1"
     inkscape:groupmode="layer"
     id="layer1">
    <rect
       style="fill:#ececec;stroke:none;stroke-width:0.529167;stroke-linejoin:round;paint-order:fill markers stroke;stop-color:#000000"
       id="rect8228"
       width="264.31876"
       height="264.31876"
       x="0"
       y="0"
       ry="0" />
    <g
       id="g8386"
       transform="translate(-2.5135483)">
      <path
         style="fill:#666666;stroke:none;stroke-width:0.264584;stroke-linecap:round;stroke-linejoin:round;stroke-dasharray:none;paint-order:markers stroke fill;stop-color:#000000"
         d="m 198.70906,165.73819 c 4.51193,-71.536499 -79.35649,-115.954334 -38.9612,-210.538092 -32.07407,85.726822 52.36983,138.393341 46.98077,210.544782 -3.15753,42.27435 -13.98468,71.51658 -45.42658,116.29413 22.67106,-44.13717 34.80974,-75.1213 37.40701,-116.30082 z"
         id="path112412-03-2-6-2"
         sodipodi:nodetypes="acaca" />
      <g
         id="g8370">
        <path
           id="path112772-9"
           style="fill:#666666;stroke:none;stroke-width:0.264583;stroke-linecap:round;stroke-linejoin:round;stroke-dasharray:none;paint-order:markers stroke fill;stop-color:#000000"
           d="m 110.65996,124.37245 c -13.503678,28.33139 -9.36219,43.02146 -0.51323,51.27659 -1.138,5.28685 -1.2562,13.54792 -1.24567,17.28112 0.10479,-2.80172 0.78358,-8.35903 4.07917,-14.9555 6.113,4.43643 13.57936,6.59782 19.13837,8.29731 -24.6395,-13.23843 -34.84193,-32.03994 -21.45864,-61.89952 z m -1.7589,68.55769 c -0.0468,1.24922 0.0207,1.95244 0.0207,1.95244 0,0 -0.0164,-0.74162 -0.0207,-1.95244 z" />
        <path
           id="rect370"
           style="fill:#666666;stroke-width:0.264583;stroke-linejoin:round;paint-order:fill markers stroke;stop-color:#000000"
           d="m 139.25367,109.41308 -41.849571,-0.0744 -2.914836,-0.61933 c -3.946168,-0.83819 -7.265498,-1.95486 -10.235619,-3.44402 -2.743476,-1.37556 -6.242671,-3.69423 -6.820579,-4.51931 -0.205228,-0.29301 -0.883156,-1.92293 -1.506432,-3.622167 -3.212886,-8.759465 -9.251291,-13.432674 -18.931059,-14.651067 -2.674054,-0.33659 -7.574666,-0.274289 -7.950131,0.101194 -0.272524,0.272496 3.007324,6.730106 4.817093,9.483967 2.914088,4.434272 6.881599,7.628038 11.453736,9.219913 1.865926,0.64965 2.628475,0.75515 6.112671,0.84598 2.189342,0.0571 3.979661,0.003 3.978503,-0.12338 -9.99e-4,-0.12503 -0.456535,-0.49392 -1.012009,-0.81961 -0.55546,-0.32571 -2.649373,-2.071036 -4.653165,-3.878887 -4.046709,-3.650966 -8.963097,-7.651834 -11.537019,-9.388568 -0.927683,-0.625956 -1.686697,-1.205139 -1.686697,-1.286637 0,-0.191012 4.81414,2.393656 6.74679,3.622181 4.377913,2.782853 13.245856,10.846841 12.679223,11.529611 -0.543755,0.6552 4.041324,4.17589 8.50569,6.53122 l 2.158972,1.13904 -8.770838,0.008 c -6.513002,0.006 -9.409786,-0.0964 -11.252886,-0.39527 -2.675764,-0.43402 -7.400945,-1.99581 -8.184691,-2.70506 -0.26518,-0.24001 -1.039507,-1.39571 -1.720965,-2.56852 -3.862432,-6.647451 -11.481461,-10.503812 -19.176692,-9.705848 -1.352359,0.140221 -3.486969,0.55403 -4.743301,0.919248 -2.209935,0.642433 -7.569838,2.701267 -9.044393,3.473545 l -0.721592,0.377924 3.740784,2.962761 c 8.311169,6.58258 11.144533,7.86444 17.909563,8.10302 3.252545,0.11483 3.918204,0.0576 6.207038,-0.53657 4.992534,-1.29598 5.795668,-1.57679 5.302552,-1.85276 -0.982478,-0.54981 -11.7598,-4.76255 -13.599,-5.31573 -1.074955,-0.32331 -3.434315,-0.88939 -5.242458,-1.25762 -1.808145,-0.36827 -3.347205,-0.72916 -3.420305,-0.80223 -0.233857,-0.233858 2.99823,-0.14283 5.361589,0.15125 4.801361,0.59748 8.794711,1.89314 14.924109,4.84242 3.300727,1.58819 3.441549,1.68876 3.016022,2.15897 -0.424108,0.46861 -0.35766,0.53586 1.343565,1.34777 1.672511,0.79823 4.636137,1.63843 8.776088,2.48788 l 1.75416,0.35948 -2.420395,0.6425 c -7.115643,1.88887 -12.065075,5.88837 -15.718963,12.70454 -1.231118,2.29654 -3.189745,6.96256 -3.001797,7.15052 0.06842,0.0686 0.389652,0.15737 0.713679,0.19769 0.511475,0.0636 0.7606,-0.32261 1.891731,-2.93065 2.514359,-5.7973 5.323515,-9.43077 9.3754,-12.12683 2.018214,-1.34287 5.235312,-2.91215 5.478609,-2.67234 0.05333,0.0527 -0.153072,0.44729 -0.459098,0.87706 -0.306024,0.42978 -0.880033,1.74201 -1.275556,2.91642 -1.317214,3.91095 -0.656403,7.34442 2.826781,14.68426 1.63133,3.43754 1.942649,3.92351 2.560633,3.99853 0.386911,0.0471 0.703668,-0.0416 0.703668,-0.19766 0,-0.1559 -0.49177,-1.40876 -1.092661,-2.78412 -0.600918,-1.37536 -1.72429,-3.95833 -2.496316,-5.7395 l -1.403655,-3.23843 v -2.96859 c 0,-3.34243 0.391542,-4.57623 2.0525,-6.46796 1.276805,-1.45424 2.720701,-2.01125 5.972489,-2.30446 1.578941,-0.14237 25.420702,-0.25361 55.453831,-0.25879 l 91.0992,-0.011 c 20.5298,-0.0997 15.17386,0.0982 15.17386,0.21873 0,0.12062 -0.55033,1.59668 -1.22287,3.28066 -0.67252,1.68395 -1.18868,3.15397 -1.14694,3.26638 0.0416,0.1125 2.0797,-0.64859 4.52878,-1.69091 2.44908,-1.04232 6.88173,-2.89668 9.8503,-4.12081 2.96859,-1.22415 5.39744,-2.32051 5.39744,-2.43623 0,-0.24024 -19.34279,-8.54674 -19.51088,-8.37866 -0.0604,0.0605 0.38851,1.38418 0.99727,2.94118 0.60875,1.557 1.1069,2.9613 1.1069,3.1209 0,0.20583 4.75041,0.68933 -15.04208,0.29045 z"
           sodipodi:nodetypes="cccsssssssssssssssscssssssscsssssssssssccsssssssssssssscsssccssssssssscc" />
        <path
           id="rect370-9"
           style="fill:#7a2532;fill-opacity:1;stroke-width:0.264583;stroke-linejoin:round;paint-order:fill markers stroke;stop-color:#000000"
           d="m 47.825222,128.55347 c -1.15862,-0.0346 -3.323516,0.22248 -4.350641,0.58348 -3.236896,1.13767 -5.985901,4.08638 -6.673522,7.159 -0.484187,2.16356 -0.233017,5.17026 0.563465,6.7478 2.649632,5.24793 8.434989,7.20739 13.65857,4.62579 2.386704,-1.17957 4.383456,-3.25697 5.261966,-5.47386 0.475284,-1.1994 0.616705,-2.10117 0.623546,-3.97955 0.0081,-2.22137 -0.06557,-2.57237 -0.863904,-4.10555 -1.181293,-2.26862 -3.670482,-4.66066 -4.85294,-4.66423 -0.302173,-8e-4 -1.150116,1.6143 -1.150116,2.1906 0,0.33963 1.202268,0.29211 2.018234,-0.0796 0.530134,-0.24156 0.769663,-0.24185 1.010445,-0.001 0.365814,0.36579 -0.08632,0.79457 -1.797915,1.70461 -1.875866,0.99732 -4.539482,0.30464 -5.426962,-1.41156 -0.474227,-0.91711 -0.180388,-1.17654 1.067366,-0.94247 0.83947,0.15749 0.906893,0.10837 1.328803,-0.96562 0.244479,-0.62242 0.391927,-1.18463 0.327322,-1.24923 -0.08318,-0.0832 -0.357509,-0.12709 -0.743717,-0.13862 z m 21.579717,4.7043 c -0.31024,0.026 -0.472284,0.0848 -0.472284,0.17657 0,0.27461 1.018642,2.78651 1.205985,2.97385 0.05099,0.0508 0.767412,-0.35518 1.592349,-0.90292 1.135544,-0.75396 1.666072,-0.95443 2.184268,-0.82438 0.376456,0.0945 0.684693,0.28287 0.684693,0.41854 0,0.33294 -2.073858,1.99267 -3.213147,2.57168 -1.320075,0.67082 -3.890268,0.65197 -4.81079,-0.0354 -1.024975,-0.76527 -1.050481,-1.15735 -0.09924,-1.51646 0.955796,-0.36078 0.986776,-0.47252 0.431681,-1.54595 -0.375142,-0.72545 -0.464834,-0.76128 -1.233403,-0.49338 -1.539936,0.53682 -3.343573,1.9693 -4.358522,3.46142 -2.643579,3.88636 -2.24355,8.9629 0.974589,12.36561 1.994064,2.10842 4.360024,3.10237 6.91126,3.53204 0.623826,0.10506 0.919793,-0.10671 1.879595,-0.26248 3.417514,-0.55448 6.565889,-2.95061 8.056607,-6.13116 0.616566,-1.31547 0.723699,-1.90114 0.723699,-3.97163 0,-2.07053 -0.107169,-2.65669 -0.723699,-3.97219 -1.593507,-3.39983 -4.696503,-5.55656 -8.372856,-5.81962 -0.592788,-0.0424 -1.050729,-0.0503 -1.360942,-0.0242 z"
           sodipodi:nodetypes="ssssssssssssssssssssssssssssssssasssssss" />
        <g
           id="g10795"
           transform="matrix(0.91033178,0,0,0.91033178,17.380395,15.358128)"
           style="stroke-width:1.0985">
          <g
             id="path2599"
             style="stroke-width:1.0985">
            <path
               style="color:#000000;-inkscape-font-specification:'Guild of Professional Actors';fill:#666666;stroke-width:0.581291;stroke-linejoin:round;-inkscape-stroke:none;paint-order:fill markers stroke"
               d="m 36.119449,236.45037 q -1.749577,0.76162 -5.948561,1.58183 -4.140665,0.82021 -6.123517,0.82021 -11.372246,0 -11.372246,-8.67072 0,-6.796 6.181836,-10.89703 5.365368,-3.51518 12.538631,-3.57375 l 4.723857,-0.0586 z m -2.099492,-18.33744 q -0.524874,-0.17577 -1.516301,-0.17577 -6.706708,0 -11.605523,2.69498 -6.006879,3.3394 -6.006879,9.54955 0,3.33938 3.207557,5.03838 2.507726,1.34749 6.181838,1.34749 6.356792,0 9.622669,-1.75759 -0.05832,0.8788 -0.05832,-6.44447 0,-1.75759 0.05832,-5.15558 0.116639,-3.45657 0.116639,-5.09699 z"
               id="path10716" />
            <path
               style="color:#000000;-inkscape-font-specification:'Guild of Professional Actors';fill:#666666;stroke-width:1.0985;stroke-linejoin:round;-inkscape-stroke:none;paint-order:fill markers stroke"
               d="m 36.115234,215.38867 -4.722656,0.0586 c -4.824846,0.0394 -9.058131,1.24253 -12.679687,3.61523 a 0.26460996,0.26460996 0 0 0 -0.002,0.002 c -4.177323,2.77124 -6.300781,6.5063 -6.300781,11.11719 0,2.94807 0.984262,5.21621 2.947266,6.71289 1.963004,1.49669 4.865086,2.22266 8.689453,2.22266 1.35796,0 3.406798,-0.27814 6.173828,-0.82617 2.807657,-0.54844 4.798368,-1.07287 6.003906,-1.59766 a 0.26460996,0.26460996 0 0 0 0.160157,-0.24219 v -20.79883 a 0.26460996,0.26460996 0 0 0 -0.269532,-0.26367 z m -0.259765,0.53125 V 236.25 c -1.141285,0.47949 -3.018432,0.99292 -5.734375,1.52344 a 0.26460996,0.26460996 0 0 0 -0.002,0 c -2.752544,0.54524 -4.786848,0.81445 -6.072266,0.81445 -3.757123,0 -6.5414,-0.71973 -8.369141,-2.11328 -1.827741,-1.39355 -2.738281,-3.46057 -2.738281,-6.29297 0,-4.44995 1.998284,-7.9791 6.0625,-10.67578 3.53226,-2.3142 7.65699,-3.49255 12.396484,-3.53125 z m -3.351563,1.75195 c -4.506573,10e-6 -8.421871,0.90729 -11.732422,2.72852 a 0.26460996,0.26460996 0 0 0 -0.002,0 c -4.065459,2.26011 -6.142578,5.55585 -6.142578,9.78125 0,2.31046 1.144919,4.10524 3.345703,5.27148 1.719275,0.92383 3.826843,1.37891 6.308594,1.37891 4.124905,0 7.251579,-0.57506 9.482422,-1.70312 0.01931,0.012 0.03901,0.0254 0.03906,0.0254 1.36e-4,4e-5 0.156115,0.006 0.15625,0.006 1.36e-4,-4e-5 0.107286,-0.0565 0.107422,-0.0566 1.37e-4,-1.2e-4 0.04478,-0.0525 0.04492,-0.0527 1.37e-4,-2e-4 0.01939,-0.0329 0.01953,-0.0332 2.76e-4,-5.7e-4 0.01274,-0.0297 0.01563,-0.0391 0.0029,-0.009 0.0045,-0.0174 0.0059,-0.0234 0.0027,-0.0121 0.0047,-0.0193 0.0059,-0.0274 0.0048,-0.0322 0.0071,-0.06 0.0098,-0.0996 a 0.26460996,0.26460996 0 0 0 -0.02539,-0.084 c -2.96e-4,-0.007 2.93e-4,-0.01 0,-0.0176 -0.007,-0.18844 -0.01273,-0.55371 -0.01758,-1.08984 -0.0097,-1.07226 -0.01563,-2.83075 -0.01563,-5.27149 0,-1.16791 0.01979,-2.88448 0.05859,-5.14648 v -0.004 c 0.07769,-2.3031 0.117187,-4.00252 0.117187,-5.10156 a 0.26460996,0.26460996 0 0 0 -0.18164,-0.25195 c -0.397482,-0.13311 -0.923023,-0.18946 -1.59961,-0.18946 z m 0,0.5293 c 0.561655,0 0.942125,0.0619 1.246094,0.14063 -0.0033,1.09086 -0.03711,2.65984 -0.111328,4.85937 a 0.26460996,0.26460996 0 0 0 0,0.004 c -0.03889,2.26611 -0.05859,3.9855 -0.05859,5.16015 0,2.44144 0.0059,4.1995 0.01563,5.27539 0.0044,0.48187 0.0092,0.77852 0.01563,0.99024 -2.113166,1.09132 -5.204996,1.67187 -9.330078,1.67187 -2.41706,0 -4.432284,-0.44358 -6.056641,-1.3164 a 0.26460996,0.26460996 0 0 0 -0.002,0 c -2.075007,-1.09911 -3.066406,-2.66315 -3.066406,-4.80469 0,-4.05427 1.926447,-7.12599 5.869141,-9.31836 3.221196,-1.77207 7.042821,-2.66211 11.478515,-2.66211 z"
               id="path10718" />
          </g>
          <g
             id="path2601"
             style="stroke-width:1.0985">
            <path
               style="color:#000000;-inkscape-font-specification:'Guild of Professional Actors';fill:#666666;stroke-width:0.581291;stroke-linejoin:round;-inkscape-stroke:none;paint-order:fill markers stroke"
               d="m 58.566159,217.76142 q -1.749575,0 -2.507725,0.23434 -1.224705,0.41009 -2.449407,0.82021 -5.365367,1.6404 -5.365367,6.73738 v 12.59602 h -2.21613 v -12.59602 q 0,-3.7495 1.691256,-5.74142 1.516298,-1.81616 5.190409,-3.04646 2.682685,-0.8788 2.741005,-0.93738 0.816467,-0.17578 2.915959,-0.17578 z"
               id="path10722" />
            <path
               style="color:#000000;-inkscape-font-specification:'Guild of Professional Actors';fill:#666666;stroke-width:1.0985;stroke-linejoin:round;-inkscape-stroke:none;paint-order:fill markers stroke"
               d="m 58.566406,215.38867 c -1.407044,0 -2.382728,0.0546 -2.972656,0.18164 a 0.26460996,0.26460996 0 0 0 -0.130859,0.0703 c 0.05784,-0.0581 0.05349,-0.0394 0.05273,-0.0391 -7.55e-4,3.8e-4 -0.01041,0.004 -0.02344,0.01 -0.02605,0.0109 -0.06931,0.0275 -0.126953,0.0488 -0.11529,0.0425 -0.288261,0.10388 -0.515625,0.18164 -0.454727,0.15551 -1.129767,0.37912 -2.023437,0.67187 a 0.26460996,0.26460996 0 0 0 -0.002,0 c -2.476185,0.82917 -4.249187,1.85999 -5.308594,3.12891 -1.179409,1.39029 -1.751953,3.37188 -1.751953,5.91015 v 12.59571 a 0.26460996,0.26460996 0 0 0 0.263672,0.26562 h 2.216797 a 0.26460996,0.26460996 0 0 0 0.263671,-0.26562 v -12.59571 c 10e-7,-1.65257 0.429486,-2.99633 1.283204,-4.06836 0.853717,-1.07202 2.142713,-1.88041 3.894531,-2.41601 a 0.26460996,0.26460996 0 0 0 0.0078,-0.002 c 0.814513,-0.27276 1.628845,-0.54562 2.44336,-0.81836 0.450571,-0.13927 1.275118,-0.22266 2.429687,-0.22266 a 0.26460996,0.26460996 0 0 0 0.263672,-0.26367 v -2.10938 a 0.26460996,0.26460996 0 0 0 -0.263672,-0.26367 z m -0.265625,0.54297 v 1.58984 c -0.996596,0.0137 -1.817573,0.0653 -2.320312,0.22071 a 0.26460996,0.26460996 0 0 0 -0.0059,0.002 c -0.816471,0.27339 -1.632749,0.5469 -2.449218,0.82031 -1.821957,0.55806 -3.212839,1.41941 -4.146485,2.5918 -0.934736,1.17376 -1.40039,2.65107 -1.40039,4.39648 v 12.33204 h -1.685547 v -12.33204 c 0,-2.45988 0.552463,-4.3048 1.626953,-5.57031 a 0.26460996,0.26460996 0 0 0 0.002,0 c 0.961954,-1.15219 2.649175,-2.15377 5.070312,-2.96484 l 0.002,-0.002 c 0.893246,-0.29261 1.568934,-0.51705 2.027343,-0.67382 0.22947,-0.0785 0.404498,-0.14022 0.527344,-0.18555 0.06142,-0.0227 0.110091,-0.0406 0.148438,-0.0566 0.01278,-0.005 0.02359,-0.0103 0.03516,-0.0156 0.455706,-0.0956 1.389499,-0.14206 2.568359,-0.15234 z"
               id="path10724" />
          </g>
          <g
             id="path2603"
             style="stroke-width:1.0985">
            <path
               style="color:#000000;-inkscape-font-specification:'Guild of Professional Actors';fill:#666666;stroke-width:0.581291;stroke-linejoin:round;-inkscape-stroke:none;paint-order:fill markers stroke"
               d="m 82.744097,218.69879 q -3.090917,0 -4.898814,0.0585 -13.530057,0.35153 -13.530057,11.4243 0,6.44446 11.197289,6.44446 5.190411,0 7.173263,-0.82021 v 1.81619 q -4.024025,1.1717 -5.482006,1.1717 -15.104677,0 -15.104677,-8.61214 0,-8.55358 6.590072,-11.60006 4.315622,-2.05051 13.996612,-2.10909 z"
               id="path10728" />
            <path
               style="color:#000000;-inkscape-font-specification:'Guild of Professional Actors';fill:#666666;stroke-width:1.0985;stroke-linejoin:round;-inkscape-stroke:none;paint-order:fill markers stroke"
               d="m 82.683594,216.20703 c -6.472428,0.0392 -11.161958,0.73527 -14.107422,2.13477 -4.477949,2.07077 -6.742188,6.07018 -6.742188,11.83984 0,2.94805 1.32678,5.21651 3.910157,6.68945 2.583376,1.47295 6.398954,2.1875 11.458984,2.1875 1.042863,0 2.865725,-0.39811 5.556641,-1.18164 a 0.26460996,0.26460996 0 0 0 0.191406,-0.25586 v -1.81445 a 0.26460996,0.26460996 0 0 0 -0.367188,-0.24609 c -1.246548,0.51563 -3.625932,0.80078 -7.072265,0.80078 -3.707047,0 -6.465506,-0.54014 -8.265625,-1.57617 -1.80012,-1.03604 -2.666016,-2.53199 -2.666016,-4.60352 0,-3.63704 1.098444,-6.33977 3.289063,-8.18945 2.190618,-1.84968 5.508459,-2.85447 9.982421,-2.97071 a 0.26460996,0.26460996 0 0 0 0.002,0 c 1.200392,-0.0388 2.831685,-0.0586 4.890625,-0.0586 a 0.26460996,0.26460996 0 0 0 0.263671,-0.27148 l -0.05664,-2.22657 a 0.26460996,0.26460996 0 0 0 -0.267578,-0.25781 z m -0.253907,0.54688 0.04297,1.68359 c -1.903553,0.002 -3.493521,0.0177 -4.636719,0.0547 -4.544988,0.11838 -7.989568,1.1376 -10.308593,3.0957 -2.319396,1.95842 -3.476563,4.84895 -3.476563,8.59375 0,2.22477 0.999334,3.95039 2.931641,5.0625 1.932306,1.11212 4.771491,1.64648 8.529297,1.64648 3.252233,0 5.481628,-0.25431 6.910156,-0.75781 v 1.27539 c -2.52368,0.72466 -4.349218,1.1211 -5.21875,1.1211 -5.009745,0 -8.745755,-0.72138 -11.197266,-2.11914 -2.45151,-1.39777 -3.642578,-3.43515 -3.642578,-6.22852 0,-5.63443 2.129734,-9.36797 6.4375,-11.35937 a 0.26460996,0.26460996 0 0 0 0.002,-0.002 c 2.765083,-1.31379 7.346221,-2.00756 13.626953,-2.0664 z"
               id="path10730" />
          </g>
          <g
             id="path2605"
             style="stroke-width:1.0985">
            <path
               style="color:#000000;-inkscape-font-specification:'Guild of Professional Actors';fill:#666666;stroke-width:0.581291;stroke-linejoin:round;-inkscape-stroke:none;paint-order:fill markers stroke"
               d="m 111.72871,239.08678 h -2.21614 v -8.90509 q 0,-5.33136 -3.73242,-8.78794 -3.67411,-3.45659 -9.73932,-3.45659 h -4.957127 v -22.78999 h 2.216134 v 20.6223 q 0.81647,-0.0584 2.740993,-0.0584 6.82335,0 11.13898,3.74953 4.5489,3.92524 4.5489,10.72127 z"
               id="path10734" />
            <path
               style="color:#000000;-inkscape-font-specification:'Guild of Professional Actors';fill:#666666;stroke-width:1.0985;stroke-linejoin:round;-inkscape-stroke:none;paint-order:fill markers stroke"
               d="m 91.083984,194.88281 a 0.26460996,0.26460996 0 0 0 -0.265625,0.26367 v 22.79102 a 0.26460996,0.26460996 0 0 0 0.265625,0.26367 h 4.957032 c 3.993204,0 7.162114,1.13016 9.558594,3.38477 a 0.26460996,0.26460996 0 0 0 0,0.002 c 2.43852,2.25831 3.64844,5.10126 3.64844,8.59375 v 8.9043 a 0.26460996,0.26460996 0 0 0 0.26367,0.26562 h 2.2168 a 0.26460996,0.26460996 0 0 0 0.26562,-0.26562 v -8.9043 c 0,-4.58916 -1.55159,-8.25384 -4.64062,-10.91992 -2.9292,-2.54496 -6.71514,-3.81445 -11.312504,-3.81445 -1.153757,0 -1.909154,0.0207 -2.476563,0.0527 V 195.1465 a 0.26460996,0.26460996 0 0 0 -0.263672,-0.26367 z m 0.263672,0.5293 h 1.6875 v 20.35742 a 0.26460996,0.26460996 0 0 0 0.283203,0.26367 c 0.529557,-0.0379 1.442319,-0.0566 2.722657,-0.0566 4.500434,0 8.139874,1.22919 10.964844,3.6836 a 0.26460996,0.26460996 0 0 0 0.002,0 c 2.97542,2.56748 4.45703,6.04983 4.45703,10.52148 v 8.64063 h -1.6875 v -8.64063 c 0,-3.61499 -1.27975,-6.63028 -3.8164,-8.98047 -2.50233,-2.35418 -5.82619,-3.52929 -9.919924,-3.5293 h -4.69336 z"
               id="path10736" />
          </g>
          <g
             id="path2607"
             style="stroke-width:1.0985">
            <path
               style="color:#000000;-inkscape-font-specification:'Guild of Professional Actors';fill:#666666;stroke-width:0.581291;stroke-linejoin:round;-inkscape-stroke:none;paint-order:fill markers stroke"
               d="m 140.71331,223.73719 q 0,1.23032 -0.46654,4.56972 h -21.69475 l -0.11663,1.28891 q -0.11665,2.63635 1.16638,4.39395 1.28302,1.75759 2.62436,3.57375 l -1.86622,1.11314 q -1.45797,-2.05052 -2.91595,-4.15961 -1.22471,-1.87476 -1.22471,-4.92123 0,-6.21013 4.89883,-10.42833 4.66553,-4.04243 10.96399,-4.04243 8.63124,0 8.63124,8.61213 z m -2.21613,0 q 0,-6.38588 -5.71527,-6.38588 -4.72387,0 -8.33965,2.10912 -4.02402,2.34343 -5.42369,6.62023 h 19.30366 q 0.17495,-1.28889 0.17495,-2.34347 z"
               id="path10740" />
            <path
               style="color:#000000;-inkscape-font-specification:'Guild of Professional Actors';fill:#666666;stroke-width:1.0985;stroke-linejoin:round;-inkscape-stroke:none;paint-order:fill markers stroke"
               d="m 132.08203,214.86133 c -4.25557,0 -7.98183,1.37193 -11.13672,4.10547 -3.31453,2.85402 -4.99023,6.41925 -4.99023,10.6289 0,2.06644 0.41522,3.76163 1.26758,5.06641 a 0.26460996,0.26460996 0 0 0 0.004,0.006 c 0.97264,1.407 1.9453,2.79413 2.91797,4.16211 a 0.26460996,0.26460996 0 0 0 0.35156,0.0742 l 1.86524,-1.11328 a 0.26460996,0.26460996 0 0 0 0.0781,-0.38477 c -0.89394,-1.21039 -1.768,-2.40095 -2.62304,-3.57227 -0.81495,-1.11637 -1.19174,-2.51144 -1.11719,-4.2207 9e-5,-0.002 -10e-5,-0.004 0,-0.006 l 0.0937,-1.03515 h 21.45312 a 0.26460996,0.26460996 0 0 0 0.26368,-0.22852 c 0.31164,-2.23067 0.46875,-3.75377 0.46875,-4.60742 0,-2.9149 -0.73536,-5.14884 -2.23633,-6.64649 -1.50097,-1.49764 -3.73908,-2.22851 -6.66016,-2.22851 z m 0,0.52734 c 2.83308,0 4.911,0.70311 6.28711,2.07617 1.37611,1.37306 2.08008,3.44498 2.08008,6.27149 0,0.74744 -0.1614,2.26216 -0.44141,4.30664 h -21.45508 a 0.26460996,0.26460996 0 0 0 -0.26367,0.24023 l -0.11718,1.28907 a 0.26460996,0.26460996 0 0 0 0,0.0117 c -0.0798,1.80296 0.32204,3.3368 1.21679,4.5625 0.79904,1.0946 1.61824,2.20928 2.45117,3.33789 l -1.40429,0.8379 c -0.92298,-1.29989 -1.84652,-2.61405 -2.76953,-3.94922 -0.78059,-1.19491 -1.18164,-2.78182 -1.18164,-4.77735 -1e-5,-4.07051 1.5894,-7.45827 4.80664,-10.22851 3.06581,-2.65637 6.64865,-3.97852 10.79101,-3.97852 z m 0.69922,1.69727 c -3.18862,0 -6.01882,0.71514 -8.47266,2.14648 -2.73163,1.5908 -4.58903,3.85677 -5.54101,6.76563 a 0.26460996,0.26460996 0 0 0 0.25195,0.34765 h 19.30274 a 0.26460996,0.26460996 0 0 0 0.26171,-0.22851 c 0.11793,-0.86879 0.17774,-1.66318 0.17774,-2.38086 0,-2.16809 -0.48509,-3.83522 -1.4961,-4.96485 -1.011,-1.12962 -2.53001,-1.68554 -4.48437,-1.68554 z m 0,0.52929 c 1.85582,0 3.19576,0.51077 4.08984,1.50977 0.89409,0.999 1.36133,2.52217 1.36133,4.61133 0,0.62026 -0.0607,1.32876 -0.1543,2.08008 h -18.62109 c 0.94664,-2.60585 2.60822,-4.66469 5.11914,-6.12696 2.3672,-1.38081 5.09521,-2.07422 8.20508,-2.07422 z"
               id="path10742" />
          </g>
          <g
             id="path2609"
             style="stroke-width:1.0985">
            <path
               style="color:#000000;-inkscape-font-specification:'Guild of Professional Actors';fill:#666666;stroke-width:0.581291;stroke-linejoin:round;-inkscape-stroke:none;paint-order:fill markers stroke"
               d="m 162.40801,217.76142 q -1.74956,0 -2.5077,0.23434 -1.2247,0.41009 -2.4494,0.82021 -5.36539,1.6404 -5.36539,6.73738 v 12.59602 h -2.21612 v -12.59602 q 0,-3.7495 1.69125,-5.74142 1.5163,-1.81616 5.19041,-3.04646 2.6827,-0.8788 2.74099,-0.93738 0.81649,-0.17578 2.91596,-0.17578 z"
               id="path10746" />
            <path
               style="color:#000000;-inkscape-font-specification:'Guild of Professional Actors';fill:#666666;stroke-width:1.0985;stroke-linejoin:round;-inkscape-stroke:none;paint-order:fill markers stroke"
               d="m 162.4082,215.38867 c -1.40703,0 -2.38271,0.0546 -2.97265,0.18164 a 0.26460996,0.26460996 0 0 0 -0.13086,0.0703 c 0.0579,-0.0582 0.0535,-0.0394 0.0527,-0.0391 -7.5e-4,3.7e-4 -0.0104,0.004 -0.0234,0.01 -0.026,0.0109 -0.0693,0.0275 -0.12695,0.0488 -0.11529,0.0425 -0.28826,0.10388 -0.51562,0.18164 -0.45473,0.15551 -1.12977,0.37912 -2.02344,0.67187 -2.47618,0.82917 -4.25114,1.85999 -5.31055,3.12891 -1.1794,1.39029 -1.75195,3.37188 -1.75195,5.91015 v 12.59571 a 0.26460996,0.26460996 0 0 0 0.26367,0.26562 h 2.2168 a 0.26460996,0.26460996 0 0 0 0.26367,-0.26562 v -12.59571 c 0,-1.65257 0.43143,-2.99633 1.28516,-4.06836 0.85372,-1.07202 2.14075,-1.88041 3.89257,-2.41601 a 0.26460996,0.26460996 0 0 0 0.008,-0.002 c 0.81451,-0.27276 1.62884,-0.54562 2.44336,-0.81836 0.45056,-0.13927 1.27512,-0.22266 2.42968,-0.22266 a 0.26460996,0.26460996 0 0 0 0.26367,-0.26367 v -2.10938 a 0.26460996,0.26460996 0 0 0 -0.26367,-0.26367 z m -0.26562,0.54297 v 1.58984 c -0.99659,0.0137 -1.81758,0.0653 -2.32031,0.22071 a 0.26460996,0.26460996 0 0 0 -0.006,0.002 c -0.81647,0.27339 -1.63275,0.5469 -2.44922,0.82031 -1.82197,0.55806 -3.21284,1.41941 -4.14649,2.5918 -0.93474,1.17376 -1.40039,2.65107 -1.40039,4.39648 v 12.33204 h -1.68554 v -12.33204 c 0,-2.45988 0.55246,-4.3048 1.62695,-5.57031 a 0.26460996,0.26460996 0 0 0 0.002,0 c 0.96196,-1.15219 2.64918,-2.15377 5.07031,-2.96484 l 0.002,-0.002 c 0.89325,-0.29261 1.56893,-0.51705 2.02734,-0.67382 0.22947,-0.0785 0.4045,-0.14022 0.52734,-0.18555 0.0614,-0.0227 0.1101,-0.0406 0.14844,-0.0566 0.0128,-0.005 0.0236,-0.0103 0.0352,-0.0156 0.45572,-0.0956 1.38951,-0.14206 2.56836,-0.15234 z"
               id="path10748" />
          </g>
          <g
             id="path2611"
             style="stroke-width:1.0985">
            <path
               style="color:#000000;-inkscape-font-specification:'Guild of Professional Actors';fill:#666666;stroke-width:0.581291;stroke-linejoin:round;-inkscape-stroke:none;paint-order:fill markers stroke"
               d="m 180.74789,217.76142 q -1.74957,0 -2.50773,0.23434 -1.22469,0.41009 -2.44939,0.82021 -5.36538,1.6404 -5.36538,6.73738 v 12.59602 h -2.21614 v -12.59602 q 0,-3.7495 1.69127,-5.74142 1.5163,-1.81616 5.19042,-3.04646 2.68267,-0.8788 2.741,-0.93738 0.81647,-0.17578 2.91595,-0.17578 z"
               id="path10752" />
            <path
               style="color:#000000;-inkscape-font-specification:'Guild of Professional Actors';fill:#666666;stroke-width:1.0985;stroke-linejoin:round;-inkscape-stroke:none;paint-order:fill markers stroke"
               d="m 180.74805,215.38867 c -1.40704,0 -2.38273,0.0546 -2.97266,0.18164 a 0.26460996,0.26460996 0 0 0 -0.13086,0.0703 c 0.0578,-0.0581 0.0535,-0.0394 0.0527,-0.0391 -7.6e-4,3.8e-4 -0.0104,0.004 -0.0234,0.01 -0.026,0.0109 -0.0693,0.0275 -0.12696,0.0488 -0.11529,0.0425 -0.28826,0.10388 -0.51562,0.18164 -0.45473,0.15551 -1.12977,0.37912 -2.02344,0.67187 -2.47619,0.82917 -4.25114,1.85999 -5.31054,3.12891 -1.17942,1.39029 -1.75196,3.37188 -1.75196,5.91015 v 12.59571 a 0.26460996,0.26460996 0 0 0 0.26367,0.26562 h 2.2168 a 0.26460996,0.26460996 0 0 0 0.26367,-0.26562 v -12.59571 c 0,-1.65257 0.43144,-2.99633 1.28516,-4.06836 0.85372,-1.07202 2.14076,-1.88041 3.89258,-2.41601 a 0.26460996,0.26460996 0 0 0 0.008,-0.002 c 0.81451,-0.27276 1.62885,-0.54562 2.44336,-0.81836 0.45058,-0.13927 1.27512,-0.22266 2.42969,-0.22266 a 0.26460996,0.26460996 0 0 0 0.26367,-0.26367 v -2.10938 a 0.26460996,0.26460996 0 0 0 -0.26367,-0.26367 z m -0.26563,0.54297 v 1.58984 c -0.99659,0.0137 -1.81757,0.0653 -2.32031,0.22071 a 0.26460996,0.26460996 0 0 0 -0.006,0.002 c -0.81646,0.27339 -1.63275,0.5469 -2.44922,0.82031 -1.82196,0.55806 -3.21283,1.41941 -4.14648,2.5918 -0.93474,1.17376 -1.40039,2.65107 -1.40039,4.39648 v 12.33204 h -1.68555 v -12.33204 c 0,-2.45988 0.55245,-4.3048 1.62695,-5.57031 a 0.26460996,0.26460996 0 0 0 0.002,0 c 0.96195,-1.15219 2.64916,-2.15377 5.07031,-2.96484 l 0.002,-0.002 c 0.89324,-0.29261 1.56894,-0.51705 2.02734,-0.67382 0.22947,-0.0785 0.4045,-0.14022 0.52735,-0.18555 0.0614,-0.0227 0.11009,-0.0406 0.14844,-0.0566 0.0128,-0.005 0.0236,-0.0103 0.0352,-0.0156 0.45571,-0.0956 1.38951,-0.14206 2.56836,-0.15234 z"
               id="path10754" />
          </g>
          <g
             id="path2615"
             style="stroke-width:1.0985">
            <path
               style="color:#000000;-inkscape-font-specification:'Guild of Professional Actors';fill:#666666;stroke-width:0.581291;stroke-linejoin:round;-inkscape-stroke:none;paint-order:fill markers stroke"
               d="m 227.20148,223.73719 q 0,1.23032 -0.46655,4.56972 H 205.0402 l -0.11665,1.28891 q -0.11664,2.63635 1.16638,4.39395 1.28302,1.75759 2.62438,3.57375 l -1.86624,1.11314 q -1.45797,-2.05052 -2.91595,-4.15961 -1.2247,-1.87476 -1.2247,-4.92123 0,-6.21013 4.89882,-10.42833 4.66553,-4.04243 10.964,-4.04243 8.63124,0 8.63124,8.61213 z m -2.21613,0 q 0,-6.38588 -5.71526,-6.38588 -4.72387,0 -8.33966,2.10912 -4.02403,2.34343 -5.42369,6.62023 h 19.30365 q 0.17496,-1.28889 0.17496,-2.34347 z"
               id="path10758" />
            <path
               style="color:#000000;-inkscape-font-specification:'Guild of Professional Actors';fill:#666666;stroke-width:1.0985;stroke-linejoin:round;-inkscape-stroke:none;paint-order:fill markers stroke"
               d="m 218.57031,214.86133 c -4.25558,0 -7.98183,1.37193 -11.13672,4.10547 -3.31452,2.85402 -4.99023,6.41925 -4.99023,10.6289 0,2.06644 0.41522,3.76163 1.26758,5.06641 a 0.26460996,0.26460996 0 0 0 0.004,0.006 c 0.97264,1.407 1.9453,2.79413 2.91797,4.16211 a 0.26460996,0.26460996 0 0 0 0.35156,0.0742 l 1.86524,-1.11328 a 0.26460996,0.26460996 0 0 0 0.0781,-0.38477 c -0.89395,-1.21039 -1.76995,-2.40095 -2.625,-3.57227 -0.81493,-1.11637 -1.18977,-2.51143 -1.11523,-4.2207 9e-5,-0.002 -9e-5,-0.004 0,-0.006 l 0.0937,-1.03515 h 21.45312 a 0.26460996,0.26460996 0 0 0 0.26172,-0.22852 c 0.31165,-2.23067 0.47071,-3.75377 0.47071,-4.60742 0,-2.9149 -0.73536,-5.14884 -2.23633,-6.64649 -1.50097,-1.49764 -3.73908,-2.22851 -6.66016,-2.22851 z m 0,0.52734 c 2.83308,0 4.91101,0.70311 6.28711,2.07617 1.37611,1.37306 2.08008,3.44498 2.08008,6.27149 0,0.74744 -0.16139,2.26216 -0.44141,4.30664 h -21.45507 a 0.26460996,0.26460996 0 0 0 -0.26368,0.24023 l -0.11718,1.28907 a 0.26460996,0.26460996 0 0 0 0,0.0117 c -0.0798,1.80296 0.32205,3.3368 1.21679,4.5625 0.79904,1.0946 1.61823,2.20928 2.45117,3.33789 l -1.40429,0.8379 c -0.92298,-1.29989 -1.84651,-2.61405 -2.76953,-3.94922 -0.78058,-1.19491 -1.18164,-2.78182 -1.18164,-4.77735 0,-4.07051 1.58941,-7.45827 4.80664,-10.22851 3.06581,-2.65637 6.64864,-3.97852 10.79101,-3.97852 z m 0.69922,1.69727 c -3.18862,0 -6.01881,0.71514 -8.47266,2.14648 -2.73164,1.5908 -4.58903,3.85677 -5.54101,6.76563 a 0.26460996,0.26460996 0 0 0 0.25,0.34765 h 19.30469 a 0.26460996,0.26460996 0 0 0 0.26172,-0.22851 c 0.11793,-0.86879 0.17773,-1.66318 0.17773,-2.38086 0,-2.16809 -0.48509,-3.83522 -1.49609,-4.96485 -1.011,-1.12962 -2.53002,-1.68554 -4.48438,-1.68554 z m 0,0.52929 c 1.85581,0 3.19576,0.51077 4.08984,1.50977 0.89409,0.999 1.36133,2.52217 1.36133,4.61133 0,0.62026 -0.0607,1.32876 -0.15429,2.08008 h -18.6211 c 0.94664,-2.60585 2.60821,-4.66469 5.11914,-6.12696 2.36721,-1.38081 5.09521,-2.07422 8.20508,-2.07422 z"
               id="path10760" />
          </g>
          <g
             id="path2617"
             style="stroke-width:1.0985">
            <path
               style="color:#000000;-inkscape-font-specification:'Guild of Professional Actors';fill:#666666;stroke-width:0.581291;stroke-linejoin:round;-inkscape-stroke:none;paint-order:fill markers stroke"
               d="m 245.30804,215.82808 -0.0583,2.22627 h -5.13209 q -1.39966,0 -2.85764,1.11313 -1.57463,1.28889 -1.57463,2.98791 0,2.40201 2.33279,5.15557 2.33274,2.69494 2.33274,5.15557 0,2.63637 -2.04115,4.45253 -2.04118,1.7576 -4.37395,1.7576 h -6.99831 v -2.22629 h 6.99831 q 1.22471,0 2.68268,-1.17172 1.5163,-1.17171 1.5163,-2.81212 0,-2.28484 -2.33277,-4.92123 -2.33277,-2.63638 -2.33277,-5.38991 0,-2.81214 2.44942,-4.7455 2.04116,-1.58181 4.19898,-1.58181 z"
               id="path10764" />
            <path
               style="color:#000000;-inkscape-font-specification:'Guild of Professional Actors';fill:#666666;stroke-width:1.0985;stroke-linejoin:round;-inkscape-stroke:none;paint-order:fill markers stroke"
               d="m 240.11719,215.56445 c -1.5032,0 -2.96488,0.55453 -4.36133,1.63672 a 0.26460996,0.26460996 0 0 0 -0.002,0.002 c -1.68192,1.32756 -2.54883,3.00155 -2.54883,4.95313 0,1.9104 0.81296,3.77263 2.39844,5.56445 1.53004,1.72919 2.26757,3.31292 2.26757,4.7461 0,1.01208 -0.45046,1.85695 -1.41406,2.60156 a 0.26460996,0.26460996 0 0 0 -0.004,0.004 c -0.94378,0.75848 -1.78548,1.11328 -2.51757,1.11328 h -6.99805 a 0.26460996,0.26460996 0 0 0 -0.26367,0.26562 v 2.22461 a 0.26460996,0.26460996 0 0 0 0.26367,0.26563 h 6.99805 c 1.62162,0 3.14832,-0.61802 4.54687,-1.82227 a 0.26460996,0.26460996 0 0 0 0.004,-0.002 c 1.40826,-1.25304 2.1289,-2.82453 2.1289,-4.65039 0,-1.72331 -0.81459,-3.50023 -2.39453,-5.32618 l -0.002,-0.002 c -1.52931,-1.80584 -2.26953,-3.46739 -2.26953,-4.98242 0,-1.0501 0.47257,-1.95861 1.47656,-2.78125 8.1e-4,-6.6e-4 0.001,-0.001 0.002,-0.002 0.93644,-0.7129 1.82908,-1.05469 2.68946,-1.05469 H 245.25 a 0.26460996,0.26460996 0 0 0 0.26367,-0.25781 l 0.0586,-2.22461 a 0.26460996,0.26460996 0 0 0 -0.26368,-0.27149 z m 0,0.52735 h 4.91797 l -0.043,1.69726 h -4.875 c -1.00325,0 -2.01314,0.4011 -3.01758,1.16797 a 0.26460996,0.26460996 0 0 0 -0.008,0.006 c -1.09385,0.89535 -1.67188,1.97894 -1.67188,3.19336 0,1.68699 0.81677,3.46152 2.39649,5.32617 a 0.26460996,0.26460996 0 0 0 0.002,0.002 c 1.52908,1.7665 2.26758,3.42562 2.26758,4.98243 0,1.68929 -0.63791,3.08539 -1.95117,4.2539 -1.32236,1.13792 -2.71133,1.69141 -4.19922,1.69141 H 227.201 v -1.69727 h 6.73438 c 0.89901,0 1.84583,-0.42593 2.84375,-1.22656 1.05813,-0.81767 1.61914,-1.84636 1.61914,-3.02148 0,-1.61327 -0.81812,-3.31166 -2.39844,-5.09766 -1.52489,-1.72335 -2.26562,-3.45192 -2.26563,-5.21289 0,-1.79794 0.76369,-3.28881 2.34766,-4.53906 1.32434,-1.02569 2.66206,-1.52539 4.03516,-1.52539 z"
               id="path10766" />
          </g>
        </g>
      </g>
    </g>
  </g>
</svg>
