<?xml version="1.0" encoding="UTF-8" standalone="no"?>
<!-- Created with Inkscape (http://www.inkscape.org/) -->

<svg
   width="1000"
   height="1000"
   viewBox="0 0 264.58333 264.58333"
   version="1.1"
   id="svg5"
   xmlns="http://www.w3.org/2000/svg"
   xmlns:svg="http://www.w3.org/2000/svg">
  <defs
     id="defs2" />
  <g
     id="layer1">
    <rect
       style="fill:#ececec;stroke:none;stroke-width:0.529167;stroke-linejoin:round;paint-order:fill markers stroke;stop-color:#000000"
       id="rect8228"
       width="264.31876"
       height="264.31876"
       x="0"
       y="0"
       ry="0" />
    <g
       id="g8386"
       transform="translate(-2.5135483)">
      <path
         style="fill:#666666;stroke:none;stroke-width:0.264584;stroke-linecap:round;stroke-linejoin:round;stroke-dasharray:none;paint-order:markers stroke fill;stop-color:#000000"
         d="m 200.82574,165.73819 c 4.51193,-71.536499 -79.35649,-115.954334 -38.9612,-210.538092 -32.07407,85.726822 52.36983,138.393341 46.98077,210.544782 -3.15753,42.27435 -13.98468,71.51658 -45.42658,116.29413 22.67106,-44.13717 34.80974,-75.1213 37.40701,-116.30082 z"
         id="path112412-03-2-6-2" />
      <g
         id="g8370">
        <path
           id="path112772-9"
           style="fill:#666666;stroke:none;stroke-width:0.264583;stroke-linecap:round;stroke-linejoin:round;stroke-dasharray:none;paint-order:markers stroke fill;stop-color:#000000"
           d="m 110.65996,124.37245 c -13.503678,28.33139 -9.36219,43.02146 -0.51323,51.27659 -1.138,5.28685 -1.2562,13.54792 -1.24567,17.28112 0.10479,-2.80172 0.78358,-8.35903 4.07917,-14.9555 6.113,4.43643 13.57936,6.59782 19.13837,8.29731 -24.6395,-13.23843 -34.84193,-32.03994 -21.45864,-61.89952 z m -1.7589,68.55769 c -0.0468,1.24922 0.0207,1.95244 0.0207,1.95244 0,0 -0.0164,-0.74162 -0.0207,-1.95244 z" />
        <path
           id="rect370"
           style="fill:#666666;stroke-width:0.264583;stroke-linejoin:round;paint-order:fill markers stroke;stop-color:#000000"
           d="m 128.67034,109.41308 -41.849574,-0.0744 -2.914836,-0.61933 c -3.946168,-0.83819 -7.265498,-1.95486 -10.235619,-3.44402 -2.743476,-1.37556 -6.242671,-3.69423 -6.820579,-4.51931 -0.205228,-0.29301 -0.883156,-1.92293 -1.506432,-3.622167 -3.212886,-8.759465 -9.251291,-13.432674 -18.931059,-14.651067 -2.674054,-0.33659 -7.574666,-0.274289 -7.950131,0.101194 -0.272524,0.272496 3.007324,6.730106 4.817093,9.483967 2.914088,4.434272 6.881599,7.628038 11.453736,9.219913 1.865926,0.64965 2.628475,0.75515 6.112671,0.84598 2.189342,0.0571 3.979661,0.003 3.978503,-0.12338 -9.99e-4,-0.12503 -0.456535,-0.49392 -1.012009,-0.81961 -0.55546,-0.32571 -2.649373,-2.071036 -4.653165,-3.878887 -4.046709,-3.650966 -8.963097,-7.651834 -11.537019,-9.388568 -0.927683,-0.625956 -1.686697,-1.205139 -1.686697,-1.286637 0,-0.191012 4.81414,2.393656 6.74679,3.622181 4.377913,2.782853 13.245856,10.846841 12.679223,11.529611 -0.543755,0.6552 4.04135,4.17584 8.50569,6.53122 l 2.158972,1.13904 -8.770838,0.008 c -6.513004,0.004 -9.409786,-0.0964 -11.252886,-0.39527 -2.675764,-0.43402 -7.400945,-1.99581 -8.184691,-2.70506 -0.26518,-0.24001 -1.039507,-1.39571 -1.720965,-2.56852 -3.862432,-6.647451 -11.481461,-10.503812 -19.176692,-9.705848 -1.352359,0.140221 -3.486969,0.55403 -4.743301,0.919248 -2.209935,0.642433 -7.56998,2.700996 -9.044393,3.473545 l -0.721592,0.377924 3.740784,2.962761 c 8.311121,6.58264 11.144533,7.86444 17.909563,8.10302 3.252545,0.11483 3.918204,0.0576 6.207038,-0.53657 4.992534,-1.29598 5.795668,-1.57679 5.302552,-1.85276 -0.982478,-0.54981 -11.7598,-4.76255 -13.599,-5.31573 -1.074955,-0.32331 -3.434315,-0.88939 -5.242458,-1.25762 -1.808145,-0.36827 -3.347205,-0.72916 -3.420305,-0.80223 -0.233857,-0.233858 2.99823,-0.14283 5.361589,0.15125 4.801361,0.59748 8.794711,1.89314 14.924109,4.84242 3.300727,1.58819 3.441549,1.68876 3.016022,2.15897 -0.424108,0.46861 -0.35766,0.53586 1.343565,1.34777 1.672511,0.79823 4.636137,1.63843 8.776088,2.48788 l 1.75416,0.35948 -2.420395,0.6425 c -7.115738,1.88851 -12.065075,5.88837 -15.718963,12.70454 -1.231118,2.29654 -3.189745,6.96256 -3.001797,7.15052 0.06842,0.0686 0.389652,0.15737 0.713679,0.19769 0.511475,0.0636 0.7606,-0.32261 1.891731,-2.93065 2.514359,-5.7973 5.323515,-9.43077 9.3754,-12.12683 2.018214,-1.34287 5.235312,-2.91215 5.478609,-2.67234 0.05333,0.0527 -0.153072,0.44729 -0.459098,0.87706 -0.306024,0.42978 -0.880033,1.74201 -1.275556,2.91642 -1.317214,3.91095 -0.656403,7.34442 2.826781,14.68426 1.63133,3.43754 1.942649,3.92351 2.560633,3.99853 0.386911,0.0471 0.703668,-0.0416 0.703668,-0.19766 0,-0.1559 -0.49177,-1.40876 -1.092661,-2.78412 -0.600918,-1.37536 -1.72426,-3.95834 -2.496316,-5.7395 l -1.403655,-3.23843 v -2.96859 c 0,-3.34243 0.391542,-4.57623 2.0525,-6.46796 1.276805,-1.45424 2.720701,-2.01125 5.972489,-2.30446 1.578941,-0.14237 25.420702,-0.25361 55.453834,-0.25879 l 101.68253,-0.011 c 24.11973,0 20.46552,0.0982 20.46552,0.21873 0,0.12062 -0.55033,1.59668 -1.22287,3.28066 -0.67252,1.68395 -1.18868,3.15397 -1.14694,3.26638 0.0416,0.1125 2.0797,-0.64859 4.52878,-1.69091 2.44908,-1.04232 6.88173,-2.89668 9.8503,-4.12081 2.96859,-1.22415 5.39744,-2.32051 5.39744,-2.43623 0,-0.24024 -19.34279,-8.54674 -19.51088,-8.37866 -0.0604,0.0605 0.38851,1.38418 0.99727,2.94118 0.60875,1.557 1.1069,2.9613 1.1069,3.1209 0,0.20583 10.67727,0.29045 -20.33374,0.29045 z" />
        <path
           id="rect370-9"
           style="fill:#7a2532;fill-opacity:1;stroke-width:0.264583;stroke-linejoin:round;paint-order:fill markers stroke;stop-color:#000000"
           d="m 37.241888,128.55347 c -1.15862,-0.0346 -3.323516,0.22248 -4.350641,0.58348 -3.236896,1.13767 -5.985901,4.08638 -6.673522,7.159 -0.484187,2.16356 -0.233017,5.17026 0.563465,6.7478 2.649632,5.24793 8.434989,7.20739 13.65857,4.62579 2.386704,-1.17957 4.383456,-3.25697 5.261966,-5.47386 0.475284,-1.1994 0.616705,-2.10117 0.623546,-3.97955 0.0081,-2.22137 -0.06557,-2.57237 -0.863904,-4.10555 -1.181293,-2.26862 -3.670482,-4.66066 -4.85294,-4.66423 -0.302173,-8e-4 -1.150116,1.6143 -1.150116,2.1906 0,0.33963 1.202268,0.29211 2.018234,-0.0796 0.530134,-0.24156 0.769663,-0.24185 1.010445,-0.001 0.365814,0.36579 -0.08632,0.79457 -1.797915,1.70461 -1.875866,0.99732 -4.539482,0.30464 -5.426962,-1.41156 -0.474227,-0.91711 -0.180388,-1.17654 1.067366,-0.94247 0.83947,0.15749 0.906893,0.10837 1.328803,-0.96562 0.244479,-0.62242 0.391927,-1.18463 0.327322,-1.24923 -0.08318,-0.0832 -0.357509,-0.12709 -0.743717,-0.13862 z m 21.579717,4.7043 c -0.31024,0.026 -0.472284,0.0848 -0.472284,0.17657 0,0.27461 1.018642,2.78651 1.205985,2.97385 0.05099,0.0508 0.767412,-0.35518 1.592349,-0.90292 1.135544,-0.75396 1.666072,-0.95443 2.184268,-0.82438 0.376456,0.0945 0.684693,0.28287 0.684693,0.41854 0,0.33294 -2.073858,1.99267 -3.213147,2.57168 -1.320075,0.67082 -3.890268,0.65197 -4.81079,-0.0354 -1.024975,-0.76527 -1.050481,-1.15735 -0.09924,-1.51646 0.955796,-0.36078 0.986776,-0.47252 0.431681,-1.54595 -0.375142,-0.72545 -0.464834,-0.76128 -1.233403,-0.49338 -1.539936,0.53682 -3.343573,1.9693 -4.358522,3.46142 -2.643579,3.88636 -2.24355,8.9629 0.974589,12.36561 1.994064,2.10842 3.873321,3.06874 6.91126,3.53204 0.07426,0.011 0.919793,-0.10671 1.879595,-0.26248 3.417514,-0.55448 6.565889,-2.95061 8.056607,-6.13116 0.616566,-1.31547 0.723699,-1.90114 0.723699,-3.97163 0,-2.07053 -0.107169,-2.65669 -0.723699,-3.97219 -1.593507,-3.39983 -4.696503,-5.55656 -8.372856,-5.81962 -0.592788,-0.0424 -1.050729,-0.0503 -1.360942,-0.0242 z" />
        <path
           d="m 36.119449,236.45037 q -1.749577,0.76162 -5.948561,1.58183 -4.140665,0.82021 -6.123517,0.82021 -11.372246,0 -11.372246,-8.67072 0,-6.796 6.181836,-10.89703 5.365368,-3.51518 12.538631,-3.57375 l 4.723857,-0.0586 z m -2.099492,-18.33744 q -0.524874,-0.17577 -1.516301,-0.17577 -6.706708,0 -11.605523,2.69498 -6.006879,3.3394 -6.006879,9.54955 0,3.33938 3.207557,5.03838 2.507726,1.34749 6.181838,1.34749 6.356792,0 9.622669,-1.75759 -0.05832,0.8788 -0.05832,-6.44447 0,-1.75759 0.05832,-5.15558 0.116639,-3.45657 0.116639,-5.09699 z"
           style="font-size:55.9465px;font-family:'Guild of Professional Actors';-inkscape-font-specification:'Guild of Professional Actors';fill:#666666;stroke:#666666;stroke-width:0.529167;stroke-linejoin:round;paint-order:fill markers stroke;stop-color:#000000"
           id="path2599" />
        <path
           d="m 58.566159,217.76142 q -1.749575,0 -2.507725,0.23434 -1.224705,0.41009 -2.449407,0.82021 -5.365367,1.6404 -5.365367,6.73738 v 12.59602 h -2.21613 v -12.59602 q 0,-3.7495 1.691256,-5.74142 1.516298,-1.81616 5.190409,-3.04646 2.682685,-0.8788 2.741005,-0.93738 0.816467,-0.17578 2.915959,-0.17578 z"
           style="font-size:55.9465px;font-family:'Guild of Professional Actors';-inkscape-font-specification:'Guild of Professional Actors';fill:#666666;stroke:#666666;stroke-width:0.529167;stroke-linejoin:round;paint-order:fill markers stroke;stop-color:#000000"
           id="path2601" />
        <path
           d="m 82.744097,218.69879 q -3.090917,0 -4.898814,0.0585 -13.530057,0.35153 -13.530057,11.4243 0,6.44446 11.197289,6.44446 5.190411,0 7.173263,-0.82021 v 1.81619 q -4.024025,1.1717 -5.482006,1.1717 -15.104677,0 -15.104677,-8.61214 0,-8.55358 6.590072,-11.60006 4.315622,-2.05051 13.996612,-2.10909 z"
           style="font-size:55.9465px;font-family:'Guild of Professional Actors';-inkscape-font-specification:'Guild of Professional Actors';fill:#666666;stroke:#666666;stroke-width:0.529167;stroke-linejoin:round;paint-order:fill markers stroke;stop-color:#000000"
           id="path2603" />
        <path
           d="m 111.72871,239.08678 h -2.21614 v -8.90509 q 0,-5.33136 -3.73242,-8.78794 -3.67411,-3.45659 -9.73932,-3.45659 h -4.957127 v -22.78999 h 2.216134 v 20.6223 q 0.81647,-0.0584 2.740993,-0.0584 6.82335,0 11.13898,3.74953 4.5489,3.92524 4.5489,10.72127 z"
           style="font-size:55.9465px;font-family:'Guild of Professional Actors';-inkscape-font-specification:'Guild of Professional Actors';fill:#666666;stroke:#666666;stroke-width:0.529167;stroke-linejoin:round;paint-order:fill markers stroke;stop-color:#000000"
           id="path2605" />
        <path
           d="m 140.71331,223.73719 q 0,1.23032 -0.46654,4.56972 h -21.69475 l -0.11663,1.28891 q -0.11665,2.63635 1.16638,4.39395 1.28302,1.75759 2.62436,3.57375 l -1.86622,1.11314 q -1.45797,-2.05052 -2.91595,-4.15961 -1.22471,-1.87476 -1.22471,-4.92123 0,-6.21013 4.89883,-10.42833 4.66553,-4.04243 10.96399,-4.04243 8.63124,0 8.63124,8.61213 z m -2.21613,0 q 0,-6.38588 -5.71527,-6.38588 -4.72387,0 -8.33965,2.10912 -4.02402,2.34343 -5.42369,6.62023 h 19.30366 q 0.17495,-1.28889 0.17495,-2.34347 z"
           style="font-size:55.9465px;font-family:'Guild of Professional Actors';-inkscape-font-specification:'Guild of Professional Actors';fill:#666666;stroke:#666666;stroke-width:0.529167;stroke-linejoin:round;paint-order:fill markers stroke;stop-color:#000000"
           id="path2607" />
        <path
           d="m 162.40801,217.76142 q -1.74956,0 -2.5077,0.23434 -1.2247,0.41009 -2.4494,0.82021 -5.36539,1.6404 -5.36539,6.73738 v 12.59602 h -2.21612 v -12.59602 q 0,-3.7495 1.69125,-5.74142 1.5163,-1.81616 5.19041,-3.04646 2.6827,-0.8788 2.74099,-0.93738 0.81649,-0.17578 2.91596,-0.17578 z"
           style="font-size:55.9465px;font-family:'Guild of Professional Actors';-inkscape-font-specification:'Guild of Professional Actors';fill:#666666;stroke:#666666;stroke-width:0.529167;stroke-linejoin:round;paint-order:fill markers stroke;stop-color:#000000"
           id="path2609" />
        <path
           d="m 180.74789,217.76142 q -1.74957,0 -2.50773,0.23434 -1.22469,0.41009 -2.44939,0.82021 -5.36538,1.6404 -5.36538,6.73738 v 12.59602 h -2.21614 v -12.59602 q 0,-3.7495 1.69127,-5.74142 1.5163,-1.81616 5.19042,-3.04646 2.68267,-0.8788 2.741,-0.93738 0.81647,-0.17578 2.91595,-0.17578 z"
           style="font-size:55.9465px;font-family:'Guild of Professional Actors';-inkscape-font-specification:'Guild of Professional Actors';fill:#666666;stroke:#666666;stroke-width:0.529167;stroke-linejoin:round;paint-order:fill markers stroke;stop-color:#000000"
           id="path2611" />
        <path
           d="m 227.20148,223.73719 q 0,1.23032 -0.46655,4.56972 H 205.0402 l -0.11665,1.28891 q -0.11664,2.63635 1.16638,4.39395 1.28302,1.75759 2.62438,3.57375 l -1.86624,1.11314 q -1.45797,-2.05052 -2.91595,-4.15961 -1.2247,-1.87476 -1.2247,-4.92123 0,-6.21013 4.89882,-10.42833 4.66553,-4.04243 10.964,-4.04243 8.63124,0 8.63124,8.61213 z m -2.21613,0 q 0,-6.38588 -5.71526,-6.38588 -4.72387,0 -8.33966,2.10912 -4.02403,2.34343 -5.42369,6.62023 h 19.30365 q 0.17496,-1.28889 0.17496,-2.34347 z"
           style="font-size:55.9465px;font-family:'Guild of Professional Actors';-inkscape-font-specification:'Guild of Professional Actors';fill:#666666;stroke:#666666;stroke-width:0.529167;stroke-linejoin:round;paint-order:fill markers stroke;stop-color:#000000"
           id="path2615" />
        <path
           d="m 245.30804,215.82808 -0.0583,2.22627 h -5.13209 q -1.39966,0 -2.85764,1.11313 -1.57463,1.28889 -1.57463,2.98791 0,2.40201 2.33279,5.15557 2.33274,2.69494 2.33274,5.15557 0,2.63637 -2.04115,4.45253 -2.04118,1.7576 -4.37395,1.7576 h -6.99831 v -2.22629 h 6.99831 q 1.22471,0 2.68268,-1.17172 1.5163,-1.17171 1.5163,-2.81212 0,-2.28484 -2.33277,-4.92123 -2.33277,-2.63638 -2.33277,-5.38991 0,-2.81214 2.44942,-4.7455 2.04116,-1.58181 4.19898,-1.58181 z"
           style="font-size:55.9465px;font-family:'Guild of Professional Actors';-inkscape-font-specification:'Guild of Professional Actors';fill:#666666;stroke:#666666;stroke-width:0.529167;stroke-linejoin:round;paint-order:fill markers stroke;stop-color:#000000"
           id="path2617" />
      </g>
    </g>
  </g>
</svg>
