<?xml version="1.0" encoding="UTF-8" standalone="no"?>
<!-- Created with Inkscape (http://www.inkscape.org/) -->

<svg
   width="642"
   height="578"
   viewBox="0 0 169.8625 152.92917"
   version="1.1"
   id="svg5"
   inkscape:version="1.2.2 (732a01da63, 2022-12-09)"
   sodipodi:docname="log_schriftzug.svg"
   xmlns:inkscape="http://www.inkscape.org/namespaces/inkscape"
   xmlns:sodipodi="http://sodipodi.sourceforge.net/DTD/sodipodi-0.dtd"
   xmlns="http://www.w3.org/2000/svg"
   xmlns:svg="http://www.w3.org/2000/svg">
  <sodipodi:namedview
     id="namedview7"
     pagecolor="#ffffff"
     bordercolor="#ffffff"
     borderopacity="0"
     inkscape:showpageshadow="0"
     inkscape:pageopacity="0"
     inkscape:pagecheckerboard="1"
     inkscape:deskcolor="#505050"
     inkscape:document-units="mm"
     showgrid="false"
     inkscape:zoom="0.93806818"
     inkscape:cx="255.31193"
     inkscape:cy="221.19927"
     inkscape:window-width="1920"
     inkscape:window-height="1080"
     inkscape:window-x="52"
     inkscape:window-y="52"
     inkscape:window-maximized="0"
     inkscape:current-layer="layer1" />
  <defs
     id="defs2" />
  <g
     inkscape:label="Ebene 1"
     inkscape:groupmode="layer"
     id="layer1">
    <path
       id="path112412-03-2-6-5-1"
       style="fill:#000000;stroke:none;stroke-width:0.264583;stroke-linecap:round;stroke-linejoin:round;stroke-dasharray:none;paint-order:markers stroke fill;stop-color:#000000"
       d="M 85.942954,0.10287933 C 70.068044,37.273269 103.02783,54.728919 101.25468,82.842007 c -0.5917,9.38141 -3.700596,16.68883 -6.888466,25.164883 -1.14596,3.04694 -14.82987,30.63095 -15.21664,31.41048 -0.0566,0.0861 -0.10187,0.1711 -0.12506,0.25322 -0.83798,1.057 -2.72661,1.83087 -4.06693,2.29133 -0.64345,0.2209 -1.38981,0.33654 -2.07171,0.4253 -2.34981,0.30632 -4.03687,-1.10614 -3.64526,-3.10937 0.38445,-1.96751 2.15575,-4.23893 4.33566,-5.03949 0.94663,-0.34754 2.02274,-0.64874 2.99309,-0.22893 0.63699,0.27549 0.94181,0.76932 1.61128,0.94878 -0.0645,-2.08983 -2.92125,-2.18001 -4.83433,-1.93063 -4.65749,0.60674 -6.57839,4.23634 -9.70794,6.77427 -0.70078,0.56826 -2.56066,2.54348 -3.64474,2.22518 -1.02354,-0.30063 -0.0808,-1.49873 0.19172,-1.9637 0.72426,-1.23528 1.70381,-2.32105 2.49391,-3.53415 0.26106,-0.40097 0.51522,-1.10177 0.19223,-1.53789 -0.60293,-0.8143 -2.25982,-0.0346 -2.76262,-1.01493 -0.39643,-0.77286 1.62242,-2.20406 -0.11524,-2.68356 -1.99137,-0.54941 -1.97295,1.66502 -2.99258,2.19264 -0.64622,0.33439 -1.80403,0.29455 -2.53266,0.29455 h -5.06481 c 0.0875,-0.94389 0.58316,-1.84752 0.92087,-2.74919 0.65197,-1.7407 1.37089,-3.44412 2.26343,-5.10511 3.01445,-5.60963 6.18522,-11.03536 10.47482,-16.10134 0.60754,-0.71739 1.24214,-1.43529 1.90479,-2.12804 2.47394,1.3334 5.13458,2.12006 7.2347,2.76211 -2.26625,-1.21762 -4.27806,-2.53342 -6.00842,-3.9641 0.65412,-0.57748 1.38912,-1.08535 1.85725,-1.77509 v -5.1e-4 c -1.08772,0.0244 -2.06127,0.3661 -3.01015,0.76067 -6.42664,-5.975093 -8.16161,-13.888563 -3.20962,-24.936983 -6.52631,13.69251 -4.52474,20.792273 -0.24805,24.781953 l 1.32963,1.09141 c -2.59603,1.22247 -5.04569,2.73976 -7.29309,4.39043 -6.48563,4.76353 -12.22422,10.09612 -17.95704,15.51223 -1.89513,1.79058 -3.62919,3.7065 -5.52525,5.49786 -0.60754,0.57415 -1.08065,1.28393 -1.84175,1.73477 -0.63401,0.37563 -1.56363,0.22893 -2.30218,0.22893 -1.66146,0 -3.41232,-0.13706 -5.06481,0 -5.18905,0.43022 -9.93878,1.38955 -14.7334701,3.20704 -2.89302,1.09666 -6.14565,3.14893 -7.55923002,5.62911 -0.92895,1.62996 -0.62959,3.72872 1.11312002,4.84364 1.8057,1.15497 4.07969,1.04696 6.21564,1.04696 7.5287201,0 14.2630301,-4.70363 19.3383501,-9.03252 1.25744,-1.0725 2.49007,-2.21082 3.6835,-3.3383 0.44985,-0.42512 0.79243,-1.03738 1.38131,-1.34152 0.69941,-0.3615 2.59501,-0.0326 3.45302,-0.0326 h 9.4387 c -0.89462,1.70577 -0.94157,3.6627 -1.15084,5.49786 -0.54584,4.78854 1.22601,11.52951 7.82743,12.56667 v -0.19637 c -0.90336,-0.52721 -1.77867,-1.01044 -2.45618,-1.76681 -2.77779,-3.10166 -2.09615,-7.41253 -1.68775,-10.99623 0.13652,-1.1972 0.38469,-2.36131 0.72864,-3.53415 0.11856,-0.40489 0.1476,-1.02303 0.49867,-1.34152 0.41347,-0.37524 1.22266,-0.20463 1.76527,-0.29456 2.06159,-0.34205 4.80378,-0.33056 6.90656,-0.13126 0.65105,0.0616 2.21065,0.45977 2.18694,1.17823 -0.0164,0.49796 -0.8048,1.16831 -1.11259,1.57044 -0.77375,1.01104 -1.70421,2.29546 -1.76475,3.53467 -0.0437,0.89696 -0.0161,1.74937 1.15083,2.09496 3.50848,1.03893 6.26658,-2.92377 8.28787,-4.64778 0,0.99218 -0.24737,2.24477 0.3452,3.14193 0.90866,1.37567 2.77494,1.76734 4.48913,1.76734 2.97577,0 5.43161,-0.75399 7.59747,-2.55282 l -0.69091,2.16007 c 0.82255,0.20303 1.99877,0.41321 2.76262,-0.0651 0.7307,-0.4579 1.04582,-1.4562 1.53479,-2.09496 1.17685,-1.53786 2.40174,-2.89995 3.99045,-4.12326 0.67363,-0.51878 2.32014,-2.51292 3.45302,-2.06189 0.97613,0.3886 -0.18803,2.24541 -0.38395,2.84685 -0.68581,2.10632 -1.07279,4.82987 1.99574,5.62963 1.21554,0.31673 3.44086,0.20322 4.60437,-0.19637 0.49059,-0.16866 1.09467,-0.69582 1.61127,-0.72037 0.42659,-0.0202 0.80763,0.36102 1.15135,0.524 0.53363,0.25271 1.231676,0.4072 1.841746,0.45786 2.9182,0.24191 5.38021,-0.92473 7.59695,-2.42156 2.04431,-1.38039 4.00464,-2.99335 5.75521,-4.64726 0.49611,-0.4687 1.16218,-1.6583 2.07222,-1.50534 1.55442,0.26155 0.29005,1.54583 -0.19224,2.09445 -1.16443,1.32424 -2.57038,2.79906 -2.57038,4.516 0,0.74145 -0.0698,1.59248 0.92087,1.89859 1.38475,0.42787 3.25391,-0.0761 4.3739,-0.75292 2.38893,-1.44323 4.37786,-3.50486 6.44611,-5.26893 0.75188,-0.6413 1.87489,-2.30894 2.99259,-2.45463 0.51937,-0.0677 1.14559,0.34444 1.61178,0.49092 -1.24383,2.12183 -4.254,4.26169 -3.91397,6.87245 0.16369,1.2559 1.48354,1.58609 2.76262,1.57097 2.77847,-0.033 4.63066,-1.78982 6.44612,-3.3383 -0.0555,0.59831 -0.33097,1.16177 -0.15348,1.76733 0.89141,3.04119 6.42075,1.52443 8.44135,0.32763 0.5836,-0.34578 1.00403,-0.81307 1.61179,-1.11311 0.17543,1.89446 2.96083,2.53654 4.83433,2.2257 3.13183,-0.51935 5.44907,-1.76887 7.82743,-3.60029 1.15038,-0.88576 2.11961,-2.09028 3.45301,-2.74867 0.4876,1.97555 3.92378,2.4305 4.29742,4.516 0.49682,2.77433 -5.03622,3.38344 -7.06004,2.52026 -0.96461,-0.41137 -1.22961,-1.13019 -1.84175,-1.73478 -0.72519,1.46915 1.05193,2.31986 2.53267,2.61793 2.59959,0.52369 5.96979,0.19749 8.05739,-1.30896 0.40402,-0.29159 0.7342,-0.70634 0.95911,-1.1126 1.4354,-2.59248 -1.63896,-3.98374 -3.49126,-5.49785 -0.68743,-0.56178 -1.56953,-1.26429 -1.49655,-2.16008 0.14274,-1.75267 2.92923,-2.8846 4.71961,-2.29081 0.74636,0.2476 1.16879,0.77783 1.61127,1.30896 0.98716,-0.80545 -0.0499,-1.80758 -1.15083,-2.09444 -1.34262,-0.34992 -3.59952,-0.16665 -4.83485,0.36018 -1.11034,0.47342 -2.3102,1.27423 -2.68614,2.32337 -0.25508,0.71238 0.18015,1.51485 -0.3452,2.16008 -0.64737,0.79525 -1.66767,1.32699 -2.4939,1.96318 -1.30762,1.00673 -2.65284,1.93666 -4.14394,2.74919 -1.30209,0.70944 -4.24383,2.03136 -5.487,0.58911 -0.42751,-0.4958 -0.39643,-1.30664 0.19223,-1.7017 0.6064,-0.40686 1.6136,-0.58992 2.30219,-0.88367 1.6435,-0.7008 3.39956,-1.67779 4.56561,-2.91248 0.79378,-0.84042 1.56551,-2.50805 0.26872,-3.27267 -0.92686,-0.54626 -2.45827,-0.25661 -3.45302,-0.0326 -3.00662,0.67665 -5.35788,2.68906 -6.63835,5.07204 -0.64299,1.1966 -0.48437,2.16842 -1.87948,3.01119 -1.17455,0.70964 -4.78273,2.71956 -5.87095,0.91622 -0.65934,-1.09234 1.18676,-3.24272 1.8035,-4.12378 0.96944,-1.38432 2.75843,-2.94357 3.14658,-4.516 -0.85594,-0.23053 -1.88711,-0.64894 -2.76262,-0.22893 -1.23464,0.59241 -1.85847,2.58585 -2.60966,3.56723 -1.22912,1.60581 -2.80859,2.9346 -4.52737,4.15633 -0.80899,0.57494 -2.25729,1.8284 -3.45302,1.66915 -0.97474,-0.13 -0.69639,-1.38845 -0.4222,-1.89859 0.79055,-1.47149 2.0219,-2.7896 3.10782,-4.12326 0.34625,-0.4255 1.09357,-0.99014 0.95912,-1.57097 -0.3117,-1.34817 -3.17215,-0.38988 -3.45302,-1.76733 -0.20673,-1.01379 1.57446,-1.22828 0.49867,-2.32337 l -0.46043,-0.22945 c -0.18555,-0.0836 -0.48045,-0.15347 -0.6904,-0.16329 -1.53116,-0.0726 -2.2168,1.21336 -2.07222,2.32337 0.0635,0.48796 0.51446,0.90275 0.19171,1.37459 -0.602,0.88028 -1.89693,1.62051 -2.72386,2.35645 -1.28667,1.14516 -2.59019,2.22462 -3.91346,3.33778 -1.25882,1.05876 -2.52717,2.16007 -4.37441,2.16007 0,-1.8491 1.6146,-3.46308 2.83911,-4.90926 0.44109,-0.52073 1.72188,-1.47937 1.68827,-2.15956 -0.0592,-1.1911 -2.62031,-0.58285 -2.95435,-1.7017 -0.20443,-0.6849 1.83918,-1.81474 0.6904,-2.52026 -1.12229,-0.6892 -2.78118,0.45132 -3.1843,1.27641 -0.35638,0.72947 0.21045,1.28949 0.0382,1.89859 -0.15977,0.56395 -1.34883,1.26835 -1.80351,1.7017 -2.12235,2.02328 -4.5432,3.81507 -7.21299,5.30149 -1.45657,0.81115 -4.53178,1.99574 -5.64049,0.13074 -0.25739,-0.43278 -0.11472,-1.09853 -0.11472,-1.57096 2.78399,-0.18753 6.11828,-2.38748 7.59695,-4.31964 0.77651,-1.01456 1.32374,-2.94064 -0.46043,-3.46903 -0.99315,-0.29414 -2.28079,-0.0172 -3.22306,0.26199 -3.14245,0.93054 -6.019486,3.58315 -6.830076,6.34845 -0.13813,0.47145 -0.33799,1.08674 -0.30644,1.57097 0.0251,0.38524 0.43004,0.93463 0.2682,1.30948 -0.29283,0.67782 -1.83416,1.03861 -2.57038,1.17822 -1.69347,0.32084 -3.15678,-0.85458 -2.9931,-2.29133 0.18625,-1.63349 1.53282,-3.09656 1.61179,-4.71238 0.0438,-0.89676 -0.28226,-1.76888 -1.38131,-2.09444 -0.35637,-0.10544 -0.78164,-0.0656 -1.15135,-0.0656 -0.50325,0 -0.91238,0.008 -1.38132,0.16381 -0.63954,0.21225 -1.28923,0.52375 -1.84174,0.88367 -0.84053,0.54764 -1.55561,1.2613 -2.30219,1.89808 -1.05463,0.89952 -2.21356,1.95502 -2.76262,3.14141 h -0.22996 c 0.0762,-0.82294 0.84387,-2.35645 0.84387,-2.35645 -0.16147,0.30479 0.0716,-0.12975 0.59997,-1.15187 3.45682,-6.68664 19.561166,-38.514373 20.637496,-52.924933 C 106.5237,54.489809 73.338154,33.792559 85.942914,0.10283933 Z M 24.410794,58.863629 c -1.30407,-0.004 -2.6281,0.10728 -3.93878,0.24495 2.45481,6.31716 10.09467,9.92056 16.40417,10.58333 v 0.26459 c -6.75505,0 -6.77488,-0.0233 -13.54956,-1.91978 -6.77469,-1.89651 -6.7762,-1.89525 -9.46919,-2.84272 0,0 4.16916,0.0781 9.40924,2.09961 1.27337,0.49124 1.70326,0.8108 1.70326,0.8108 -2.12513,-5.20274 -10.18491,-4.79451 -14.55208,-3.96875 2.35105,3.68987 8.35448,6.80614 12.7,6.87917 -1.27979,1.21523 -2.83308,3.45026 -4.29225,4.30671 -2.24525,1.31762 -4.59582,-0.23634 -6.21771,2.83704 -1.80206,3.414438 1.02705,7.143748 4.68912,7.143748 1.04043,0 2.26917,-0.33966 2.96881,-1.13533 l 1.79369,-2.03967 c 0,0.95409 0.0117,1.77422 0.47026,2.63808 3.70522,6.98163 12.7459,-1.23488 9.36015,-5.274608 0.006,0.18973 -0.0318,0.40438 -0.12351,0.64595 -1.34756,2.768868 -1.84133,1.095668 -3.17189,0.730708 -1.31909,-0.3618 -3.89641,1.04556 -3.61064,-0.10542 0.29129,-1.173228 2.98589,-2.307028 4.31757,-2.458248 0.29427,-0.0334 0.59644,-0.0408 0.88625,-0.0186 -0.22302,-0.0965 -0.46204,-0.18608 -0.71985,-0.26665 -1.35229,-0.42254 -2.84256,-0.58827 -3.96875,-0.12454 0,0 -1.25004,-1.31711 -1.04748,-2.55437 0.24886,-1.52006 1.27015,-3.08163 2.63498,-3.79563 0.39072,-0.20441 0.88194,0 1.32291,0 h 70.37917 c -0.15611,-2.14736 -2.62123,-1.5875 -4.23333,-1.5875 h -13.49375 -27.51667 c -3.99786,0 -9.08106,0.85085 -12.96458,-0.0661 -3.20252,-0.75616 -5.81052,-6.24736 -8.20209,-8.37882 -2.32559,-2.07258 -5.09852,-2.63915 -7.96747,-2.6479 z m -1.82521,1.64797 2.04484,0.35295 c 4.01813,0.31292 4.00116,0.36478 5.69681,1.32756 2.33801,1.32749 2.89606,3.23072 5.59759,5.8074 -5.59024,-1.45349 -9.3585,-3.83992 -13.33924,-7.48791 z m 121.591536,7.03884 c 0,0 0.30583,1.28434 0.44959,2.38849 -2.57592,-0.18399 -4.8209,-0.11214 -4.8209,-0.11214 0,0 -16.31333,-0.0338 -24.46982,0 -2.9556,0.0122 -8.54796,-0.0464 -10.12238,-0.0305 -0.278,0.003 -0.1726,0.37155 -0.1726,0.37155 l 0.36587,1.03457 0.0419,0.0434 c 0.0539,0.0558 0.14877,0.17045 0.22686,0.17105 l 34.32762,0.262 c 0,0 2.19788,-0.0396 4.65346,-0.14262 -0.12507,1.14951 -0.47956,2.63808 -0.47956,2.63808 0,0 2.3919,-1.13233 3.60392,-1.66295 1.32283,-0.57911 4.00182,-1.65933 4.00182,-1.65933 0,0 -2.60134,-1.01958 -3.88245,-1.57613 -1.25467,-0.54506 -3.72329,-1.72548 -3.72329,-1.72548 z m -118.678016,3.99356 c -1.57059,2.18715 -3.17269,3.43644 -0.74104,6.71121 0,0 -0.83864,0.40148 -1.18546,0.7028 -0.39606,0.3441 -0.98392,1.22887 -0.98392,1.22887 0.10452,-1.28718 -0.17819,-2.20951 -0.66611,-2.99 -0.0101,0.0551 -0.0222,0.11186 -0.0377,0.17053 -1.05273,2.89385 -1.71812,2.3389 -3.0794,2.11409 -1.34953,-0.22284 -3.76654,1.444708 -3.60185,0.27026 0.16787,-1.19713 2.72974,-2.60466 4.03851,-2.89336 0.47991,-0.10585 0.99012,-0.14402 1.43661,-0.0842 -0.23908,-0.23986 -0.48435,-0.48074 -0.73587,-0.73226 1.05542,-1.80682 3.3528,-4.34048 5.55625,-4.49791 z m 36.79672,36.513011 c -0.78158,1.68855 -3.01034,3.05189 -4.29793,4.51601 -3.30751,3.76157 -6.00203,7.97746 -8.32559,12.17445 -1.20196,2.17093 -2.15967,4.42799 -3.18482,6.67608 -0.30595,0.67096 -0.36665,1.82047 -1.03611,2.29133 -0.73462,0.51662 -2.29222,0.26148 -3.1843,0.26148 -2.94353,0 -5.81628,-0.19637 -8.74831,-0.19637 0.55068,-1.18974 1.98706,-2.19137 2.9931,-3.14193 1.4179,-1.33973 2.76236,-2.75543 4.14342,-4.12326 4.22997,-4.18985 8.52624,-8.25399 13.12271,-12.17445 2.54388,-2.16974 5.40486,-4.74613 8.51783,-6.28334 z m 81.969666,18.97352 c -0.26363,-0.009 -0.57393,0.032 -0.93379,0.1385 -0.8937,0.26468 -1.84175,1.26443 -1.84175,2.09444 0,1.00692 1.33436,1.41248 2.30218,1.08004 1.86915,-0.64207 2.31873,-3.24375 0.47336,-3.31298 z m -37.79201,5.34283 c 0.24094,0.0131 0.46147,0.0907 0.63769,0.26148 0.61882,0.59968 -0.21634,1.80401 -0.61392,2.32337 -1.22176,1.59639 -3.74384,3.37827 -5.98568,3.73053 0.86008,-1.99106 2.00174,-4.04856 3.91346,-5.49786 0.42164,-0.31972 1.32568,-0.85704 2.04845,-0.81752 z m 47.47721,1.16995 c 0.22521,-0.0126 0.43864,0.025 0.62322,0.1385 0.79675,0.48912 -0.26583,1.79278 -0.61392,2.25774 -1.1368,1.51745 -3.72387,3.16296 -5.79396,3.53467 0.41692,-1.68867 2.29164,-4.10463 3.91397,-5.13767 0.41474,-0.26404 1.19505,-0.75545 1.87069,-0.79324 z m -124.575856,1.02216 c -0.4381,1.29085 -2.38942,2.52919 -3.45302,3.53415 -4.17357,3.94305 -8.94363,8.03569 -15.19442,9.29453 -2.3558001,0.47459 -6.7628401,1.12404 -8.4408301,-0.85111 -2.15180002,-2.53281 2.14532,-5.64894 4.2969,-6.87245 6.5733301,-3.73766 14.9891501,-5.10512 22.7913701,-5.10512 z" />
  </g>
</svg>
