<?xml version="1.0" encoding="UTF-8" standalone="no"?>
<!-- Created with Inkscape (http://www.inkscape.org/) -->

<svg
   width="930"
   height="850"
   viewBox="0 0 246.0625 224.89584"
   version="1.1"
   id="svg5"
   inkscape:version="1.2.2 (732a01da63, 2022-12-09)"
   sodipodi:docname="log_schriftzug.svg"
   xmlns:inkscape="http://www.inkscape.org/namespaces/inkscape"
   xmlns:sodipodi="http://sodipodi.sourceforge.net/DTD/sodipodi-0.dtd"
   xmlns="http://www.w3.org/2000/svg"
   xmlns:svg="http://www.w3.org/2000/svg">
  <sodipodi:namedview
     id="namedview7"
     pagecolor="#ffffff"
     bordercolor="#ffffff"
     borderopacity="0"
     inkscape:showpageshadow="0"
     inkscape:pageopacity="0"
     inkscape:pagecheckerboard="1"
     inkscape:deskcolor="#505050"
     inkscape:document-units="mm"
     showgrid="false"
     inkscape:zoom="0.46903409"
     inkscape:cx="-163.10115"
     inkscape:cy="39.442762"
     inkscape:window-width="1920"
     inkscape:window-height="1080"
     inkscape:window-x="3321"
     inkscape:window-y="171"
     inkscape:window-maximized="0"
     inkscape:current-layer="layer1" />
  <defs
     id="defs2" />
  <g
     inkscape:label="Ebene 1"
     inkscape:groupmode="layer"
     id="layer1">
    <g
       id="g6261"
       transform="translate(16.415864,6.114585)">
      <path
         id="path112772-9"
         style="fill:#000000;stroke:none;stroke-width:0.264583;stroke-linecap:round;stroke-linejoin:round;stroke-dasharray:none;paint-order:markers stroke fill;stop-color:#000000"
         d="m 117.92802,124.86387 c -10.3824,21.78279 -7.19819,33.07736 -0.3946,39.42437 -0.87496,4.06484 -0.96584,10.41641 -0.95774,13.2867 0.0806,-2.15413 0.60246,-6.4269 3.13629,-11.49865 4.70003,3.41098 10.44059,5.0728 14.71468,6.37945 -18.94426,-10.17845 -26.78847,-24.63411 -16.49863,-47.59187 z m -1.35234,52.71107 c -0.036,0.96046 0.0159,1.50115 0.0159,1.50115 0,0 -0.0126,-0.57021 -0.0159,-1.50115 z" />
      <path
         id="rect370"
         style="fill:#000000;stroke-width:0.264583;stroke-linejoin:round;paint-order:fill markers stroke;stop-color:#000000"
         d="m 131.77543,113.36225 -32.176345,-0.0572 -2.24109,-0.47618 c -3.03404,-0.64445 -5.58613,-1.50301 -7.86973,-2.64796 -2.10934,-1.05761 -4.79972,-2.84034 -5.24405,-3.4747 -0.15779,-0.22528 -0.67902,-1.47846 -1.15823,-2.78493 -2.47025,-6.734776 -7.11292,-10.327806 -14.555277,-11.264576 -2.055966,-0.25879 -5.823836,-0.21089 -6.112515,0.0778 -0.209532,0.20951 2.312202,5.17449 3.703656,7.291816 2.240517,3.40932 5.290965,5.86487 8.806286,7.08879 1.43463,0.49949 2.02092,0.58061 4.69977,0.65044 1.68329,0.0439 3.05979,0.002 3.0589,-0.0948 -7.8e-4,-0.0961 -0.35101,-0.37976 -0.77809,-0.63017 -0.42707,-0.25042 -2.03699,-1.59233 -3.57762,-2.98231 -3.11134,-2.80707 -6.89134,-5.883166 -8.870317,-7.218466 -0.713256,-0.48127 -1.29683,-0.92658 -1.29683,-0.98924 0,-0.14686 3.701387,1.84038 5.187317,2.78494 3.36599,2.139616 10.18417,8.339676 9.74851,8.864626 -0.41807,0.50375 3.10722,3.21062 6.53966,5.02157 l 1.65994,0.87576 -6.74352,0.006 c -5.00757,0.003 -7.23478,-0.0741 -8.65186,-0.30392 -2.05728,-0.33369 -5.69027,-1.53449 -6.292857,-2.0798 -0.203887,-0.18453 -0.799233,-1.0731 -1.323176,-1.97483 -2.969659,-5.11097 -8.827603,-8.07596 -14.744136,-7.46244 -1.03977,0.10781 -2.680981,0.42597 -3.64692,0.70677 -1.699124,0.49394 -5.820232,2.07668 -6.953845,2.67066 l -0.554801,0.29057 2.876128,2.27795 c 6.390064,5.0611 8.568553,6.04662 13.769893,6.23005 2.500743,0.0883 3.012539,0.0442 4.772325,-0.41254 3.838546,-0.99642 4.456041,-1.21232 4.076905,-1.4245 -0.755385,-0.42273 -9.041605,-3.66172 -10.455687,-4.08704 -0.826487,-0.24858 -2.640497,-0.68382 -4.030701,-0.96694 -1.390205,-0.28314 -2.573522,-0.56061 -2.629726,-0.6168 -0.179802,-0.1798 2.305211,-0.10981 4.122296,0.1163 3.69156,0.45937 6.761875,1.45555 11.474507,3.72312 2.537787,1.22109 2.646059,1.29842 2.318889,1.65994 -0.326078,0.3603 -0.274989,0.412 1.033009,1.03625 1.285922,0.61372 3.564527,1.25971 6.747557,1.91282 l 1.3487,0.27639 -1.86094,0.49399 c -5.470984,1.452 -9.276317,4.52732 -12.085635,9.76798 -0.946553,1.76571 -2.452457,5.35322 -2.307952,5.49773 0.05261,0.0527 0.299586,0.121 0.548717,0.15199 0.393251,0.0489 0.584793,-0.24804 1.454471,-2.25325 1.933182,-4.4573 4.093022,-7.25092 7.208342,-9.3238 1.551717,-1.03247 4.025207,-2.23903 4.212267,-2.05465 0.041,0.0405 -0.11769,0.34391 -0.35298,0.67433 -0.23529,0.33044 -0.67662,1.33936 -0.98072,2.24232 -1.01275,3.00696 -0.50468,5.6468 2.17339,11.2901 1.25426,2.64298 1.49362,3.01662 1.96876,3.0743 0.29748,0.0362 0.54102,-0.032 0.54102,-0.15198 0,-0.11986 -0.3781,-1.08313 -0.8401,-2.14058 -0.46202,-1.05746 -1.32571,-3.04341 -1.91931,-4.41286 l -1.07921,-2.4899 v -2.28242 c 0,-2.56985 0.30104,-3.51847 1.57808,-4.97294 0.98168,-1.1181 2.09183,-1.54636 4.59199,-1.7718 1.21398,-0.10946 19.544885,-0.19499 42.636075,-0.19897 l 78.17933,-0.008 c 18.54462,0 11.66652,0.0755 11.66652,0.16817 0,0.0927 -0.42313,1.22762 -0.94021,2.52236 -0.51708,1.29471 -0.91393,2.42495 -0.88184,2.51138 0.032,0.0865 1.59899,-0.49867 3.48199,-1.30007 1.883,-0.8014 5.29106,-2.22713 7.57347,-3.16832 2.28242,-0.94119 4.14986,-1.78413 4.14986,-1.8731 0,-0.18471 -14.87184,-6.57122 -15.00107,-6.442 -0.0465,0.0465 0.29871,1.06424 0.76675,2.26135 0.46805,1.19711 0.85105,2.27681 0.85105,2.39953 0,0.15825 12.27783,0.22331 -11.5652,0.22331 z"
         sodipodi:nodetypes="cccsssssssssssssssscssssssscsssssssssssccsssssssssssssscsssccssssssssscc" />
      <path
         id="rect370-9"
         style="fill:#7a2532;fill-opacity:1;stroke-width:0.264583;stroke-linejoin:round;paint-order:fill markers stroke;stop-color:#000000"
         d="m 61.480016,128.07848 c -0.890813,-0.0266 -2.555308,0.17105 -3.34502,0.44861 -2.48871,0.87471 -4.602303,3.14184 -5.130985,5.50424 -0.372271,1.66347 -0.179156,3.9752 0.433224,5.1881 2.037188,4.03491 6.485301,5.54145 10.501488,3.55657 1.835034,-0.90692 3.370251,-2.50414 4.0457,-4.20862 0.365426,-0.92216 0.474157,-1.61549 0.479418,-3.0597 0.0062,-1.70792 -0.05042,-1.97779 -0.664219,-3.15657 -0.908246,-1.74426 -2.822076,-3.58339 -3.731218,-3.58613 -0.232327,-6.2e-4 -0.884274,1.24116 -0.884274,1.68426 0,0.26112 0.924372,0.22459 1.551733,-0.0612 0.407597,-0.18572 0.591761,-0.18594 0.776887,-8e-4 0.281259,0.28125 -0.06637,0.61092 -1.382339,1.31061 -1.442273,0.7668 -3.490213,0.23423 -4.172558,-1.08529 -0.364613,-0.7051 -0.138693,-0.90457 0.820652,-0.7246 0.645432,0.12108 0.697271,0.0833 1.02166,-0.74243 0.187969,-0.47854 0.301336,-0.91081 0.251664,-0.96047 -0.06396,-0.0639 -0.274874,-0.0977 -0.571813,-0.10658 z m 16.591719,3.61694 c -0.23853,0.02 -0.36312,0.0652 -0.36312,0.13575 0,0.21113 0.78319,2.14243 0.92723,2.28647 0.0392,0.0391 0.59003,-0.27308 1.22429,-0.69422 0.87307,-0.57969 1.28097,-0.73382 1.67939,-0.63383 0.28944,0.0726 0.52643,0.21748 0.52643,0.32179 0,0.256 -1.5945,1.53209 -2.47045,1.97726 -1.01495,0.51576 -2.99106,0.50126 -3.69881,-0.0272 -0.78806,-0.58839 -0.80767,-0.88984 -0.0763,-1.16594 0.73487,-0.2774 0.75869,-0.3633 0.3319,-1.18862 -0.28843,-0.55777 -0.35739,-0.58532 -0.94831,-0.37934 -1.18399,0.41274 -2.57073,1.51412 -3.35108,2.66135 -2.032534,2.98805 -1.724969,6.89117 0.74932,9.50738 1.53315,1.62108 2.97803,2.35942 5.31377,2.71564 0.0571,0.008 0.70719,-0.0821 1.44514,-0.20182 2.62758,-0.4263 5.04823,-2.26859 6.19438,-4.71398 0.47405,-1.01141 0.55642,-1.4617 0.55642,-3.05363 0,-1.59192 -0.0824,-2.04262 -0.55642,-3.05403 -1.22518,-2.614 -3.61094,-4.27222 -6.43753,-4.47446 -0.45577,-0.0326 -0.80786,-0.0386 -1.04637,-0.0186 z"
         sodipodi:nodetypes="ssssssssssssssssssssssssssssssssssssssss" />
      <path
         style="fill:#000000;stroke:none;stroke-width:0.264584;stroke-linecap:round;stroke-linejoin:round;stroke-dasharray:none;paint-order:markers stroke fill;stop-color:#000000"
         d="M 186.33895,138.49325 C 189.41848,89.667384 132.17571,59.350843 159.74673,-5.2054866 137.85519,53.305712 195.49075,89.252234 191.81255,138.49782 c -2.1551,28.85355 -9.54497,48.81226 -31.00503,79.37433 15.47369,-30.12499 23.75872,-51.2726 25.53143,-79.3789 z"
         id="path112412-03-2-6-2"
         sodipodi:nodetypes="acaca" />
      <path
         d="m 7.3509056,210.28208 q -1.7009296,0.74041 -5.7831631,1.53777 -4.025534,0.79736 -5.9532544,0.79736 -11.0560461,0 -11.0560461,-8.42921 0,-6.60669 6.0099535,-10.59348 5.2161849,-3.41726 12.1899989,-3.47421 l 4.5925112,-0.0569 z M 5.3097894,192.45543 q -0.5102788,-0.17086 -1.47414,-0.17086 -6.5202316,0 -11.2828361,2.6199 -5.8398593,3.24638 -5.8398593,9.28353 0,3.24638 3.118371,4.89805 2.4380002,1.30995 6.0099538,1.30995 6.1800451,0 9.3551148,-1.70863 -0.056697,0.85432 -0.056697,-6.26495 0,-1.70863 0.056697,-5.01198 0.1133958,-3.36029 0.1133958,-4.95501 z"
         style="font-size:55.9465px;font-family:'Guild of Professional Actors';-inkscape-font-specification:'Guild of Professional Actors';stroke:#000000;stroke-width:0.529167;stroke-linejoin:round;paint-order:fill markers stroke;stop-color:#000000"
         id="path2599" />
      <path
         d="m 30.37011,192.11371 q -1.700929,0 -2.437999,0.22782 -1.190652,0.39867 -2.381302,0.79736 -5.216186,1.59471 -5.216186,6.54972 v 12.24514 h -2.154511 v -12.24514 q 0,-3.64507 1.644232,-5.58151 1.474139,-1.76557 5.046092,-2.96161 2.608094,-0.85432 2.664791,-0.91126 0.793767,-0.17087 2.834883,-0.17087 z"
         style="font-size:55.9465px;font-family:'Guild of Professional Actors';-inkscape-font-specification:'Guild of Professional Actors';stroke:#000000;stroke-width:0.529167;stroke-linejoin:round;paint-order:fill markers stroke;stop-color:#000000"
         id="path2601" />
      <path
         d="m 58.662252,193.02497 q -3.004976,0 -4.762604,0.0569 -13.15386,0.34173 -13.15386,11.10607 0,6.26495 10.885953,6.26495 5.046093,0 6.973814,-0.79736 v 1.76558 q -3.912139,1.13908 -5.329582,1.13908 -14.684697,0 -14.684697,-8.37225 0,-8.31532 6.406837,-11.27694 4.195628,-1.99339 13.607442,-2.05034 z"
         style="font-size:55.9465px;font-family:'Guild of Professional Actors';-inkscape-font-specification:'Guild of Professional Actors';stroke:#000000;stroke-width:0.529167;stroke-linejoin:round;paint-order:fill markers stroke;stop-color:#000000"
         id="path2603" />
      <path
         d="M 86.840952,212.84503 H 84.686438 V 204.188 q 0,-5.18284 -3.628641,-8.54313 -3.571955,-3.3603 -9.468523,-3.3603 h -4.819297 v -22.15518 h 2.154516 v 20.04787 q 0.793766,-0.0569 2.664781,-0.0569 6.633631,0 10.829257,3.64507 4.422421,3.81593 4.422421,10.42262 z"
         style="font-size:55.9465px;font-family:'Guild of Professional Actors';-inkscape-font-specification:'Guild of Professional Actors';stroke:#000000;stroke-width:0.529167;stroke-linejoin:round;paint-order:fill markers stroke;stop-color:#000000"
         id="path2605" />
      <path
         d="m 115.01965,197.92303 q 0,1.19604 -0.45357,4.44243 H 93.474543 l -0.113393,1.25299 q -0.113402,2.56293 1.133949,4.27156 1.247351,1.70862 2.551399,3.47421 l -1.814336,1.08213 q -1.41743,-1.9934 -2.834871,-4.04375 -1.190655,-1.82253 -1.190655,-4.78415 0,-6.03714 4.76261,-10.13784 4.535814,-3.92984 10.659154,-3.92984 8.39125,0 8.39125,8.37226 z m -2.15451,0 q 0,-6.20801 -5.55636,-6.20801 -4.59252,0 -8.107768,2.05036 -3.912143,2.27816 -5.272887,6.43582 h 18.766925 q 0.17009,-1.25299 0.17009,-2.27817 z"
         style="font-size:55.9465px;font-family:'Guild of Professional Actors';-inkscape-font-specification:'Guild of Professional Actors';stroke:#000000;stroke-width:0.529167;stroke-linejoin:round;paint-order:fill markers stroke;stop-color:#000000"
         id="path2607" />
      <path
         d="m 136.11115,192.11371 q -1.70092,0 -2.43799,0.22782 -1.19065,0.39867 -2.3813,0.79736 -5.21619,1.59471 -5.21619,6.54972 v 12.24514 h -2.15451 v -12.24514 q 0,-3.64507 1.64423,-5.58151 1.47414,-1.76557 5.04609,-2.96161 2.6081,-0.85432 2.66479,-0.91126 0.79377,-0.17087 2.83488,-0.17087 z"
         style="font-size:55.9465px;font-family:'Guild of Professional Actors';-inkscape-font-specification:'Guild of Professional Actors';stroke:#000000;stroke-width:0.529167;stroke-linejoin:round;paint-order:fill markers stroke;stop-color:#000000"
         id="path2609" />
      <path
         d="m 159.92418,192.11371 q -1.70093,0 -2.43801,0.22782 -1.19064,0.39867 -2.38129,0.79736 -5.2162,1.59471 -5.2162,6.54972 v 12.24514 h -2.15451 v -12.24514 q 0,-3.64507 1.64424,-5.58151 1.47414,-1.76557 5.04609,-2.96161 2.60809,-0.85432 2.6648,-0.91126 0.79376,-0.17087 2.83488,-0.17087 z"
         style="font-size:55.9465px;font-family:'Guild of Professional Actors';-inkscape-font-specification:'Guild of Professional Actors';stroke:#000000;stroke-width:0.529167;stroke-linejoin:round;paint-order:fill markers stroke;stop-color:#000000"
         id="path2611" />
      <path
         d="m 205.08614,197.92303 q 0,1.19604 -0.45358,4.44243 h -21.09153 l -0.1134,1.25299 q -0.1134,2.56293 1.13395,4.27156 1.24735,1.70862 2.5514,3.47421 l -1.81433,1.08213 q -1.41745,-1.9934 -2.83488,-4.04375 -1.19065,-1.82253 -1.19065,-4.78415 0,-6.03714 4.76261,-10.13784 4.53581,-3.92984 10.65916,-3.92984 8.39125,0 8.39125,8.37226 z m -2.15452,0 q 0,-6.20801 -5.55636,-6.20801 -4.59252,0 -8.10777,2.05036 -3.91214,2.27816 -5.27289,6.43582 h 18.76693 q 0.17009,-1.25299 0.17009,-2.27817 z"
         style="font-size:55.9465px;font-family:'Guild of Professional Actors';-inkscape-font-specification:'Guild of Professional Actors';stroke:#000000;stroke-width:0.529167;stroke-linejoin:round;paint-order:fill markers stroke;stop-color:#000000"
         id="path2615" />
      <path
         d="m 228.67233,190.23423 -0.0567,2.16425 h -4.98939 q -1.36075,0 -2.77819,1.08213 -1.53084,1.25299 -1.53084,2.90467 0,2.33511 2.26791,5.01196 2.2679,2.61989 2.2679,5.01197 0,2.56293 -1.98441,4.3285 -1.98443,1.70864 -4.25233,1.70864 h -6.80372 v -2.16427 h 6.80372 q 1.19065,0 2.60809,-1.13908 1.47414,-1.13908 1.47414,-2.73379 0,-2.22121 -2.26791,-4.78415 -2.26791,-2.56294 -2.26791,-5.23978 0,-2.73381 2.38131,-4.6133 1.98442,-1.53775 4.08224,-1.53775 z"
         style="font-size:55.9465px;font-family:'Guild of Professional Actors';-inkscape-font-specification:'Guild of Professional Actors';stroke:#000000;stroke-width:0.529167;stroke-linejoin:round;paint-order:fill markers stroke;stop-color:#000000"
         id="path2617" />
    </g>
  </g>
</svg>
