<?xml version="1.0" encoding="UTF-8" standalone="no"?>
<!-- Created with Inkscape (http://www.inkscape.org/) -->

<svg
   width="930"
   height="850"
   viewBox="0 0 246.0625 224.89584"
   version="1.1"
   id="svg5"
   inkscape:version="1.2.2 (732a01da63, 2022-12-09)"
   sodipodi:docname="log_schriftzug_dark.svg"
   xmlns:inkscape="http://www.inkscape.org/namespaces/inkscape"
   xmlns:sodipodi="http://sodipodi.sourceforge.net/DTD/sodipodi-0.dtd"
   xmlns="http://www.w3.org/2000/svg"
   xmlns:svg="http://www.w3.org/2000/svg">
  <sodipodi:namedview
     id="namedview7"
     pagecolor="#ffffff"
     bordercolor="#ffffff"
     borderopacity="0"
     inkscape:showpageshadow="0"
     inkscape:pageopacity="0"
     inkscape:pagecheckerboard="1"
     inkscape:deskcolor="#505050"
     inkscape:document-units="mm"
     showgrid="false"
     inkscape:zoom="0.46903409"
     inkscape:cx="549.00061"
     inkscape:cy="-108.7341"
     inkscape:window-width="3440"
     inkscape:window-height="1369"
     inkscape:window-x="2552"
     inkscape:window-y="-8"
     inkscape:window-maximized="1"
     inkscape:current-layer="g6261" />
  <defs
     id="defs2" />
  <g
     inkscape:label="Ebene 1"
     inkscape:groupmode="layer"
     id="layer1">
    <g
       id="g6261"
       transform="translate(16.415864,6.114585)">
      <path
         id="path112772-9"
         style="fill:#ececec;stroke:none;stroke-width:0.264583;stroke-linecap:round;stroke-linejoin:round;stroke-dasharray:none;paint-order:markers stroke fill;stop-color:#000000"
         d="m 117.92802,124.86387 c -10.3824,21.78279 -7.19819,33.07736 -0.3946,39.42437 -0.87496,4.06484 -0.96584,10.41641 -0.95774,13.2867 0.0806,-2.15413 0.60246,-6.4269 3.13629,-11.49865 4.70003,3.41098 10.44059,5.0728 14.71468,6.37945 -18.94426,-10.17845 -26.78847,-24.63411 -16.49863,-47.59187 z m -1.35234,52.71107 c -0.036,0.96046 0.0159,1.50115 0.0159,1.50115 0,0 -0.0126,-0.57021 -0.0159,-1.50115 z" />
      <path
         id="rect370"
         style="fill:#ececec;stroke-width:0.264583;stroke-linejoin:round;paint-order:fill markers stroke;stop-color:#000000"
         d="m 131.77543,113.36225 -32.176345,-0.0572 -2.24109,-0.47618 c -3.03404,-0.64445 -5.58613,-1.50301 -7.86973,-2.64796 -2.10934,-1.05761 -4.79972,-2.84034 -5.24405,-3.4747 -0.15779,-0.22528 -0.67902,-1.47846 -1.15823,-2.78493 -2.47025,-6.734776 -7.11292,-10.327806 -14.555277,-11.264576 -2.055966,-0.25879 -5.823836,-0.21089 -6.112515,0.0778 -0.209532,0.20951 2.312202,5.17449 3.703656,7.291816 2.240517,3.40932 5.290965,5.86487 8.806286,7.08879 1.43463,0.49949 2.02092,0.58061 4.69977,0.65044 1.68329,0.0439 3.05979,0.002 3.0589,-0.0948 -7.8e-4,-0.0961 -0.35101,-0.37976 -0.77809,-0.63017 -0.42707,-0.25042 -2.03699,-1.59233 -3.57762,-2.98231 -3.11134,-2.80707 -6.89134,-5.883166 -8.870317,-7.218466 -0.713256,-0.48127 -1.29683,-0.92658 -1.29683,-0.98924 0,-0.14686 3.701387,1.84038 5.187317,2.78494 3.36599,2.139616 10.18417,8.339676 9.74851,8.864626 -0.41807,0.50375 3.10722,3.21062 6.53966,5.02157 l 1.65994,0.87576 -6.74352,0.006 c -5.00757,0.003 -7.23478,-0.0741 -8.65186,-0.30392 -2.05728,-0.33369 -5.69027,-1.53449 -6.292857,-2.0798 -0.203887,-0.18453 -0.799233,-1.0731 -1.323176,-1.97483 -2.969659,-5.11097 -8.827603,-8.07596 -14.744136,-7.46244 -1.03977,0.10781 -2.680981,0.42597 -3.64692,0.70677 -1.699124,0.49394 -5.820232,2.07668 -6.953845,2.67066 l -0.554801,0.29057 2.876128,2.27795 c 6.390064,5.0611 8.568553,6.04662 13.769893,6.23005 2.500743,0.0883 3.012539,0.0442 4.772325,-0.41254 3.838546,-0.99642 4.456041,-1.21232 4.076905,-1.4245 -0.755385,-0.42273 -9.041605,-3.66172 -10.455687,-4.08704 -0.826487,-0.24858 -2.640497,-0.68382 -4.030701,-0.96694 -1.390205,-0.28314 -2.573522,-0.56061 -2.629726,-0.6168 -0.179802,-0.1798 2.305211,-0.10981 4.122296,0.1163 3.69156,0.45937 6.761875,1.45555 11.474507,3.72312 2.537787,1.22109 2.646059,1.29842 2.318889,1.65994 -0.326078,0.3603 -0.274989,0.412 1.033009,1.03625 1.285922,0.61372 3.564527,1.25971 6.747557,1.91282 l 1.3487,0.27639 -1.86094,0.49399 c -5.470984,1.452 -9.276317,4.52732 -12.085635,9.76798 -0.946553,1.76571 -2.452457,5.35322 -2.307952,5.49773 0.05261,0.0527 0.299586,0.121 0.548717,0.15199 0.393251,0.0489 0.584793,-0.24804 1.454471,-2.25325 1.933182,-4.4573 4.093022,-7.25092 7.208342,-9.3238 1.551717,-1.03247 4.025207,-2.23903 4.212267,-2.05465 0.041,0.0405 -0.11769,0.34391 -0.35298,0.67433 -0.23529,0.33044 -0.67662,1.33936 -0.98072,2.24232 -1.01275,3.00696 -0.50468,5.6468 2.17339,11.2901 1.25426,2.64298 1.49362,3.01662 1.96876,3.0743 0.29748,0.0362 0.54102,-0.032 0.54102,-0.15198 0,-0.11986 -0.3781,-1.08313 -0.8401,-2.14058 -0.46202,-1.05746 -1.32571,-3.04341 -1.91931,-4.41286 l -1.07921,-2.4899 v -2.28242 c 0,-2.56985 0.30104,-3.51847 1.57808,-4.97294 0.98168,-1.1181 2.09183,-1.54636 4.59199,-1.7718 1.21398,-0.10946 19.544885,-0.19499 42.636075,-0.19897 l 78.17933,-0.008 c 18.54462,0 11.66652,0.0755 11.66652,0.16817 0,0.0927 -0.42313,1.22762 -0.94021,2.52236 -0.51708,1.29471 -0.91393,2.42495 -0.88184,2.51138 0.032,0.0865 1.59899,-0.49867 3.48199,-1.30007 1.883,-0.8014 5.29106,-2.22713 7.57347,-3.16832 2.28242,-0.94119 4.14986,-1.78413 4.14986,-1.8731 0,-0.18471 -14.87184,-6.57122 -15.00107,-6.442 -0.0465,0.0465 0.29871,1.06424 0.76675,2.26135 0.46805,1.19711 0.85105,2.27681 0.85105,2.39953 0,0.15825 12.27783,0.22331 -11.5652,0.22331 z"
         sodipodi:nodetypes="cccsssssssssssssssscssssssscsssssssssssccsssssssssssssscsssccssssssssscc" />
      <path
         id="rect370-9"
         style="fill:#7a2532;fill-opacity:1;stroke-width:0.264583;stroke-linejoin:round;paint-order:fill markers stroke;stop-color:#000000"
         d="m 61.480016,128.07848 c -0.890813,-0.0266 -2.555308,0.17105 -3.34502,0.44861 -2.48871,0.87471 -4.602303,3.14184 -5.130985,5.50424 -0.372271,1.66347 -0.179156,3.9752 0.433224,5.1881 2.037188,4.03491 6.485301,5.54145 10.501488,3.55657 1.835034,-0.90692 3.370251,-2.50414 4.0457,-4.20862 0.365426,-0.92216 0.474157,-1.61549 0.479418,-3.0597 0.0062,-1.70792 -0.05042,-1.97779 -0.664219,-3.15657 -0.908246,-1.74426 -2.822076,-3.58339 -3.731218,-3.58613 -0.232327,-6.2e-4 -0.884274,1.24116 -0.884274,1.68426 0,0.26112 0.924372,0.22459 1.551733,-0.0612 0.407597,-0.18572 0.591761,-0.18594 0.776887,-8e-4 0.281259,0.28125 -0.06637,0.61092 -1.382339,1.31061 -1.442273,0.7668 -3.490213,0.23423 -4.172558,-1.08529 -0.364613,-0.7051 -0.138693,-0.90457 0.820652,-0.7246 0.645432,0.12108 0.697271,0.0833 1.02166,-0.74243 0.187969,-0.47854 0.301336,-0.91081 0.251664,-0.96047 -0.06396,-0.0639 -0.274874,-0.0977 -0.571813,-0.10658 z m 16.591719,3.61694 c -0.23853,0.02 -0.36312,0.0652 -0.36312,0.13575 0,0.21113 0.78319,2.14243 0.92723,2.28647 0.0392,0.0391 0.59003,-0.27308 1.22429,-0.69422 0.87307,-0.57969 1.28097,-0.73382 1.67939,-0.63383 0.28944,0.0726 0.52643,0.21748 0.52643,0.32179 0,0.256 -1.5945,1.53209 -2.47045,1.97726 -1.01495,0.51576 -2.99106,0.50126 -3.69881,-0.0272 -0.78806,-0.58839 -0.80767,-0.88984 -0.0763,-1.16594 0.73487,-0.2774 0.75869,-0.3633 0.3319,-1.18862 -0.28843,-0.55777 -0.35739,-0.58532 -0.94831,-0.37934 -1.18399,0.41274 -2.57073,1.51412 -3.35108,2.66135 -2.032534,2.98805 -1.724969,6.89117 0.74932,9.50738 1.53315,1.62108 2.97803,2.35942 5.31377,2.71564 0.0571,0.008 0.70719,-0.0821 1.44514,-0.20182 2.62758,-0.4263 5.04823,-2.26859 6.19438,-4.71398 0.47405,-1.01141 0.55642,-1.4617 0.55642,-3.05363 0,-1.59192 -0.0824,-2.04262 -0.55642,-3.05403 -1.22518,-2.614 -3.61094,-4.27222 -6.43753,-4.47446 -0.45577,-0.0326 -0.80786,-0.0386 -1.04637,-0.0186 z"
         sodipodi:nodetypes="ssssssssssssssssssssssssssssssssssssssss" />
      <path
         style="fill:#ececec;stroke:none;stroke-width:0.264584;stroke-linecap:round;stroke-linejoin:round;stroke-dasharray:none;paint-order:markers stroke fill;stop-color:#000000"
         d="M 186.33895,138.49325 C 189.41848,89.667384 132.17571,59.350843 159.74673,-5.2054866 137.85519,53.305712 195.49075,89.252234 191.81255,138.49782 c -2.1551,28.85355 -9.54497,48.81226 -31.00503,79.37433 15.47369,-30.12499 23.75872,-51.2726 25.53143,-79.3789 z"
         id="path112412-03-2-6-2"
         sodipodi:nodetypes="acaca" />
      <g
         id="path2599"
         style="fill:#ececec">
        <path
           style="color:#000000;-inkscape-font-specification:'Guild of Professional Actors';fill:#ececec;stroke-width:0.529167;stroke-linejoin:round;-inkscape-stroke:none;paint-order:fill markers stroke"
           d="m 7.3509056,210.28208 q -1.7009296,0.74041 -5.7831631,1.53777 -4.025534,0.79736 -5.9532544,0.79736 -11.0560461,0 -11.0560461,-8.42921 0,-6.60669 6.0099535,-10.59348 5.2161849,-3.41726 12.1899989,-3.47421 l 4.5925112,-0.0569 z M 5.3097894,192.45543 q -0.5102788,-0.17086 -1.47414,-0.17086 -6.5202316,0 -11.2828361,2.6199 -5.8398593,3.24638 -5.8398593,9.28353 0,3.24638 3.118371,4.89805 2.4380002,1.30995 6.0099538,1.30995 6.1800451,0 9.3551148,-1.70863 -0.056697,0.85432 -0.056697,-6.26495 0,-1.70863 0.056697,-5.01198 0.1133958,-3.36029 0.1133958,-4.95501 z"
           id="path8887" />
        <path
           style="color:#000000;-inkscape-font-specification:'Guild of Professional Actors';fill:#ececec;stroke-linejoin:round;-inkscape-stroke:none;paint-order:fill markers stroke"
           d="m 7.3476562,189.79883 -4.5917968,0.0566 c -4.6918782,0.0383 -8.8099303,1.21016 -12.3320313,3.51758 a 0.26460996,0.26460996 0 0 0 -0.00195,0.002 c -4.062735,2.69507 -6.128906,6.32782 -6.128906,10.8125 0,2.86757 0.958836,5.07677 2.86914,6.5332 1.910305,1.45643 4.7341603,2.16016 8.4531254,2.16016 1.3216253,0 3.3123233,-0.26765 6.0039062,-0.80078 2.7298231,-0.5332 4.6647847,-1.04404 5.8378906,-1.55469 a 0.26460996,0.26460996 0 0 0 0.1582032,-0.24414 V 190.0625 a 0.26460996,0.26460996 0 0 0 -0.2675782,-0.26367 z m -0.2617187,0.5332 v 19.75 c -1.1090431,0.46526 -2.9311141,0.9634 -5.5683594,1.47852 a 0.26460996,0.26460996 0 0 0 -0.00195,0 c -2.6757904,0.53001 -4.6517247,0.79297 -5.9003906,0.79297 -3.651725,0 -6.3577714,-0.70139 -8.1328124,-2.05469 -1.775041,-1.35331 -2.660156,-3.35944 -2.660156,-6.11133 0,-4.32334 1.941733,-7.75066 5.8906246,-10.37109 l 0.00195,-0.002 c 3.432324,-2.24798 7.4393618,-3.39207 12.0449219,-3.42968 a 0.26460996,0.26460996 0 0 0 0.00195,0 z m -3.25,1.6875 c -4.38225419,0 -8.1904133,0.88117 -11.4101562,2.65234 a 0.26460996,0.26460996 0 0 0 -0.00195,0.002 c -3.9541121,2.19809 -5.9746091,5.4036 -5.9746091,9.51367 0,2.24897 1.115539,3.99814 3.257812,5.13281 v -0.002 c 1.6727899,0.8988 3.7211221,1.3418 6.1347659,1.3418 4.00891637,0 7.0484488,-0.5579 9.21875,-1.6543 0.017476,0.0108 0.037059,0.0234 0.037109,0.0234 1.315e-4,4e-5 0.1541648,0.006 0.1542969,0.006 1.321e-4,-4e-5 0.1072892,-0.0565 0.1074219,-0.0566 1.327e-4,-1.2e-4 0.044789,-0.0525 0.044922,-0.0527 1.332e-4,-2e-4 0.019397,-0.0329 0.019531,-0.0332 2.676e-4,-5.6e-4 0.012749,-0.0297 0.015625,-0.0391 0.00288,-0.009 0.0045,-0.0174 0.00586,-0.0234 0.00272,-0.0121 0.00467,-0.0194 0.00586,-0.0274 0.00475,-0.0318 0.0072,-0.059 0.00977,-0.0976 a 0.26460996,0.26460996 0 0 0 -0.023437,-0.082 c -2.944e-4,-0.007 -0.00166,-0.01 -0.00195,-0.0176 -0.00683,-0.183 -0.012862,-0.53938 -0.017578,-1.06055 -0.00943,-1.04234 -0.013672,-2.75031 -0.013672,-5.12305 0,-1.13482 0.018944,-2.80432 0.056641,-5.00195 v -0.006 c 0.075467,-2.23757 0.1132813,-3.89083 0.1132812,-4.95898 a 0.26460996,0.26460996 0 0 0 -0.1796875,-0.25 c -0.387747,-0.12983 -0.9003863,-0.18555 -1.5585937,-0.18555 z m 0,0.5293 c 0.5424006,0 0.9087809,0.0613 1.203125,0.13672 -0.00335,1.06035 -0.035392,2.58231 -0.1074219,4.71679 a 0.26460996,0.26460996 0 0 0 0,0.004 c -0.037811,2.20301 -0.056641,3.87361 -0.056641,5.01562 0,2.37344 0.00421,4.08294 0.013672,5.12891 0.00422,0.46604 0.00937,0.75277 0.015625,0.95899 -2.0526675,1.05871 -5.05532022,1.62109 -9.0625,1.62109 -2.3489563,0 -4.3068917,-0.42954 -5.8847659,-1.27734 a 0.26460996,0.26460996 0 0 0 -0.002,-0.002 c -2.01555,-1.06755 -2.978515,-2.58453 -2.978516,-4.66406 0,-3.93858 1.872488,-6.92047 5.7031255,-9.05078 l 0.00195,-0.002 c 3.1299396,-1.72124 6.84390629,-2.58594 11.1542969,-2.58594 z"
           id="path8889" />
      </g>
      <g
         id="path2601"
         style="fill:#ececec">
        <path
           style="color:#000000;-inkscape-font-specification:'Guild of Professional Actors';fill:#ececec;stroke-width:0.529167;stroke-linejoin:round;-inkscape-stroke:none;paint-order:fill markers stroke"
           d="m 30.37011,192.11371 q -1.700929,0 -2.437999,0.22782 -1.190652,0.39867 -2.381302,0.79736 -5.216186,1.59471 -5.216186,6.54972 v 12.24514 h -2.154511 v -12.24514 q 0,-3.64507 1.644232,-5.58151 1.474139,-1.76557 5.046092,-2.96161 2.608094,-0.85432 2.664791,-0.91126 0.793767,-0.17087 2.834883,-0.17087 z"
           id="path8893" />
        <path
           style="color:#000000;-inkscape-font-specification:'Guild of Professional Actors';fill:#ececec;stroke-linejoin:round;-inkscape-stroke:none;paint-order:fill markers stroke"
           d="m 30.369141,189.79883 c -1.368126,0 -2.313883,0.052 -2.888672,0.17578 a 0.26460996,0.26460996 0 0 0 -0.132813,0.0723 c 0.05792,-0.0582 0.05323,-0.0393 0.05273,-0.0391 -4.99e-4,2.5e-4 -0.0089,0.005 -0.02148,0.01 -0.02515,0.0105 -0.06706,0.0262 -0.123047,0.0469 -0.111981,0.0413 -0.278987,0.10021 -0.5,0.17578 -0.442025,0.15116 -1.099943,0.36971 -1.96875,0.6543 -2.408078,0.80633 -4.134713,1.80778 -5.166015,3.04297 -1.148062,1.3533 -1.705078,3.2833 -1.705078,5.75195 v 12.24414 a 0.26460996,0.26460996 0 0 0 0.263671,0.26563 h 2.154297 a 0.26460996,0.26460996 0 0 0 0.265625,-0.26563 v -12.24414 c 0,-1.60524 0.417242,-2.91042 1.246094,-3.95117 0.828852,-1.04075 2.081111,-1.82533 3.783203,-2.3457 a 0.26460996,0.26460996 0 0 0 0.0059,-0.002 c 0.791812,-0.26513 1.583186,-0.53174 2.375,-0.79687 0.436518,-0.13492 1.237236,-0.21484 2.359375,-0.21484 a 0.26460996,0.26460996 0 0 0 0.265625,-0.26563 v -2.05078 a 0.26460996,0.26460996 0 0 0 -0.265625,-0.26367 z m -0.263672,0.54492 v 1.53125 c -0.96572,0.0136 -1.762975,0.0617 -2.251953,0.21289 a 0.26460996,0.26460996 0 0 0 -0.0059,0.002 c -0.793768,0.26578 -1.587092,0.53304 -2.380859,0.79883 -1.772227,0.54283 -3.126373,1.37842 -4.035156,2.51953 -0.909875,1.14249 -1.361329,2.58316 -1.361329,4.28125 v 11.98047 h -1.625 v -11.98047 c 0,-2.39026 0.53694,-4.18163 1.580079,-5.41015 a 0.26460996,0.26460996 0 0 0 0.002,-0.002 c 0.933959,-1.11859 2.572294,-2.09258 4.925781,-2.88086 0.869921,-0.28495 1.526419,-0.50365 1.972656,-0.65625 0.223119,-0.0763 0.394138,-0.13558 0.513672,-0.17968 0.05977,-0.0221 0.105129,-0.0391 0.142578,-0.0547 0.0119,-0.005 0.02238,-0.0107 0.0332,-0.0156 0.440519,-0.0927 1.347167,-0.13626 2.490235,-0.14648 z"
           id="path8895" />
      </g>
      <g
         id="path2603"
         style="fill:#ececec">
        <path
           style="color:#000000;-inkscape-font-specification:'Guild of Professional Actors';fill:#ececec;stroke-width:0.529167;stroke-linejoin:round;-inkscape-stroke:none;paint-order:fill markers stroke"
           d="m 58.662252,193.02497 q -3.004976,0 -4.762604,0.0569 -13.15386,0.34173 -13.15386,11.10607 0,6.26495 10.885953,6.26495 5.046093,0 6.973814,-0.79736 v 1.76558 q -3.912139,1.13908 -5.329582,1.13908 -14.684697,0 -14.684697,-8.37225 0,-8.31532 6.406837,-11.27694 4.195628,-1.99339 13.607442,-2.05034 z"
           id="path8899" />
        <path
           style="color:#000000;-inkscape-font-specification:'Guild of Professional Actors';fill:#ececec;stroke-linejoin:round;-inkscape-stroke:none;paint-order:fill markers stroke"
           d="m 58.603516,190.5957 c -6.292977,0.0381 -10.853284,0.71476 -13.71875,2.07617 -4.355116,2.01433 -6.558594,5.90525 -6.558594,11.51563 0,2.86809 1.291308,5.0768 3.804687,6.50977 2.51338,1.43296 6.224496,2.12695 11.144532,2.12695 1.015835,0 2.787971,-0.38666 5.404296,-1.14844 a 0.26460996,0.26460996 0 0 0 0.191407,-0.25391 v -1.76562 a 0.26460996,0.26460996 0 0 0 -0.367188,-0.24609 c -1.209797,0.5004 -3.522924,0.77734 -6.873047,0.77734 -3.603269,0 -6.283019,-0.52318 -8.03125,-1.5293 -1.748231,-1.00612 -2.589843,-2.45901 -2.589843,-4.4707 0,-3.53422 1.067394,-6.16039 3.195312,-7.95703 2.127918,-1.79665 5.352606,-2.77179 9.701172,-2.88477 a 0.26460996,0.26460996 0 0 0 0.002,0 c 1.166877,-0.0378 2.752261,-0.0566 4.753906,-0.0566 a 0.26460996,0.26460996 0 0 0 0.263672,-0.27148 l -0.05664,-2.16406 a 0.26460996,0.26460996 0 0 0 -0.265625,-0.25782 z m -0.253907,0.54688 0.04102,1.62109 c -1.846326,0.002 -3.390324,0.0188 -4.5,0.0547 l 0.002,-0.002 c -4.420666,0.11484 -7.772599,1.10439 -10.029297,3.00976 -2.256697,1.90538 -3.382812,4.71933 -3.382812,8.36133 0,2.16494 0.975052,3.84554 2.855468,4.92773 1.880417,1.0822 4.640897,1.60157 8.294922,1.60157 3.156102,0 5.319752,-0.2462 6.710938,-0.73438 v 1.22656 c -2.449107,0.70291 -4.223841,1.08594 -5.066406,1.08594 -4.869753,0 -8.501298,-0.70081 -10.882813,-2.05859 -2.381515,-1.35779 -3.537109,-3.33543 -3.537109,-6.04883 0,-5.47559 2.068294,-9.10227 6.253906,-11.03711 a 0.26460996,0.26460996 0 0 0 0.002,0 c 2.68511,-1.27573 7.137002,-1.95006 13.238281,-2.00781 z"
           id="path8901" />
      </g>
      <g
         id="path2605"
         style="fill:#ececec">
        <path
           style="color:#000000;-inkscape-font-specification:'Guild of Professional Actors';fill:#ececec;stroke-width:0.529167;stroke-linejoin:round;-inkscape-stroke:none;paint-order:fill markers stroke"
           d="M 86.840952,212.84503 H 84.686438 V 204.188 q 0,-5.18284 -3.628641,-8.54313 -3.571955,-3.3603 -9.468523,-3.3603 h -4.819297 v -22.15518 h 2.154516 v 20.04787 q 0.793766,-0.0569 2.664781,-0.0569 6.633631,0 10.829257,3.64507 4.422421,3.81593 4.422421,10.42262 z"
           id="path8905" />
        <path
           style="color:#000000;-inkscape-font-specification:'Guild of Professional Actors';fill:#ececec;stroke-linejoin:round;-inkscape-stroke:none;paint-order:fill markers stroke"
           d="m 66.769531,169.86523 a 0.26460996,0.26460996 0 0 0 -0.263672,0.26368 v 22.15625 a 0.26460996,0.26460996 0 0 0 0.263672,0.26367 h 4.820313 c 3.880781,0 6.95873,1.09865 9.287109,3.28906 a 0.26460996,0.26460996 0 0 0 0.002,0.002 c 2.369335,2.19412 3.542969,4.95418 3.542969,8.34766 v 8.6582 a 0.26460996,0.26460996 0 0 0 0.263672,0.26367 h 2.15625 a 0.26460996,0.26460996 0 0 0 0.263672,-0.26367 v -8.6582 c 0,-4.46294 -1.508954,-8.02788 -4.513672,-10.62109 -2.849197,-2.47533 -6.531076,-3.71094 -11.001953,-3.71094 -1.118111,0 -1.848414,0.0217 -2.400391,0.0527 v -19.77929 a 0.26460996,0.26460996 0 0 0 -0.265625,-0.26368 z m 0.265625,0.5293 h 1.625 v 19.7832 a 0.26460996,0.26460996 0 0 0 0.283203,0.26368 c 0.514389,-0.0369 1.401825,-0.0566 2.646485,-0.0566 4.373955,0 7.909332,1.19531 10.654297,3.58007 a 0.26460996,0.26460996 0 0 0 0.002,0 c 2.891097,2.49462 4.330078,5.87724 4.330078,10.22266 v 8.39258 h -1.625 v -8.39258 c 0,-3.51644 -1.244778,-6.44826 -3.712891,-8.73438 -2.434223,-2.28998 -5.667136,-3.43359 -9.648437,-3.43359 h -4.554688 z"
           id="path8907" />
      </g>
      <g
         id="path2607"
         style="fill:#ececec">
        <path
           style="color:#000000;-inkscape-font-specification:'Guild of Professional Actors';fill:#ececec;stroke-width:0.529167;stroke-linejoin:round;-inkscape-stroke:none;paint-order:fill markers stroke"
           d="m 115.01965,197.92303 q 0,1.19604 -0.45357,4.44243 H 93.474543 l -0.113393,1.25299 q -0.113402,2.56293 1.133949,4.27156 1.247351,1.70862 2.551399,3.47421 l -1.814336,1.08213 q -1.41743,-1.9934 -2.834871,-4.04375 -1.190655,-1.82253 -1.190655,-4.78415 0,-6.03714 4.76261,-10.13784 4.535814,-3.92984 10.659154,-3.92984 8.39125,0 8.39125,8.37226 z m -2.15451,0 q 0,-6.20801 -5.55636,-6.20801 -4.59252,0 -8.107768,2.05036 -3.912143,2.27816 -5.272887,6.43582 h 18.766925 q 0.17009,-1.25299 0.17009,-2.27817 z"
           id="path8911" />
        <path
           style="color:#000000;-inkscape-font-specification:'Guild of Professional Actors';fill:#ececec;stroke-linejoin:round;-inkscape-stroke:none;paint-order:fill markers stroke"
           d="m 106.62891,189.28711 c -4.13883,0 -7.763628,1.33566 -10.832035,3.99414 -3.222984,2.77553 -4.855469,6.24403 -4.855469,10.33789 0,2.00987 0.404716,3.65778 1.234375,4.92773 a 0.26460996,0.26460996 0 0 0 0.0039,0.006 c 0.945612,1.36785 1.890296,2.71698 2.835938,4.04688 a 0.26460996,0.26460996 0 0 0 0.351562,0.0742 l 1.814454,-1.08203 a 0.26460996,0.26460996 0 0 0 0.07813,-0.38477 c -0.869084,-1.17668 -1.719515,-2.33399 -2.550782,-3.47266 -0.791154,-1.08372 -1.156362,-2.43734 -1.083984,-4.09765 9.3e-5,-0.002 -9.4e-5,-0.004 0,-0.006 l 0.0918,-1 h 20.849613 a 0.26460996,0.26460996 0 0 0 0.26172,-0.22852 c 0.30299,-2.16866 0.45703,-3.64771 0.45703,-4.47851 0,-2.83495 -0.71481,-5.00913 -2.17578,-6.4668 -1.46098,-1.45767 -3.6394,-2.16992 -6.48047,-2.16992 z m 0,0.52734 c 2.75308,0 4.76936,0.6845 6.10547,2.01758 1.3361,1.33308 2.02148,3.34524 2.02148,6.0918 0,0.72461 -0.15637,2.19525 -0.42773,4.17773 H 93.474609 a 0.26460996,0.26460996 0 0 0 -0.263672,0.24024 l -0.113281,1.25195 a 0.26460996,0.26460996 0 0 0 0,0.0137 c -0.07761,1.75401 0.312629,3.2464 1.183594,4.43945 0.775263,1.06196 1.57083,2.14337 2.378906,3.23829 l -1.353515,0.80664 c -0.89595,-1.26181 -1.79151,-2.53797 -2.6875,-3.83399 -0.75788,-1.16008 -1.148438,-2.69971 -1.148438,-4.63867 0,-3.95518 1.545456,-7.24559 4.671875,-9.9375 a 0.26460996,0.26460996 0 0 0 0,-0.002 c 2.979339,-2.58131 6.460712,-3.86524 10.486332,-3.86524 z m 0.67968,1.63672 c -3.10105,0 -5.85342,0.69377 -8.240231,2.08594 -2.65705,1.54728 -4.466544,3.7526 -5.392578,6.58203 a 0.26460996,0.26460996 0 0 0 0.251953,0.3457 h 18.767576 a 0.26460996,0.26460996 0 0 0 0.26172,-0.22851 c 0.11469,-0.84486 0.17188,-1.61442 0.17188,-2.3125 0,-2.1088 -0.47056,-3.734 -1.45508,-4.83399 -0.98452,-1.09998 -2.46385,-1.63867 -4.36524,-1.63867 z m 0,0.5293 c 1.80285,0 3.10311,0.49354 3.97071,1.46289 0.8676,0.96935 1.32031,2.4506 1.32031,4.48047 0,0.60064 -0.0581,1.28632 -0.14844,2.01367 H 94.367187 c 0.920553,-2.52648 2.530464,-4.52461 4.966797,-5.94336 2.300176,-1.34164 4.952306,-2.01367 7.974606,-2.01367 z"
           id="path8913" />
      </g>
      <g
         id="path2609"
         style="fill:#ececec">
        <path
           style="color:#000000;-inkscape-font-specification:'Guild of Professional Actors';fill:#ececec;stroke-width:0.529167;stroke-linejoin:round;-inkscape-stroke:none;paint-order:fill markers stroke"
           d="m 136.11115,192.11371 q -1.70092,0 -2.43799,0.22782 -1.19065,0.39867 -2.3813,0.79736 -5.21619,1.59471 -5.21619,6.54972 v 12.24514 h -2.15451 v -12.24514 q 0,-3.64507 1.64423,-5.58151 1.47414,-1.76557 5.04609,-2.96161 2.6081,-0.85432 2.66479,-0.91126 0.79377,-0.17087 2.83488,-0.17087 z"
           id="path8917" />
        <path
           style="color:#000000;-inkscape-font-specification:'Guild of Professional Actors';fill:#ececec;stroke-linejoin:round;-inkscape-stroke:none;paint-order:fill markers stroke"
           d="m 136.11133,189.79883 c -1.36812,0 -2.31584,0.052 -2.89063,0.17578 a 0.26460996,0.26460996 0 0 0 -0.13281,0.0723 c 0.0579,-0.0582 0.0552,-0.0393 0.0547,-0.0391 -5e-4,2.5e-4 -0.009,0.005 -0.0215,0.01 -0.0251,0.0105 -0.069,0.0262 -0.125,0.0469 -0.11198,0.0413 -0.27898,0.10021 -0.5,0.17578 -0.44202,0.15116 -1.09798,0.36971 -1.96679,0.6543 a 0.26460996,0.26460996 0 0 0 -0.002,0 c -2.40807,0.80633 -4.13471,1.80778 -5.16601,3.04297 -1.14806,1.3533 -1.70508,3.2833 -1.70508,5.75195 v 12.24414 a 0.26460996,0.26460996 0 0 0 0.26563,0.26563 h 2.15429 a 0.26460996,0.26460996 0 0 0 0.26367,-0.26563 v -12.24414 c 0,-1.60524 0.41724,-2.91042 1.2461,-3.95117 0.82885,-1.04075 2.08111,-1.82533 3.7832,-2.3457 a 0.26460996,0.26460996 0 0 0 0.006,-0.002 c 0.79181,-0.26513 1.58514,-0.53174 2.37695,-0.79687 0.43652,-0.13492 1.23725,-0.21484 2.35938,-0.21484 a 0.26460996,0.26460996 0 0 0 0.26367,-0.26563 v -2.05078 a 0.26460996,0.26460996 0 0 0 -0.26367,-0.26367 z m -0.26563,0.54492 v 1.53125 c -0.96445,0.0136 -1.76144,0.0619 -2.25,0.21289 a 0.26460996,0.26460996 0 0 0 -0.006,0.002 c -0.79123,0.26493 -1.58376,0.53193 -2.375,0.79688 -1.77536,0.54277 -3.13309,1.379 -4.04296,2.52148 -0.90988,1.14249 -1.36133,2.58316 -1.36133,4.28125 v 11.98047 h -1.625 v -11.98047 c 0,-2.39026 0.53889,-4.18163 1.58203,-5.41015 a 0.26460996,0.26460996 0 0 0 0,-0.002 c 0.93396,-1.11859 2.57229,-2.09258 4.92578,-2.88086 0.86992,-0.28495 1.52837,-0.50365 1.97461,-0.65625 0.22312,-0.0763 0.39218,-0.13558 0.51172,-0.17968 0.0598,-0.0221 0.10708,-0.0391 0.14453,-0.0547 0.0125,-0.005 0.0238,-0.0104 0.0352,-0.0156 0.44067,-0.0924 1.34633,-0.13622 2.48633,-0.14648 z"
           id="path8919" />
      </g>
      <g
         id="path2611"
         style="fill:#ececec">
        <path
           style="color:#000000;-inkscape-font-specification:'Guild of Professional Actors';fill:#ececec;stroke-width:0.529167;stroke-linejoin:round;-inkscape-stroke:none;paint-order:fill markers stroke"
           d="m 159.92418,192.11371 q -1.70093,0 -2.43801,0.22782 -1.19064,0.39867 -2.38129,0.79736 -5.2162,1.59471 -5.2162,6.54972 v 12.24514 h -2.15451 v -12.24514 q 0,-3.64507 1.64424,-5.58151 1.47414,-1.76557 5.04609,-2.96161 2.60809,-0.85432 2.6648,-0.91126 0.79376,-0.17087 2.83488,-0.17087 z"
           id="path8923" />
        <path
           style="color:#000000;-inkscape-font-specification:'Guild of Professional Actors';fill:#ececec;stroke-linejoin:round;-inkscape-stroke:none;paint-order:fill markers stroke"
           d="m 159.92383,189.79883 c -1.36813,0 -2.31584,0.052 -2.89063,0.17578 a 0.26460996,0.26460996 0 0 0 -0.13086,0.0723 c 0.0579,-0.0581 0.0532,-0.0393 0.0527,-0.0391 -5e-4,2.5e-4 -0.009,0.005 -0.0215,0.01 -0.0251,0.0105 -0.0671,0.0262 -0.12304,0.0469 -0.11199,0.0413 -0.28094,0.10021 -0.50196,0.17578 -0.44202,0.15116 -1.09799,0.36971 -1.96679,0.6543 a 0.26460996,0.26460996 0 0 0 -0.002,0 c -2.40807,0.80633 -4.13276,1.80778 -5.16406,3.04297 -1.14845,1.35333 -1.70703,3.2829 -1.70703,5.75195 v 12.24414 a 0.26460996,0.26460996 0 0 0 0.26562,0.26563 h 2.1543 a 0.26460996,0.26460996 0 0 0 0.26367,-0.26563 v -12.24414 c 0,-1.60524 0.4192,-2.91042 1.24805,-3.95117 0.82886,-1.04075 2.07915,-1.82533 3.78125,-2.3457 a 0.26460996,0.26460996 0 0 0 0.008,-0.002 c 0.79182,-0.26513 1.5832,-0.53174 2.375,-0.79687 0.43653,-0.13492 1.23724,-0.21484 2.35938,-0.21484 a 0.26460996,0.26460996 0 0 0 0.26562,-0.26563 v -2.05078 a 0.26460996,0.26460996 0 0 0 -0.26562,-0.26367 z m -0.26367,0.54492 v 1.53125 c -0.96572,0.0136 -1.76297,0.0617 -2.25196,0.21289 a 0.26460996,0.26460996 0 0 0 -0.006,0.002 c -0.79376,0.26578 -1.58709,0.53304 -2.38086,0.79883 -1.77223,0.54283 -3.12637,1.37842 -4.03515,2.51953 -0.90988,1.14249 -1.36133,2.58316 -1.36133,4.28125 v 11.98047 h -1.62695 v -11.98047 c 0,-2.39026 0.53888,-4.18163 1.58203,-5.41015 a 0.26460996,0.26460996 0 0 0 0.002,-0.002 c 0.93422,-1.1189 2.57126,-2.09246 4.92578,-2.88086 0.86992,-0.28495 1.52642,-0.50365 1.97266,-0.65625 0.22312,-0.0763 0.39218,-0.13558 0.51172,-0.17968 0.0598,-0.0221 0.10708,-0.0391 0.14453,-0.0547 0.0125,-0.005 0.0238,-0.0104 0.0352,-0.0156 0.44101,-0.0924 1.34686,-0.13629 2.48829,-0.14648 z"
           id="path8925" />
      </g>
      <g
         id="path2615"
         style="fill:#ececec">
        <path
           style="color:#000000;-inkscape-font-specification:'Guild of Professional Actors';fill:#ececec;stroke-width:0.529167;stroke-linejoin:round;-inkscape-stroke:none;paint-order:fill markers stroke"
           d="m 205.08614,197.92303 q 0,1.19604 -0.45358,4.44243 h -21.09153 l -0.1134,1.25299 q -0.1134,2.56293 1.13395,4.27156 1.24735,1.70862 2.5514,3.47421 l -1.81433,1.08213 q -1.41745,-1.9934 -2.83488,-4.04375 -1.19065,-1.82253 -1.19065,-4.78415 0,-6.03714 4.76261,-10.13784 4.53581,-3.92984 10.65916,-3.92984 8.39125,0 8.39125,8.37226 z m -2.15452,0 q 0,-6.20801 -5.55636,-6.20801 -4.59252,0 -8.10777,2.05036 -3.91214,2.27816 -5.27289,6.43582 h 18.76693 q 0.17009,-1.25299 0.17009,-2.27817 z"
           id="path8929" />
        <path
           style="color:#000000;-inkscape-font-specification:'Guild of Professional Actors';fill:#ececec;stroke-linejoin:round;-inkscape-stroke:none;paint-order:fill markers stroke"
           d="m 196.69531,189.28711 c -4.13883,0 -7.76362,1.33566 -10.83203,3.99414 -3.22298,2.77553 -4.85547,6.24403 -4.85547,10.33789 0,2.00987 0.40472,3.65778 1.23438,4.92773 a 0.26460996,0.26460996 0 0 0 0.004,0.006 c 0.94561,1.36785 1.89224,2.71698 2.83789,4.04688 a 0.26460996,0.26460996 0 0 0 0.34961,0.0742 l 1.81446,-1.08203 a 0.26460996,0.26460996 0 0 0 0.0781,-0.38477 c -0.86908,-1.17668 -1.71951,-2.33399 -2.55078,-3.47266 -0.79115,-1.08372 -1.15636,-2.43734 -1.08398,-4.09765 9e-5,-0.002 -1e-4,-0.004 0,-0.006 l 0.0918,-1 h 20.84961 a 0.26460996,0.26460996 0 0 0 0.26172,-0.22852 c 0.303,-2.16866 0.45703,-3.64771 0.45703,-4.47851 0,-2.83495 -0.71481,-5.00913 -2.17578,-6.4668 -1.46097,-1.45767 -3.63939,-2.16992 -6.48047,-2.16992 z m 0,0.52734 c 2.75309,0 4.76936,0.6845 6.10547,2.01758 1.33611,1.33308 2.02149,3.34524 2.02149,6.0918 0,0.72461 -0.15637,2.19526 -0.42774,4.17773 h -20.85351 a 0.26460996,0.26460996 0 0 0 -0.26368,0.24024 l -0.11328,1.25195 a 0.26460996,0.26460996 0 0 0 0,0.0137 c -0.0776,1.75401 0.31263,3.2464 1.1836,4.43945 0.77526,1.06196 1.57083,2.14337 2.3789,3.23829 l -1.35351,0.80859 c -0.89627,-1.26223 -1.79121,-2.53948 -2.6875,-3.83594 -0.75788,-1.16008 -1.14844,-2.69971 -1.14844,-4.63867 0,-3.95518 1.54546,-7.24559 4.67187,-9.9375 a 0.26460996,0.26460996 0 0 0 0,-0.002 c 2.97934,-2.58131 6.4607,-3.86524 10.48633,-3.86524 z m 0.67969,1.63672 c -3.10105,0 -5.85342,0.69377 -8.24023,2.08594 -2.65705,1.54728 -4.46654,3.7526 -5.39258,6.58203 a 0.26460996,0.26460996 0 0 0 0.25195,0.3457 h 18.76758 a 0.26460996,0.26460996 0 0 0 0.26172,-0.22851 c 0.11468,-0.84486 0.17187,-1.61442 0.17187,-2.3125 0,-2.1088 -0.47056,-3.734 -1.45508,-4.83399 -0.98451,-1.09998 -2.46384,-1.63867 -4.36523,-1.63867 z m 0,0.5293 c 1.80285,0 3.1031,0.49354 3.9707,1.46289 0.8676,0.96935 1.32227,2.4506 1.32227,4.48047 0,0.60064 -0.0601,1.28631 -0.15039,2.01367 h -18.08399 c 0.92056,-2.52648 2.53047,-4.52461 4.9668,-5.94336 2.30018,-1.34164 4.95231,-2.01367 7.97461,-2.01367 z"
           id="path8931" />
      </g>
      <g
         id="path2617"
         style="fill:#ececec">
        <path
           style="color:#000000;-inkscape-font-specification:'Guild of Professional Actors';fill:#ececec;stroke-width:0.529167;stroke-linejoin:round;-inkscape-stroke:none;paint-order:fill markers stroke"
           d="m 228.67233,190.23423 -0.0567,2.16425 h -4.98939 q -1.36075,0 -2.77819,1.08213 -1.53084,1.25299 -1.53084,2.90467 0,2.33511 2.26791,5.01196 2.2679,2.61989 2.2679,5.01197 0,2.56293 -1.98441,4.3285 -1.98443,1.70864 -4.25233,1.70864 h -6.80372 v -2.16427 h 6.80372 q 1.19065,0 2.60809,-1.13908 1.47414,-1.13908 1.47414,-2.73379 0,-2.22121 -2.26791,-4.78415 -2.26791,-2.56294 -2.26791,-5.23978 0,-2.73381 2.38131,-4.6133 1.98442,-1.53775 4.08224,-1.53775 z"
           id="path8935" />
        <path
           style="color:#000000;-inkscape-font-specification:'Guild of Professional Actors';fill:#ececec;stroke-linejoin:round;-inkscape-stroke:none;paint-order:fill markers stroke"
           d="m 223.62695,189.96875 c -1.46319,0 -2.88551,0.54093 -4.24414,1.59375 a 0.26460996,0.26460996 0 0 0 -0.002,0.002 c -1.63651,1.29165 -2.48242,2.92095 -2.48242,4.82032 0,1.85928 0.79175,3.67315 2.33398,5.41601 1.4868,1.68022 2.20117,3.21862 2.20117,4.60938 0,0.98161 -0.4356,1.80057 -1.37109,2.52343 a 0.26460996,0.26460996 0 0 0 -0.004,0.004 c -0.91676,0.73673 -1.73201,1.08008 -2.4414,1.08008 h -6.80469 a 0.26460996,0.26460996 0 0 0 -0.26367,0.26367 v 2.16602 a 0.26460996,0.26460996 0 0 0 0.26367,0.26367 h 6.80469 c 1.57838,0 3.06311,-0.60183 4.42383,-1.77344 a 0.26460996,0.26460996 0 0 0 0.004,-0.002 c 1.37044,-1.21931 2.07227,-2.74849 2.07227,-4.52539 0,-1.67762 -0.79337,-3.40768 -2.33008,-5.1836 l -0.002,-0.002 c -1.48606,-1.7547 -2.20313,-3.36942 -2.20313,-4.83984 0,-1.0177 0.45655,-1.89713 1.42969,-2.69532 0.91095,-0.69443 1.7795,-1.02734 2.61523,-1.02734 h 4.98828 a 0.26460996,0.26460996 0 0 0 0.26563,-0.25586 l 0.0566,-2.16602 a 0.26460996,0.26460996 0 0 0 -0.26563,-0.27148 z m 0,0.5293 h 4.77344 l -0.043,1.63672 h -4.73047 c -0.9773,0 -1.96203,0.38856 -2.93945,1.13476 a 0.26460996,0.26460996 0 0 0 -0.008,0.006 c -1.06466,0.87142 -1.62696,1.92651 -1.62696,3.10938 0,1.64239 0.79362,3.37007 2.33008,5.18359 a 0.26460996,0.26460996 0 0 0 0.002,0.002 c 1.48585,1.71647 2.20312,3.32874 2.20312,4.83985 0,1.63883 -0.61949,2.9928 -1.89258,4.12695 -1.28518,1.10657 -2.63264,1.64453 -4.07812,1.64453 h -6.54102 v -1.63477 h 6.54102 c 0.877,10e-6 1.79776,-0.41522 2.76953,-1.19531 1.03003,-0.79591 1.57617,-1.79674 1.57617,-2.9414 0,-1.57086 -0.79691,-3.22391 -2.33398,-4.96094 -1.48165,-1.67439 -2.20118,-3.35462 -2.20118,-5.06445 0,-1.74572 0.74073,-3.18996 2.2793,-4.4043 1.28726,-0.99752 2.58603,-1.48242 3.91992,-1.48242 z"
           id="path8937" />
      </g>
    </g>
  </g>
</svg>
