<?xml version="1.0" encoding="UTF-8" standalone="no"?>
<!-- Created with Inkscape (http://www.inkscape.org/) -->

<svg
   width="700"
   height="850"
   viewBox="0 0 185.20833 224.89583"
   version="1.1"
   id="svg5"
   sodipodi:docname="logo.svg"
   inkscape:version="1.2.2 (732a01da63, 2022-12-09)"
   xmlns:inkscape="http://www.inkscape.org/namespaces/inkscape"
   xmlns:sodipodi="http://sodipodi.sourceforge.net/DTD/sodipodi-0.dtd"
   xmlns="http://www.w3.org/2000/svg"
   xmlns:svg="http://www.w3.org/2000/svg">
  <sodipodi:namedview
     id="namedview6285"
     pagecolor="#505050"
     bordercolor="#ffffff"
     borderopacity="1"
     inkscape:showpageshadow="0"
     inkscape:pageopacity="0"
     inkscape:pagecheckerboard="1"
     inkscape:deskcolor="#505050"
     showgrid="false"
     inkscape:zoom="0.38301617"
     inkscape:cx="150.12421"
     inkscape:cy="220.61732"
     inkscape:window-width="1920"
     inkscape:window-height="1080"
     inkscape:window-x="2846"
     inkscape:window-y="196"
     inkscape:window-maximized="0"
     inkscape:current-layer="svg5" />
  <defs
     id="defs2" />
  <g
     id="g7165"
     transform="translate(275.9132,120.89692)">
    <path
       id="path112772-9"
       style="fill:#000000;stroke:none;stroke-width:0.264583;stroke-linecap:round;stroke-linejoin:round;stroke-dasharray:none;paint-order:markers stroke fill;stop-color:#000000"
       d="m -199.83902,10.081529 c -10.3824,21.78279 -7.19818,33.07736 -0.3946,39.42437 -0.87496,4.06484 -0.96583,10.41641 -0.95774,13.2867 0.0806,-2.15413 0.60246,-6.4269 3.13629,-11.49865 4.70003,3.41098 10.44059,5.0728 14.71469,6.37945 -18.94427,-10.17845 -26.78848,-24.63411 -16.49864,-47.59187 z m -1.35234,52.71107 c -0.036,0.96046 0.0159,1.50115 0.0159,1.50115 0,0 -0.0126,-0.57021 -0.0159,-1.50115 z" />
    <path
       id="rect370"
       style="fill:#000000;stroke-width:0.264583;stroke-linejoin:round;paint-order:fill markers stroke;stop-color:#000000"
       d="m -185.99161,-1.4200938 -32.17634,-0.0572 -2.24109,-0.47618 c -3.03404,-0.64445 -5.58613,-1.50301 -7.86973,-2.64796 -2.10934,-1.05761 -4.79972,-2.84034 -5.24405,-3.4747 -0.15779,-0.22528 -0.67902,-1.47846 -1.15823,-2.7849302 -2.47025,-6.73478 -7.11292,-10.32781 -14.55528,-11.26458 -2.05597,-0.25879 -5.82384,-0.21089 -6.11252,0.0778 -0.20953,0.20951 2.3122,5.17449 3.70366,7.29182 2.24051,3.40932 5.29096,5.8648702 8.80629,7.0887902 1.43463,0.49949 2.02092,0.58061 4.69977,0.65044 1.68329,0.0439 3.05979,0.002 3.0589,-0.0948 -7.8e-4,-0.0961 -0.35101,-0.37976 -0.77809,-0.63017 -0.42707,-0.25042 -2.03699,-1.59233 -3.57762,-2.9823102 -3.11134,-2.80707 -6.89135,-5.88317 -8.87032,-7.21847 -0.71326,-0.48127 -1.29683,-0.92658 -1.29683,-0.98924 0,-0.14686 3.70138,1.84038 5.18731,2.78494 3.366,2.13962 10.18418,8.3396802 9.74852,8.8646302 -0.41807,0.50375 3.10722,3.21062 6.53966,5.02157 l 1.65994,0.87576 -6.74352,0.006 c -5.00757,0.003 -7.23478,-0.0741 -8.65186,-0.30392 -2.05728,-0.33369 -5.69028,-1.53449 -6.29286,-2.0798 -0.20389,-0.18453 -0.79924,-1.0731 -1.32318,-1.97483 -2.96966,-5.1109702 -8.8276,-8.0759602 -14.74414,-7.4624402 -1.03977,0.10781 -2.68098,0.42597 -3.64692,0.70677 -1.69912,0.49394 -5.82023,2.07668 -6.95384,2.6706602 l -0.5548,0.29057 2.87613,2.27795 c 6.39006,5.0611 8.56855,6.04662 13.76989,6.23005 2.50074,0.0883 3.01254,0.0442 4.77232,-0.41254 3.83855,-0.99642 4.45605,-1.21232 4.07691,-1.4245 -0.75539,-0.42273 -9.04161,-3.66172 -10.45569,-4.08704 -0.82648,-0.24858 -2.64049,-0.68382 -4.0307,-0.96694 -1.3902,-0.28314 -2.57352,-0.56061 -2.62972,-0.6168 -0.17981,-0.1798 2.30521,-0.10981 4.12229,0.1163 3.69156,0.45937 6.76188,1.45555 11.47451,3.72312 2.53779,1.22109 2.64606,1.29842 2.31889,1.65994 -0.32608,0.3603 -0.27499,0.412 1.03301,1.03625 1.28592,0.61372 3.56452,1.25971004 6.74756,1.91282004 l 1.3487,0.27639 -1.86094,0.49399 c -5.47099,1.45199996 -9.27632,4.52731996 -12.08564,9.76798276 -0.94655,1.76571 -2.45246,5.35322 -2.30795,5.49773 0.0526,0.0527 0.29958,0.121 0.54871,0.15199 0.39325,0.0489 0.5848,-0.24804 1.45447,-2.25325 1.93319,-4.4572998 4.09303,-7.2509198 7.20835,-9.3238028 1.55171,-1.03247 4.02521,-2.23903 4.21227,-2.05465 0.041,0.0405 -0.11769,0.34391 -0.35298,0.67433 -0.23529,0.33044 -0.67662,1.33936 -0.98073,2.24232 -1.01275,3.006963 -0.50468,5.6468028 2.1734,11.2901028 1.25426,2.64298 1.49362,3.01662 1.96876,3.0743 0.29748,0.0362 0.54102,-0.032 0.54102,-0.15198 0,-0.11986 -0.3781,-1.08313 -0.8401,-2.14058 -0.46202,-1.05746 -1.32571,-3.04341 -1.91931,-4.41286 l -1.07921,-2.4899 V 8.2764292 c 0,-2.569853 0.30104,-3.518473 1.57808,-4.972943 0.98168,-1.1181 2.09183,-1.54636 4.59199,-1.7718 1.21398,-0.10946 19.54489,-0.19499 42.63608,-0.19897 l 78.17933,-0.008 c 18.544616,0 11.66652,0.0755 11.66652,0.16817 0,0.0927 -0.42313,1.22762 -0.94021,2.52236 -0.51708,1.29471 -0.91393,2.42495 -0.88184,2.51138 0.032,0.0865 1.59899,-0.49867 3.48199,-1.30007 1.883,-0.8014 5.291056,-2.22713 7.573466,-3.16832 2.28242,-0.94119 4.14986,-1.78412996 4.14986,-1.87309996 0,-0.18470999701 -14.871836,-6.57122004 -15.001066,-6.44200004 -0.0465,0.0465 0.29871,1.06424 0.76675,2.26135 0.46805,1.19711 0.85105,2.27681 0.85105,2.39953 0,0.15825 12.277826,0.22331 -11.5652,0.22331 z"
       sodipodi:nodetypes="cccsssssssssssssssscssssssscsssssssssssccsssssssssssssscsssccssssssssscc" />
    <path
       style="fill:#000000;stroke:none;stroke-width:0.264584;stroke-linecap:round;stroke-linejoin:round;stroke-dasharray:none;paint-order:markers stroke fill;stop-color:#000000"
       d="m -131.42808,23.710909 c 3.07953,-48.825873 -54.16325,-79.142414 -26.59222,-143.698739 -21.89154,58.511194 35.74402,94.457716 32.06582,143.703309 -2.1551,28.85355 -9.54497,48.81226 -31.00503,79.374331 15.47369,-30.124991 23.75872,-51.272601 25.53143,-79.378901 z"
       id="path112412-03-2-6-2"
       sodipodi:nodetypes="acaca" />
  </g>
</svg>
