<?xml version="1.0" encoding="UTF-8" standalone="no"?>
<!-- Created with Inkscape (http://www.inkscape.org/) -->

<svg
   width="700"
   height="850"
   viewBox="0 0 185.20833 224.89583"
   version="1.1"
   id="svg5"
   sodipodi:docname="logo_light.svg"
   inkscape:version="1.2.2 (732a01da63, 2022-12-09)"
   xmlns:inkscape="http://www.inkscape.org/namespaces/inkscape"
   xmlns:sodipodi="http://sodipodi.sourceforge.net/DTD/sodipodi-0.dtd"
   xmlns="http://www.w3.org/2000/svg"
   xmlns:svg="http://www.w3.org/2000/svg">
  <sodipodi:namedview
     id="namedview6285"
     pagecolor="#505050"
     bordercolor="#ffffff"
     borderopacity="1"
     inkscape:showpageshadow="0"
     inkscape:pageopacity="0"
     inkscape:pagecheckerboard="1"
     inkscape:deskcolor="#505050"
     showgrid="false"
     inkscape:zoom="0.76603235"
     inkscape:cx="759.10633"
     inkscape:cy="417.73693"
     inkscape:window-width="3440"
     inkscape:window-height="1369"
     inkscape:window-x="2552"
     inkscape:window-y="-8"
     inkscape:window-maximized="1"
     inkscape:current-layer="svg5" />
  <defs
     id="defs2" />
  <path
     id="path112772-9"
     style="fill:#666666;stroke:none;stroke-width:0.264583;stroke-linecap:round;stroke-linejoin:round;stroke-dasharray:none;paint-order:markers stroke fill;stop-color:#000000"
     d="m 76.074186,130.97845 c -10.3824,21.78279 -7.19819,33.07737 -0.3946,39.42437 -0.87496,4.06484 -0.96584,10.41642 -0.95774,13.2867 0.0806,-2.15413 0.60246,-6.4269 3.13629,-11.49865 4.70003,3.41098 10.44059,5.07281 14.71468,6.37945 -18.94426,-10.17845 -26.78847,-24.63411 -16.49863,-47.59187 z m -1.35234,52.71107 c -0.036,0.96046 0.0159,1.50115 0.0159,1.50115 0,0 -0.0126,-0.57021 -0.0159,-1.50115 z" />
  <path
     id="rect370"
     style="fill:#666666;stroke-width:0.264583;stroke-linejoin:round;paint-order:fill markers stroke;stop-color:#000000"
     d="m 89.921596,119.47683 -32.17634,-0.0572 -2.2411,-0.47618 c -3.03404,-0.64445 -5.58612,-1.50301 -7.86973,-2.64796 -2.10934,-1.05761 -4.79972,-2.84033 -5.24405,-3.4747 -0.15779,-0.22528 -0.67901,-1.47845 -1.15823,-2.78493 -2.47025,-6.73477 -7.11291,-10.327799 -14.55527,-11.264569 -2.05597,-0.25879 -5.82384,-0.21089 -6.11252,0.0778 -0.20953,0.20951 2.31221,5.174489 3.70366,7.291809 2.24052,3.40932 5.29096,5.86487 8.80628,7.08879 1.43463,0.49949 2.02093,0.58061 4.69977,0.65044 1.68329,0.0439 3.05979,0.002 3.0589,-0.0948 -7.8e-4,-0.0961 -0.35101,-0.37976 -0.77808,-0.63017 -0.42708,-0.25042 -2.037,-1.59233 -3.57763,-2.98231 -3.11134,-2.80707 -6.89134,-5.88316 -8.87031,-7.21846 -0.71326,-0.48127 -1.29683,-0.92658 -1.29683,-0.98924 0,-0.14686 3.70138,1.84038 5.18732,2.78494 3.36599,2.13961 10.18416,8.33967 9.74851,8.86462 -0.41808,0.50375 3.10721,3.21062 6.53965,5.02157 l 1.65994,0.87576 -6.74352,0.006 c -5.00757,0.003 -7.23478,-0.0741 -8.65186,-0.30392 -2.05727,-0.33369 -5.69027,-1.53449 -6.29285,-2.0798 -0.20389,-0.18453 -0.79923,-1.0731 -1.32318,-1.97483 -2.96966,-5.11097 -8.8276,-8.07596 -14.74413,-7.46244 -1.03977,0.10781 -2.6809904,0.42597 -3.6469204,0.70677 -1.69913,0.49394 -5.82024,2.07668 -6.95385,2.67066 l -0.5548,0.29057 2.87613,2.27795 c 6.39006,5.0611 8.5685504,6.04663 13.7698904,6.23005 2.50074,0.0883 3.01254,0.0442 4.77233,-0.41254 3.83854,-0.99642 4.45604,-1.21232 4.0769,-1.4245 -0.75538,-0.42273 -9.0416,-3.66172 -10.45569,-4.08704 -0.82648,-0.24858 -2.64049,-0.68382 -4.0307,-0.96694 -1.3902,-0.28314 -2.5735204,-0.56061 -2.6297204,-0.61679 -0.17981,-0.1798 2.3052104,-0.10982 4.1222904,0.11629 3.69156,0.45938 6.76188,1.45555 11.47451,3.72312 2.53779,1.22109 2.64606,1.29842 2.31889,1.65994 -0.32608,0.3603 -0.27499,0.41201 1.03301,1.03625 1.28592,0.61372 3.56452,1.25971 6.74756,1.91282 l 1.3487,0.27639 -1.86095,0.49399 c -5.47098,1.452 -9.27631,4.52733 -12.08563,9.76798 -0.94655,1.76571 -2.45246,5.35322 -2.30795,5.49773 0.0526,0.0527 0.29958,0.121 0.54871,0.15199 0.39326,0.0489 0.5848,-0.24804 1.45448,-2.25325 1.93318,-4.4573 4.09302,-7.25092 7.20834,-9.3238 1.55171,-1.03247 4.0252,-2.23903 4.21226,-2.05465 0.041,0.0405 -0.11769,0.34391 -0.35298,0.67433 -0.23529,0.33044 -0.67662,1.33936 -0.98072,2.24232 -1.01275,3.00696 -0.50468,5.6468 2.17339,11.2901 1.25426,2.64298 1.49362,3.01662 1.96876,3.0743 0.29748,0.0362 0.54102,-0.032 0.54102,-0.15198 0,-0.11986 -0.3781,-1.08313 -0.8401,-2.14058 -0.46202,-1.05746 -1.32571,-3.04341 -1.91931,-4.41286 l -1.0792,-2.4899 v -2.28242 c 0,-2.56985 0.30103,-3.51847 1.57808,-4.97294 0.98167,-1.1181 2.09182,-1.54636 4.59198,-1.7718 1.21399,-0.10946 19.54489,-0.19499 42.63608,-0.19897 l 78.179324,-0.008 c 18.54462,0 11.66652,0.0755 11.66652,0.16817 0,0.0927 -0.42313,1.22762 -0.94021,2.52236 -0.51708,1.29471 -0.91393,2.42495 -0.88184,2.51138 0.032,0.0865 1.59899,-0.49867 3.48199,-1.30007 1.883,-0.8014 5.29106,-2.22713 7.57347,-3.16832 2.28242,-0.94119 4.14986,-1.78413 4.14986,-1.8731 0,-0.18471 -14.87184,-6.57122 -15.00107,-6.44199 -0.0465,0.0465 0.29871,1.06423 0.76675,2.26135 0.46805,1.1971 0.85105,2.2768 0.85105,2.39952 0,0.15825 12.27783,0.22332 -11.5652,0.22332 z"
     sodipodi:nodetypes="cccsssssssssssssssscssssssscsssssssssssccsssssssssssssscsssccssssssssscc" />
  <path
     id="rect370-9"
     style="fill:#7a2532;fill-opacity:1;stroke-width:0.264583;stroke-linejoin:round;paint-order:fill markers stroke;stop-color:#000000"
     d="m 19.626186,134.19307 c -0.89082,-0.0266 -2.55531,0.17104 -3.34502,0.4486 -2.48871,0.87471 -4.60231,3.14184 -5.13099,5.50425 -0.37227,1.66346 -0.17916,3.97519 0.43322,5.18809 2.03719,4.03492 6.48531,5.54145 10.50149,3.55658 1.83504,-0.90693 3.37025,-2.50414 4.0457,-4.20862 0.36543,-0.92217 0.47416,-1.6155 0.47942,-3.05971 0.006,-1.70792 -0.0504,-1.97778 -0.66422,-3.15656 -0.90824,-1.74426 -2.82207,-3.5834 -3.73122,-3.58613 -0.23232,-6.2e-4 -0.88427,1.24116 -0.88427,1.68426 0,0.26112 0.92437,0.22459 1.55173,-0.0612 0.4076,-0.18572 0.59176,-0.18593 0.77689,-7.9e-4 0.28126,0.28125 -0.0664,0.61091 -1.38234,1.31061 -1.44227,0.7668 -3.49021,0.23422 -4.17256,-1.08529 -0.36461,-0.7051 -0.13869,-0.90458 0.82065,-0.7246 0.64544,0.12108 0.69728,0.0833 1.02166,-0.74243 0.18797,-0.47855 0.30134,-0.91082 0.25167,-0.96047 -0.064,-0.0639 -0.27487,-0.0977 -0.57181,-0.10658 z m 16.59171,3.61694 c -0.23852,0.02 -0.36312,0.0652 -0.36312,0.13574 0,0.21114 0.78319,2.14243 0.92724,2.28647 0.0392,0.0391 0.59002,-0.27307 1.22429,-0.69421 0.87306,-0.5797 1.28097,-0.73383 1.67939,-0.63383 0.28944,0.0726 0.52643,0.21747 0.52643,0.32178 0,0.25601 -1.59451,1.5321 -2.47046,1.97726 -1.01495,0.51576 -2.99106,0.50126 -3.6988,-0.0272 -0.78806,-0.5884 -0.80768,-0.88984 -0.0763,-1.16594 0.73487,-0.2774 0.75869,-0.36331 0.3319,-1.18862 -0.28842,-0.55777 -0.35739,-0.58532 -0.94831,-0.37935 -1.18399,0.41275 -2.57073,1.51412 -3.35108,2.66136 -2.03253,2.98805 -1.72496,6.89117 0.74932,9.50738 1.53316,1.62108 2.97803,2.35942 5.31378,2.71564 0.0571,0.008 0.70719,-0.0821 1.44513,-0.20182 2.62758,-0.4263 5.04823,-2.26859 6.19439,-4.71398 0.47405,-1.01141 0.55642,-1.4617 0.55642,-3.05363 0,-1.59192 -0.0824,-2.04262 -0.55642,-3.05403 -1.22519,-2.614 -3.61095,-4.27222 -6.43754,-4.47446 -0.45576,-0.0326 -0.80786,-0.0386 -1.04636,-0.0186 z"
     sodipodi:nodetypes="ssssssssssssssssssssssssssssssssssssssss" />
  <path
     style="fill:#666666;stroke:none;stroke-width:0.264584;stroke-linecap:round;stroke-linejoin:round;stroke-dasharray:none;paint-order:markers stroke fill;stop-color:#000000"
     d="M 144.48511,144.60783 C 147.56464,95.781971 90.321876,65.465431 117.89289,0.90909882 96.001356,59.420301 153.63691,95.366821 149.95871,144.6124 c -2.1551,28.85355 -9.54497,48.81226 -31.00503,79.37433 15.47369,-30.12499 23.75872,-51.2726 25.53143,-79.3789 z"
     id="path112412-03-2-6-2"
     sodipodi:nodetypes="acaca" />
</svg>
