<?xml version="1.0" encoding="UTF-8" standalone="no"?>
<!-- Created with Inkscape (http://www.inkscape.org/) -->

<svg
   width="615"
   height="185"
   viewBox="0 0 162.71875 48.947916"
   version="1.1"
   id="svg5"
   xmlns="http://www.w3.org/2000/svg"
   xmlns:svg="http://www.w3.org/2000/svg">
  <defs
     id="defs2" />
  <g
     id="layer1">
    <path
       id="path117074"
       style="fill:#000000;stroke:none;stroke-width:1"
       d="m 65.255052,3.0198933 c -1.368771,0.0307 -2.548216,0.58731 -3.733809,1.09291 -2.912148,1.24196 -5.647936,2.89397 -8.126523,4.71443 -6.187573,4.5446297 -11.662226,9.6321297 -17.13159,14.7993397 -1.808039,1.70829 -3.46234,3.5363 -5.271258,5.24534 -0.579618,0.54776 -1.030972,1.22478 -1.757086,1.6549 -0.604877,0.35837 -1.491766,0.21844 -2.196358,0.21844 -1.585109,0 -3.255443,-0.13076 -4.831987,0 -4.950585,0.41045 -9.482339,1.32594 -14.0566883,3.0599 -2.760073,1.04626 -5.862911,3.00389 -7.21151704,5.3701 -0.886274,1.55505 -0.600904,3.55746 1.06171604,4.62114 1.722732,1.10189 3.892386,0.99887 5.930165,0.99887 7.1827403,0 13.6073193,-4.48739 18.4494043,-8.61735 1.199649,-1.02321 2.375581,-2.10899 3.514172,-3.18466 0.429167,-0.40558 0.755987,-0.9897 1.317815,-1.27987 0.667252,-0.34487 2.475954,-0.0314 3.294536,-0.0314 h 9.005067 c -0.853504,1.62738 -0.89853,3.49453 -1.09818,5.24536 -0.520755,4.56848 1.169567,10.99984 7.467616,11.98932 v -0.18733 c -0.86185,-0.50299 -1.696679,-0.96439 -2.343067,-1.686 -2.650122,-2.95912 -2.00001,-7.07165 -1.610377,-10.49067 0.130244,-1.14218 0.367236,-2.25307 0.695371,-3.372 0.113112,-0.38628 0.14079,-0.97601 0.475734,-1.27987 0.394465,-0.358 1.166479,-0.19521 1.684161,-0.28101 1.966836,-0.32633 4.582921,-0.31527 6.589073,-0.12513 0.621128,0.0588 2.109162,0.43855 2.086539,1.124 -0.0156,0.47508 -0.768063,1.11502 -1.061715,1.49867 -0.738196,0.96458 -1.625968,2.18975 -1.683732,3.37201 -0.04173,0.85574 -0.01516,1.66875 1.098179,1.99846 3.347245,0.99118 5.978488,-2.78902 7.906887,-4.4338 0,0.94659 -0.235888,2.14141 0.329454,2.99734 0.866902,1.31245 2.647492,1.686 4.282902,1.686 2.839012,0 5.18165,-0.71918 7.247983,-2.43534 l -0.658907,2.06067 c 0.784762,0.1937 1.906884,0.39414 2.635629,-0.0622 0.697126,-0.43686 0.997595,-1.38907 1.464095,-1.99847 1.12277,-1.46719 2.29146,-2.76691 3.80716,-3.934 0.64267,-0.49494 2.21372,-2.3973 3.29454,-1.967 0.93127,0.37074 -0.17943,2.14254 -0.36634,2.71634 -0.6543,2.00952 -1.02372,4.60745 1.90379,5.37046 1.15968,0.30217 3.28268,0.1939 4.39272,-0.18733 0.468043,-0.16091 1.044593,-0.66371 1.537453,-0.68713 0.40698,-0.0193 0.77026,0.34431 1.09818,0.4998 0.50911,0.2411 1.17506,0.38853 1.75709,0.43686 2.78409,0.2308 5.133111,-0.88216 7.247981,-2.3102 1.95036,-1.31695 3.82077,-2.85589 5.49089,-4.4338 0.47331,-0.44716 1.1085,-1.58203 1.97672,-1.4361 1.48298,0.24953 0.27696,1.47469 -0.18317,1.9981 -1.11092,1.26338 -2.45246,2.67063 -2.45246,4.30867 0,0.70737 -0.0666,1.51908 0.87854,1.81113 1.32111,0.4082 3.10457,-0.0725 4.17309,-0.71822 2.27915,-1.3769 4.17659,-3.34391 6.1498,-5.02691 0.71733,-0.61183 1.78893,-2.20267 2.85526,-2.34167 0.4955,-0.0646 1.09269,0.32859 1.53745,0.46834 -1.18668,2.02432 -4.05821,4.06588 -3.73381,6.55666 0.15617,1.19819 1.41533,1.5131 2.63563,1.49867 2.65078,-0.0315 4.41777,-1.70735 6.1498,-3.18467 -0.053,0.57081 -0.31604,1.10827 -0.14671,1.686 0.85044,2.90143 6.12586,1.45427 8.0536,0.31247 0.55678,-0.32989 0.95762,-0.77555 1.53745,-1.0618 0.16737,1.8074 2.82496,2.41979 4.61236,2.12323 2.98791,-0.49549 5.19855,-1.68731 7.46761,-3.43456 1.09752,-0.84506 2.0224,-1.99454 3.29453,-2.62267 0.46519,1.88476 3.74326,2.31901 4.09973,4.30867 0.47398,2.64683 -4.80454,3.22775 -6.73535,2.40424 -0.92028,-0.39247 -1.17308,-1.07811 -1.75709,-1.65491 -0.69186,1.40163 1.0033,2.21353 2.41599,2.4979 2.48013,0.49962 5.6956,0.18845 7.68726,-1.24877 0.38546,-0.27819 0.70042,-0.67421 0.915,-1.0618 1.36943,-2.47335 -1.56382,-3.8008 -3.331,-5.24533 -0.65583,-0.53596 -1.49725,-1.20605 -1.42763,-2.06067 0.13618,-1.67213 2.79443,-2.75193 4.50253,-2.18543 0.71206,0.23622 1.11531,0.74204 1.53745,1.24877 0.9418,-0.76844 -0.0479,-1.72441 -1.09818,-1.9981 -1.28091,-0.33383 -3.43379,-0.15906 -4.61235,0.34356 -1.05931,0.45166 -2.20404,1.21562 -2.5627,2.21654 -0.24336,0.67964 0.17176,1.44508 -0.32945,2.06066 -0.61762,0.7587 -1.59084,1.26638 -2.37911,1.87334 -1.24752,0.96047 -2.53086,1.84748 -3.95344,2.62266 -1.24225,0.67684 -4.04876,1.93797 -5.23479,0.56201 -0.40787,-0.47301 -0.37844,-1.24653 0.18317,-1.62344 0.57853,-0.38816 1.53942,-0.56275 2.19636,-0.843 1.56797,-0.66858 3.24336,-1.60095 4.35582,-2.77889 0.7573,-0.8018 1.49373,-2.39262 0.25653,-3.1221 -0.88426,-0.52116 -2.3455,-0.24486 -3.29454,-0.0311 -2.86844,0.64554 -5.11135,2.56572 -6.33297,4.8392 -0.61344,1.1416 -0.46255,2.06854 -1.79355,2.87257 -1.12058,0.67703 -4.5625,2.59457 -5.60072,0.87411 -0.62904,-1.04214 1.1318,-3.09344 1.7202,-3.93401 0.92489,-1.3207 2.63166,-2.8085 3.00197,-4.30867 -0.8166,-0.21994 -1.80035,-0.61914 -2.63563,-0.21844 -1.1779,0.56518 -1.77268,2.46683 -2.48934,3.4031 -1.17264,1.53202 -2.67956,2.79988 -4.31936,3.96547 -0.77181,0.54851 -2.15376,1.74427 -3.29454,1.59235 -0.92994,-0.12402 -0.66439,-1.32446 -0.40281,-1.81114 0.75422,-1.40388 1.92906,-2.66164 2.96508,-3.93401 0.33033,-0.40595 1.04328,-0.94453 0.91501,-1.49866 -0.29738,-1.28622 -3.02658,-0.37186 -3.29454,-1.686 -0.19723,-0.9672 1.50252,-1.17179 0.47617,-2.21655 l -0.43928,-0.21879 c -0.17702,-0.0798 -0.4586,-0.1465 -0.6589,-0.15587 -1.46079,-0.0693 -2.11466,1.15754 -1.97673,2.21654 0.0606,0.46553 0.49067,0.86117 0.18275,1.31133 -0.57435,0.83982 -1.8098,1.54588 -2.59873,2.248 -1.22754,1.09253 -2.47135,2.12268 -3.73381,3.18467 -1.20098,1.0101 -2.41073,2.06067 -4.17308,2.06067 0,-1.76412 1.54031,-3.30363 2.70855,-4.68335 0.42082,-0.4968 1.64288,-1.41173 1.61081,-2.06066 -0.0565,-1.13636 -2.50011,-0.55601 -2.8188,-1.62344 -0.19504,-0.65342 1.75488,-1.73114 0.6589,-2.40423 -1.07072,-0.65753 -2.65342,0.4305 -3.03801,1.21767 -0.34,0.69595 0.20074,1.23002 0.0364,1.81113 -0.15243,0.53803 -1.28684,1.20999 -1.72062,1.62343 -2.02482,1.93029 -4.33453,3.6399 -6.88164,5.05801 -1.38963,0.77387 -4.323311,1.90406 -5.381071,0.12477 -0.24556,-0.41289 -0.10982,-1.04794 -0.10982,-1.49867 2.65605,-0.17891 5.837261,-2.27798 7.247981,-4.12134 0.74083,-0.96795 1.2629,-2.80531 -0.43928,-3.30943 -0.9475,-0.28062 -2.17592,-0.0165 -3.074891,0.2499 -2.99803,0.88777 -5.74281,3.41866 -6.51615,6.05687 -0.13178,0.44979 -0.32266,1.0367 -0.29256,1.49867 0.0239,0.36754 0.4105,0.89152 0.2561,1.24914 -0.27938,0.64667 -1.750073,0.9908 -2.452463,1.12399 -1.61564,0.3061 -3.01142,-0.81507 -2.85526,-2.1858 0.17769,-1.55842 1.46211,-2.95444 1.53745,-4.49601 0.0418,-0.85555 -0.26927,-1.6875 -1.31782,-1.9981 -0.33999,-0.10059 -0.74545,-0.0626 -1.09818,-0.0626 -0.48012,0 -0.87042,0.008 -1.31781,0.15624 -0.61015,0.2025 -1.22996,0.49961 -1.75708,0.84299 -0.8019,0.52247 -1.4841,1.20325 -2.19637,1.81077 -1.00616,0.85818 -2.1118,1.86547 -2.63563,2.99734 h -0.21961 c 0.0727,-0.78512 0.55656,-1.48519 0.80519,-2.248 0.47001,-1.44341 1.09652,-2.91244 1.75708,-4.30868 l 4.51946,-9.61981 4.5851,-9.75957 L 95.345219,0.03125333 86.926156,13.506683 c 0,0 -5.68889,9.77656 -7.98079,14.80327 -0.639586,1.40295 -1.283336,2.85403 -1.757093,4.30867 -0.375131,1.15192 -0.669018,2.7437 -1.46409,3.74668 -0.799471,1.00842 -2.601378,1.7465 -3.880094,2.1858 -0.613882,0.21074 -1.326166,0.32108 -1.976722,0.40576 -2.241824,0.29224 -3.851318,-1.05506 -3.477714,-2.96623 0.366788,-1.87709 2.056886,-4.04435 4.136621,-4.80811 0.903145,-0.33157 1.929505,-0.61895 2.85527,-0.21843 0.607723,0.26283 0.898746,0.73399 1.537448,0.9052 -0.06151,-1.99379 -2.787176,-2.07978 -4.612351,-1.84186 -4.44345,0.57885 -6.275876,4.04171 -9.261602,6.463 -0.668571,0.54214 -2.443016,2.42654 -3.47728,2.12287 -0.976499,-0.28681 -0.07731,-1.42974 0.182744,-1.87334 0.690973,-1.17851 1.625741,-2.21465 2.37953,-3.372 0.249066,-0.38254 0.491321,-1.05113 0.183173,-1.4672 -0.575226,-0.77688 -2.155945,-0.0328 -2.635629,-0.96814 -0.378213,-0.73734 1.547991,-2.10263 -0.109818,-2.5601 -1.899848,-0.52416 -1.8825,1.5884 -2.855265,2.09177 -0.616518,0.31903 -1.720847,0.281 -2.415993,0.281 h -4.831987 c 0.08346,-0.90051 0.556338,-1.76244 0.878543,-2.62267 0.622008,-1.66071 1.307939,-3.28602 2.159466,-4.87067 2.875907,-5.35184 5.900957,-10.52817 9.993427,-15.3613397 0.868438,-1.02545 1.788049,-2.05802 2.782339,-2.99733 0.667912,-0.63098 1.481443,-1.1436 1.976723,-1.87334 z m -5.490896,3.18468 c -0.745662,1.61095 -2.871731,2.91183 -4.100153,4.3086697 -3.155503,3.58871 -5.72657,7.61056 -7.94335,11.61466 -1.146718,2.07116 -2.060402,4.22457 -3.038438,6.36935 -0.291895,0.64012 -0.349661,1.73657 -0.988361,2.1858 -0.700857,0.49288 -2.186922,0.24953 -3.038009,0.24953 -2.80826,0 -5.548881,-0.18733 -8.346158,-0.18733 0.525368,-1.13506 1.895457,-2.09046 2.855264,-2.99734 1.352736,-1.27817 2.635851,-2.62904 3.953444,-3.93401 4.035584,-3.99731 8.133995,-7.87437 12.519238,-11.61466 2.426973,-2.07002 5.156613,-4.5281197 8.126523,-5.9946697 z M 137.96694,24.306033 c -0.25151,-0.009 -0.54766,0.0308 -0.89098,0.13245 -0.85263,0.25253 -1.75708,1.20624 -1.75708,1.9981 0,0.96064 1.273,1.3475 2.19635,1.03034 1.78325,-0.61257 2.21228,-3.09485 0.45171,-3.16089 z m -36.05544,5.09716 c 0.22986,0.0125 0.44017,0.0866 0.60829,0.24953 0.59038,0.57212 -0.20624,1.72103 -0.58555,2.21654 -1.16561,1.52302 -3.571721,3.22326 -5.710531,3.55932 0.82055,-1.89956 1.90995,-3.86262 3.73381,-5.24532 0.402261,-0.30503 1.264421,-0.81778 1.953981,-0.78007 z m 45.29516,1.11631 c 0.21486,-0.012 0.41847,0.0239 0.59457,0.13209 0.76014,0.46664 -0.25347,1.71073 -0.58556,2.15433 -1.08456,1.44771 -3.5524,3.01738 -5.52736,3.372 0.39776,-1.61106 2.18604,-3.91621 3.73381,-4.90177 0.39568,-0.25191 1.13995,-0.72059 1.78454,-0.75665 z m -118.850417,0.97509 c -0.417967,1.23152 -2.279821,2.41323 -3.294536,3.372 -3.981774,3.76184 -8.532418,7.66625 -14.495961,8.86724 -2.2475313,0.45278 -6.4522893,1.07249 -8.0531683,-0.8119 -2.05291104,-2.41641 2.047031,-5.38939 4.099725,-6.55667 6.2712523,-3.56589 14.3002733,-4.87067 21.7439403,-4.87067 z" />
  </g>
</svg>
