<?xml version="1.0" encoding="UTF-8" standalone="no"?>
<!-- Created with Inkscape (http://www.inkscape.org/) -->

<svg
   width="895"
   height="161"
   viewBox="0 0 236.80208 42.597916"
   version="1.1"
   id="svg5"
   sodipodi:docname="schriftzug.svg"
   inkscape:version="1.2.2 (732a01da63, 2022-12-09)"
   xmlns:inkscape="http://www.inkscape.org/namespaces/inkscape"
   xmlns:sodipodi="http://sodipodi.sourceforge.net/DTD/sodipodi-0.dtd"
   xmlns="http://www.w3.org/2000/svg"
   xmlns:svg="http://www.w3.org/2000/svg">
  <sodipodi:namedview
     id="namedview7178"
     pagecolor="#505050"
     bordercolor="#ffffff"
     borderopacity="1"
     inkscape:showpageshadow="0"
     inkscape:pageopacity="0"
     inkscape:pagecheckerboard="1"
     inkscape:deskcolor="#505050"
     showgrid="false"
     inkscape:zoom="1.3935178"
     inkscape:cx="696.43892"
     inkscape:cy="-35.521614"
     inkscape:window-width="1920"
     inkscape:window-height="1080"
     inkscape:window-x="2612"
     inkscape:window-y="52"
     inkscape:window-maximized="0"
     inkscape:current-layer="text5012-4" />
  <defs
     id="defs2" />
  <g
     aria-label="ARCHERRIES"
     transform="scale(0.99782515,1.0021796)"
     id="text5012-4"
     style="font-size:55.9465px;font-family:Pristina;-inkscape-font-specification:Pristina;stroke:none;stroke-width:0.529167;stroke-linejoin:round;paint-order:fill markers stroke">
    <g
       id="path8408">
      <path
         style="-inkscape-font-specification:'Guild of Professional Actors';fill:currentColor;stroke:none;stroke-linejoin:miter;-inkscape-stroke:none"
         d="m 22.822875,39.714981 q -1.678395,0.727305 -5.706543,1.510556 -3.972201,0.783251 -5.874382,0.783251 -10.90956736,0 -10.90956736,-8.280082 0,-6.489794 5.93032886,-10.406049 5.1470775,-3.35679 12.0284975,-3.412736 l 4.531666,-0.05595 z M 20.808801,22.203727 q -0.503518,-0.16784 -1.454609,-0.16784 -6.433847,0 -11.133353,2.573539 -5.7624894,3.188951 -5.7624894,9.11928 0,3.18895 3.0770574,4.811399 2.4056995,1.286769 5.930329,1.286769 6.098168,0 9.231172,-1.678395 -0.05595,0.839198 -0.05595,-6.154115 0,-1.678395 0.05595,-4.923292 0.111893,-3.300843 0.111893,-4.867345 z"
         id="path8431" />
      <path
         style="-inkscape-font-specification:'Guild of Professional Actors';fill:currentColor;stroke:none;stroke-linejoin:miter;-inkscape-stroke:none"
         d="m 22.820312,19.589844 -4.533203,0.05469 c -4.629242,0.03796 -8.6924708,1.190402 -12.1679684,3.457031 a 0.26460996,0.26460996 0 0 0 -0.00195,0 c -4.0096298,2.647869 -6.04882813,6.219837 -6.04882813,10.626954 0,2.818125 0.94610963,4.990508 2.83203123,6.421875 1.8859217,1.431366 4.6718094,2.123047 8.3417974,2.123046 1.304012,0 3.269139,-0.265682 5.923828,-0.789062 2.693732,-0.523781 4.603728,-1.025548 5.761718,-1.527344 a 0.26460996,0.26460996 0 0 0 0.160157,-0.242187 V 19.853516 a 0.26460996,0.26460996 0 0 0 -0.267579,-0.263672 z m -0.261718,0.533203 v 19.390625 c -1.093952,0.456861 -2.889928,0.945177 -5.492188,1.451172 a 0.26460996,0.26460996 0 0 0 -0.002,0.002 c -2.640267,0.520616 -4.590461,0.777344 -5.822265,0.777344 -3.6030507,0 -6.2708877,-0.686967 -8.0214849,-2.015625 -1.7505971,-1.328659 -2.62304685,-3.298077 -2.62304685,-6 0,-4.245934 1.91307945,-7.611748 5.81054685,-10.185547 v 0.002 C 9.7949574,21.336169 13.747841,20.21078 18.292969,20.173828 a 0.26460996,0.26460996 0 0 0 0.002,0 z m -3.205078,1.648437 c -4.324505,0 -8.08215,0.865346 -11.259766,2.605469 a 0.26460996,0.26460996 0 0 0 -0.00195,0 c -3.9024512,2.159609 -5.8984375,5.312316 -5.8984375,9.351563 0,2.210557 1.1031132,3.929912 3.2167968,5.044921 1.6511852,0.883192 3.672739,1.31836 6.0546878,1.31836 3.954163,0 6.953626,-0.548665 9.095703,-1.625 0.01689,0.01044 0.03706,0.02147 0.03711,0.02148 1.3e-4,4.6e-5 0.154167,0.0059 0.154297,0.0059 1.3e-4,-3.5e-5 0.107291,-0.05653 0.107422,-0.05664 1.31e-4,-1.14e-4 0.04674,-0.05059 0.04687,-0.05078 1.31e-4,-1.94e-4 0.0194,-0.03488 0.01953,-0.03516 2.64e-4,-5.46e-4 0.01273,-0.02967 0.01563,-0.03906 0.0029,-0.0094 0.0045,-0.01546 0.0059,-0.02148 0.0027,-0.01205 0.0027,-0.02139 0.0039,-0.0293 0.0047,-0.03163 0.0072,-0.0577 0.0098,-0.0957 a 0.26460996,0.26460996 0 0 0 -0.02344,-0.07422 c -4.01e-4,-0.0093 3.96e-4,-0.01289 0,-0.02344 -0.0067,-0.179612 -0.01292,-0.529084 -0.01758,-1.041015 -0.0093,-1.023863 -0.01367,-2.702454 -0.01367,-5.033203 0,-1.115103 0.01746,-2.754133 0.05469,-4.914063 v -0.0039 c 0.07452,-2.199288 0.113282,-3.823255 0.113282,-4.873047 a 0.26460996,0.26460996 0 0 0 -0.181641,-0.25 c -0.383091,-0.127697 -0.889439,-0.181641 -1.539062,-0.181641 z m 0,0.529297 c 0.534766,0 0.895467,0.05893 1.185546,0.132813 -0.0034,1.041484 -0.03641,2.534068 -0.107421,4.628906 a 0.26460996,0.26460996 0 0 0 0,0.0039 c -0.03731,2.164049 -0.05469,3.805866 -0.05469,4.927735 0,2.331454 0.0043,4.009602 0.01367,5.037109 0.0042,0.456775 0.0095,0.736673 0.01563,0.939453 -2.02474,1.03899 -4.988726,1.591797 -8.941406,1.591797 -2.317553,0 -4.2482768,-0.423361 -5.8046878,-1.255859 a 0.26460996,0.26460996 0 0 0 -0.00195,0 C 3.6700964,37.258366 2.7226563,35.76938 2.7226563,33.728516 c 0,-3.867337 1.845155,-6.794454 5.625,-8.886719 3.0883857,-1.691259 6.7519097,-2.541016 11.0058597,-2.541016 z"
         id="path8433" />
    </g>
    <g
       id="path8410"
       transform="translate(-1.5909601)">
      <path
         style="-inkscape-font-specification:'Guild of Professional Actors';fill:currentColor;stroke:none;stroke-linejoin:miter;-inkscape-stroke:none"
         d="m 45.537104,21.868048 q -1.678395,0 -2.405699,0.223786 -1.174877,0.391625 -2.349753,0.783251 -5.147078,1.566502 -5.147078,6.433847 V 41.33743 H 33.508607 V 29.308932 q 0,-3.580576 1.622448,-5.482757 1.454609,-1.734341 4.979239,-2.909217 2.573539,-0.839198 2.629485,-0.895144 0.783251,-0.16784 2.797325,-0.16784 z"
         id="path8437" />
      <path
         style="-inkscape-font-specification:'Guild of Professional Actors';fill:currentColor;stroke:none;stroke-linejoin:miter;-inkscape-stroke:none"
         d="m 45.537109,19.589844 c -1.350064,0 -2.285916,0.0522 -2.853515,0.173828 a 0.26460996,0.26460996 0 0 0 -0.13086,0.07031 c 0.05808,-0.05808 0.05313,-0.03926 0.05273,-0.03906 -3.93e-4,1.93e-4 -0.0072,0.0027 -0.01953,0.0078 -0.02475,0.01028 -0.06782,0.02659 -0.123046,0.04687 -0.110457,0.04058 -0.276067,0.09959 -0.494141,0.173828 -0.436147,0.148476 -1.084116,0.363027 -1.941406,0.642579 -2.376445,0.792148 -4.081159,1.775928 -5.09961,2.990234 -1.13371,1.330387 -1.683593,3.226505 -1.683593,5.652344 v 12.029297 a 0.26460996,0.26460996 0 0 0 0.263671,0.263671 h 2.126954 a 0.26460996,0.26460996 0 0 0 0.263671,-0.263671 v -12.02928 c 0,-1.575815 0.413287,-2.855476 1.230469,-3.876953 0.817182,-1.021478 2.05129,-1.79168 3.730469,-2.302735 a 0.26460996,0.26460996 0 0 0 0.0059,-0.002 l 2.34961,-0.783203 c 0.430911,-0.131774 1.21786,-0.210938 2.322265,-0.210938 a 0.26460996,0.26460996 0 0 0 0.263672,-0.265625 v -2.013671 a 0.26460996,0.26460996 0 0 0 -0.263672,-0.263672 z m -0.263672,0.544922 v 1.49414 c -0.950881,0.01346 -1.738426,0.06255 -2.220703,0.210938 a 0.26460996,0.26460996 0 0 0 -0.0059,0.002 L 40.697266,22.625 c -1.747762,0.533357 -3.085462,1.355362 -3.982422,2.476562 -0.898509,1.123137 -1.345703,2.537954 -1.345703,4.207032 V 41.072266 H 33.773437 V 29.308594 c 10e-7,-2.347085 0.530156,-4.104791 1.558594,-5.310547 a 0.26460996,0.26460996 0 0 0 0.002,-0.002 c 0.920771,-1.097842 2.535402,-2.053888 4.857422,-2.828125 0.858401,-0.279914 1.508872,-0.494626 1.949219,-0.644532 0.220173,-0.07495 0.387868,-0.132437 0.505859,-0.175781 0.059,-0.02167 0.103604,-0.03932 0.140625,-0.05469 0.01037,-0.0043 0.01984,-0.0094 0.0293,-0.01367 0.433523,-0.09094 1.330828,-0.13437 2.457031,-0.144531 z"
         id="path8439" />
    </g>
    <g
       id="path8412"
       transform="translate(-3.1819201)">
      <path
         style="-inkscape-font-specification:'Guild of Professional Actors';fill:currentColor;stroke:none;stroke-linejoin:miter;-inkscape-stroke:none"
         d="m 73.45441,22.763192 q -2.965165,0 -4.699506,0.05595 -12.979588,0.335679 -12.979588,10.909568 0,6.154115 10.741728,6.154115 4.979238,0 6.881419,-0.783251 v 1.734341 q -3.860308,1.11893 -5.258971,1.11893 -14.490143,0 -14.490143,-8.224135 0,-8.168189 6.321954,-11.077407 4.140041,-1.958127 13.42716,-2.014074 z"
         id="path8443" />
      <path
         style="-inkscape-font-specification:'Guild of Professional Actors';fill:currentColor;stroke:none;stroke-linejoin:miter;-inkscape-stroke:none"
         d="m 73.396484,20.373047 c -6.207432,0.03739 -10.706693,0.700422 -13.535156,2.037109 -4.300057,1.978788 -6.476562,5.804646 -6.476562,11.31836 0,2.81907 1.274985,4.990373 3.755859,6.398437 2.480874,1.408064 6.142976,2.089844 10.998047,2.089844 1.002996,0 2.752242,-0.380575 5.333984,-1.128906 a 0.26460996,0.26460996 0 0 0 0.189453,-0.253907 v -1.734375 a 0.26460996,0.26460996 0 0 0 -0.365234,-0.24414 c -1.192962,0.491219 -3.473681,0.763672 -6.779297,0.763672 -3.555308,0 -6.201511,-0.516044 -7.925781,-1.503907 -1.72427,-0.987863 -2.552734,-2.412318 -2.552735,-4.386718 0,-3.470497 1.053543,-6.048421 3.152344,-7.8125 2.098802,-1.764079 5.279676,-2.721067 9.570313,-2.832032 a 0.26460996,0.26460996 0 0 0 0.002,0 c 1.151369,-0.03714 2.716296,-0.05664 4.691406,-0.05664 a 0.26460996,0.26460996 0 0 0 0.263672,-0.271485 l -0.05664,-2.125 a 0.26460996,0.26460996 0 0 0 -0.265625,-0.257812 z m -0.253906,0.546875 0.03906,1.582031 c -1.818718,0.002 -3.341887,0.01745 -4.435547,0.05273 -4.361336,0.113089 -7.669132,1.084903 -9.896485,2.957032 -2.227723,1.87244 -3.339843,4.638041 -3.339843,8.216797 0,2.128339 0.96401,3.782196 2.820312,4.845703 1.856303,1.063506 4.581664,1.572265 8.1875,1.572265 3.111816,0 5.243513,-0.243691 6.617188,-0.722656 v 1.197266 c -2.414573,0.689734 -4.165716,1.066406 -4.996094,1.066406 -4.805015,0 -8.38716,-0.688173 -10.736328,-2.021484 -2.349169,-1.333312 -3.488282,-3.27382 -3.488282,-5.9375 0,-5.377194 2.038763,-8.935772 6.167969,-10.835938 a 0.26460996,0.26460996 0 0 0 0.002,-0.002 c 2.6482,-1.252526 7.04036,-1.913705 13.058594,-1.970703 z"
         id="path8445" />
    </g>
    <g
       id="path8414"
       transform="translate(-2.1212801)">
      <path
         style="-inkscape-font-specification:'Guild of Professional Actors';fill:currentColor;stroke:none;stroke-linejoin:miter;-inkscape-stroke:none"
         d="m 101.25978,42.232574 h -2.125969 v -8.503868 q 0,-5.091132 -3.580576,-8.391975 -3.524629,-3.300844 -9.343065,-3.300844 H 81.454717 V 0.27269942 h 2.125967 V 19.965867 q 0.783251,-0.05595 2.629486,-0.05595 6.54574,0 10.685781,3.580575 4.363829,3.748416 4.363829,10.23821 z"
         id="path8449" />
      <path
         style="-inkscape-font-specification:'Guild of Professional Actors';fill:currentColor;stroke:none;stroke-linejoin:miter;-inkscape-stroke:none"
         d="m 81.455078,0.0078125 a 0.26460996,0.26460996 0 0 0 -0.265625,0.265625 V 22.035156 a 0.26460996,0.26460996 0 0 0 0.265625,0.265625 h 4.755859 c 3.828921,0 6.865379,1.077608 9.16211,3.228516 a 0.26460996,0.26460996 0 0 0 0,0.002 c 2.337206,2.154612 3.496094,4.865208 3.496094,8.197266 v 8.503906 a 0.26460996,0.26460996 0 0 0 0.265625,0.265625 h 2.125004 a 0.26460996,0.26460996 0 0 0 0.26367,-0.265625 v -8.503906 c 0,-4.38528 -1.48935,-7.88946 -4.455081,-10.4375 -2.812208,-2.43218 -6.445356,-3.646485 -10.857422,-3.646485 -1.101596,0 -1.820458,0.02035 -2.365234,0.05078 V 0.2734375 a 0.26460996,0.26460996 0 0 0 -0.265625,-0.265625 z m 0.263672,0.52929687 h 1.597656 V 19.966797 a 0.26460996,0.26460996 0 0 0 0.283203,0.263672 c 0.50743,-0.03625 1.383179,-0.05664 2.611328,-0.05664 4.31558,0 7.803878,1.175662 10.511719,3.517578 2.851965,2.449764 4.273434,5.769888 4.273434,10.03711 v 8.240234 h -1.597653 v -8.240234 c 10e-7,-3.455124 -1.228559,-6.337755 -3.664062,-8.583985 -2.402769,-2.250213 -5.594451,-3.373047 -9.523438,-3.373047 H 81.71875 Z"
         id="path8451" />
    </g>
    <g
       id="path8416"
       transform="translate(2.6516001)">
      <path
         style="-inkscape-font-specification:'Guild of Professional Actors';fill:currentColor;stroke:none;stroke-linejoin:miter;-inkscape-stroke:none"
         d="m 129.06515,27.574591 q 0,1.174876 -0.44757,4.363827 h -20.8121 l -0.1119,1.230823 q -0.11189,2.517592 1.11893,4.195987 1.23083,1.678395 2.5176,3.412737 l -1.79029,1.062983 q -1.39866,-1.958127 -2.79733,-3.972201 -1.17487,-1.790288 -1.17487,-4.699506 0,-5.930329 4.6995,-9.958477 4.47572,-3.860308 10.51795,-3.860308 8.28008,0 8.28008,8.224135 z m -2.12597,0 q 0,-6.098169 -5.48276,-6.098169 -4.53166,0 -8.00035,2.014074 -3.8603,2.23786 -5.20302,6.321955 h 18.51829 q 0.16784,-1.230823 0.16784,-2.23786 z"
         id="path8455" />
      <path
         style="-inkscape-font-specification:'Guild of Professional Actors';fill:currentColor;stroke:none;stroke-linejoin:miter;-inkscape-stroke:none"
         d="m 120.78516,19.085937 c -4.08395,0 -7.66132,1.312537 -10.68946,3.923829 -3.18171,2.727182 -4.79297,6.136717 -4.79297,10.160156 0,1.975093 0.39944,3.595264 1.21875,4.84375 a 0.26460996,0.26460996 0 0 0 0.004,0.0059 c 0.9331,1.343657 1.8657,2.668223 2.79883,3.97461 a 0.26460996,0.26460996 0 0 0 0.35156,0.07422 l 1.78906,-1.0625 a 0.26460996,0.26460996 0 0 0 0.0781,-0.384765 c -0.85757,-1.155847 -1.69733,-2.293592 -2.51758,-3.41211 -0.77996,-1.063583 -1.13971,-2.391603 -1.06836,-4.021484 9e-5,-0.0021 -9e-5,-0.0037 0,-0.0059 l 0.0898,-0.978516 h 20.57031 a 0.26460996,0.26460996 0 0 0 0.26172,-0.228516 c 0.299,-2.130394 0.45117,-3.583543 0.45117,-4.40039 0,-2.785773 -0.70585,-4.922632 -2.14844,-6.355469 -1.44258,-1.432837 -3.59266,-2.132813 -6.39648,-2.132813 z m 0,0.529297 c 2.71622,0 4.70599,0.669978 6.02343,1.978516 1.31744,1.308538 1.99219,3.28349 1.99219,5.980469 0,0.710073 -0.15488,2.156768 -0.42187,4.099609 h -20.57422 a 0.26460996,0.26460996 0 0 0 -0.26367,0.240234 l -0.11133,1.230469 a 0.26460996,0.26460996 0 0 0 0,0.01367 c -0.0766,1.723988 0.30981,3.190396 1.16992,4.363281 0.76408,1.041927 1.54737,2.103518 2.34375,3.177735 l -1.32813,0.789062 c -0.8839,-1.239248 -1.76839,-2.492786 -2.65234,-3.765625 -0.74718,-1.138563 -1.13086,-2.648874 -1.13086,-4.552734 0,-3.883659 1.52314,-7.114136 4.60742,-9.757813 a 0.26460996,0.26460996 0 0 0 0,-0.002 c 2.93922,-2.535076 6.3739,-3.794922 10.34571,-3.794922 z m 0.67187,1.595703 c -3.0603,10e-7 -5.77904,0.682943 -8.13476,2.050782 -2.62169,1.520216 -4.40631,3.68866 -5.32032,6.46875 a 0.26460996,0.26460996 0 0 0 0.25196,0.345703 h 18.51757 a 0.26460996,0.26460996 0 0 0 0.26172,-0.228516 c 0.1132,-0.830119 0.16992,-1.587381 0.16993,-2.273437 -1e-5,-2.072368 -0.46508,-3.668425 -1.4375,-4.75 -0.97243,-1.081576 -2.43197,-1.613282 -4.3086,-1.613282 z m 0,0.529297 c 1.77854,0 3.0589,0.486355 3.91406,1.4375 0.85516,0.951146 1.30274,2.403411 1.30274,4.396485 0,0.588535 -0.0577,1.262004 -0.14649,1.974609 h -17.83593 c 0.90843,-2.477434 2.49515,-4.437998 4.89648,-5.830078 a 0.26460996,0.26460996 0 0 0 0.002,0 c 2.26919,-1.317591 4.88529,-1.978516 7.86719,-1.978516 z"
         id="path8457" />
    </g>
    <g
       id="path8418"
       transform="translate(4.7728803)">
      <path
         style="-inkscape-font-specification:'Guild of Professional Actors';fill:currentColor;stroke:none;stroke-linejoin:miter;-inkscape-stroke:none"
         d="m 149.87721,21.868048 q -1.67839,0 -2.4057,0.223786 -1.17487,0.391625 -2.34975,0.783251 -5.14708,1.566502 -5.14708,6.433847 V 41.33743 h -2.12597 V 29.308932 q 0,-3.580576 1.62245,-5.482757 1.45461,-1.734341 4.97924,-2.909217 2.57354,-0.839198 2.62949,-0.895144 0.78325,-0.16784 2.79732,-0.16784 z"
         id="path8461" />
      <path
         style="-inkscape-font-specification:'Guild of Professional Actors';fill:currentColor;stroke:none;stroke-linejoin:miter;-inkscape-stroke:none"
         d="m 149.87695,19.589844 c -1.35006,0 -2.28396,0.0522 -2.85156,0.173828 a 0.26460996,0.26460996 0 0 0 -0.13281,0.07031 c 0.0581,-0.05808 0.0551,-0.03926 0.0547,-0.03906 -4e-4,1.93e-4 -0.009,0.0027 -0.0215,0.0078 -0.0248,0.01028 -0.0678,0.02659 -0.12305,0.04687 -0.11045,0.04058 -0.27606,0.09959 -0.49414,0.173828 -0.43614,0.148476 -1.08216,0.363027 -1.93945,0.642579 a 0.26460996,0.26460996 0 0 0 -0.002,0 c -2.37645,0.792148 -4.08116,1.775928 -5.09961,2.990234 -1.13371,1.330387 -1.6836,3.226505 -1.6836,5.652344 v 12.029297 a 0.26460996,0.26460996 0 0 0 0.26563,0.263671 h 2.125 a 0.26460996,0.26460996 0 0 0 0.26562,-0.263671 v -12.02928 c 0,-1.575815 0.41134,-2.855476 1.22852,-3.876953 0.81718,-1.021478 2.05129,-1.79168 3.73047,-2.302735 a 0.26460996,0.26460996 0 0 0 0.006,-0.002 l 2.34961,-0.783203 c 0.43091,-0.131774 1.21786,-0.210938 2.32226,-0.210938 a 0.26460996,0.26460996 0 0 0 0.26563,-0.265625 v -2.013671 a 0.26460996,0.26460996 0 0 0 -0.26563,-0.263672 z m -0.26367,0.544922 v 1.49414 c -0.95074,0.01347 -1.73651,0.06256 -2.21875,0.210938 a 0.26460996,0.26460996 0 0 0 -0.006,0.002 L 145.03906,22.625 c -1.74867,0.533342 -3.0871,1.354966 -3.98437,2.476562 -0.89851,1.123137 -1.34375,2.537953 -1.34375,4.207032 v 11.763672 h -1.59766 V 29.308594 c 0,-2.347085 0.53016,-4.104791 1.55859,-5.310547 a 0.26460996,0.26460996 0 0 0 0.002,-0.002 c 0.92103,-1.098147 2.53632,-2.053773 4.85937,-2.828125 0.8584,-0.279914 1.50692,-0.494626 1.94727,-0.644532 0.22017,-0.07495 0.38787,-0.132437 0.50586,-0.175781 0.059,-0.02167 0.10555,-0.03932 0.14258,-0.05469 0.0101,-0.0042 0.0181,-0.0096 0.0273,-0.01367 0.43352,-0.09094 1.33083,-0.13437 2.45703,-0.144531 z"
         id="path8463" />
    </g>
    <g
       id="path8420"
       transform="translate(0.53032007)">
      <path
         style="-inkscape-font-specification:'Guild of Professional Actors';fill:currentColor;stroke:none;stroke-linejoin:miter;-inkscape-stroke:none"
         d="m 173.37474,21.868048 q -1.6784,0 -2.4057,0.223786 -1.17488,0.391625 -2.34975,0.783251 -5.14708,1.566502 -5.14708,6.433847 V 41.33743 h -2.12597 V 29.308932 q 0,-3.580576 1.62245,-5.482757 1.45461,-1.734341 4.97924,-2.909217 2.57354,-0.839198 2.62948,-0.895144 0.78326,-0.16784 2.79733,-0.16784 z"
         id="path8467" />
      <path
         style="-inkscape-font-specification:'Guild of Professional Actors';fill:currentColor;stroke:none;stroke-linejoin:miter;-inkscape-stroke:none"
         d="m 173.375,19.589844 c -1.35006,0 -2.28591,0.0522 -2.85352,0.173828 a 0.26460996,0.26460996 0 0 0 -0.13086,0.07031 c 0.0581,-0.0581 0.0531,-0.03926 0.0527,-0.03906 -3.9e-4,1.92e-4 -0.009,0.0027 -0.0215,0.0078 -0.0248,0.01028 -0.0659,0.02659 -0.12109,0.04687 -0.11045,0.04058 -0.27607,0.09959 -0.49414,0.173828 -0.43615,0.148476 -1.08412,0.363027 -1.94141,0.642579 -2.37644,0.792148 -4.08115,1.775928 -5.09961,2.990234 -1.13371,1.330387 -1.68359,3.226505 -1.68359,5.652344 v 12.029297 a 0.26460996,0.26460996 0 0 0 0.26367,0.263671 h 2.12696 a 0.26460996,0.26460996 0 0 0 0.26367,-0.263671 v -12.02928 c 0,-1.575815 0.41133,-2.855476 1.22851,-3.876953 0.81719,-1.021478 2.05325,-1.79168 3.73243,-2.302735 a 0.26460996,0.26460996 0 0 0 0.006,-0.002 c 0.78325,-0.261084 1.56636,-0.52212 2.34961,-0.783203 0.43091,-0.131774 1.21786,-0.210938 2.32227,-0.210938 a 0.26460996,0.26460996 0 0 0 0.26367,-0.265625 V 19.853516 A 0.26460996,0.26460996 0 0 0 173.375,19.589844 Z m -0.26563,0.544922 v 1.49414 c -0.94961,0.01354 -1.73689,0.06267 -2.21875,0.210938 a 0.26460996,0.26460996 0 0 0 -0.006,0.002 c -0.78326,0.261083 -1.56637,0.522119 -2.34961,0.783203 -1.74777,0.533357 -3.08546,1.355362 -3.98243,2.476562 -0.89851,1.123137 -1.3457,2.537953 -1.3457,4.207032 v 11.763672 h -1.5957 V 29.308594 c 0,-2.347085 0.53015,-4.104791 1.55859,-5.310547 a 0.26460996,0.26460996 0 0 0 0.002,-0.002 c 0.92078,-1.097842 2.53541,-2.053888 4.85743,-2.828125 0.8584,-0.279914 1.50692,-0.494626 1.94726,-0.644532 0.22018,-0.07495 0.38787,-0.132437 0.50586,-0.175781 0.059,-0.02167 0.10556,-0.03932 0.14258,-0.05469 0.0104,-0.0043 0.0198,-0.0094 0.0293,-0.01367 0.43318,-0.09087 1.33029,-0.134305 2.45507,-0.144531 z"
         id="path8469" />
    </g>
    <g
       id="path8422"
       transform="translate(0.53032003)">
      <path
         style="-inkscape-font-specification:'Guild of Professional Actors';fill:currentColor;stroke:none;stroke-linejoin:miter;-inkscape-stroke:none"
         d="m 185.68297,42.064734 h -2.34976 q -1.11893,-1.510555 -1.11893,-4.363827 V 20.021814 h 2.12597 v 17.679093 q 0,2.23786 1.34272,4.363827 z"
         id="path8473" />
      <path
         style="-inkscape-font-specification:'Guild of Professional Actors';fill:currentColor;stroke:none;stroke-linejoin:miter;-inkscape-stroke:none"
         d="m 182.21484,19.757812 a 0.26460996,0.26460996 0 0 0 -0.26562,0.263672 v 17.679688 c 0,1.936765 0.37849,3.450421 1.17187,4.521484 a 0.26460996,0.26460996 0 0 0 0.21289,0.107422 h 2.34961 a 0.26460996,0.26460996 0 0 0 0.22266,-0.40625 c -0.87276,-1.381872 -1.30078,-2.783668 -1.30078,-4.222656 V 20.021484 a 0.26460996,0.26460996 0 0 0 -0.26563,-0.263672 z m 0.26368,0.529297 h 1.59765 v 17.414063 c 0,1.403862 0.43454,2.770466 1.19336,4.099609 h -1.77344 c -0.65755,-0.94103 -1.01757,-2.289131 -1.01757,-4.099609 z"
         id="path8475" />
    </g>
    <g
       id="path8424"
       transform="translate(3.7122401)">
      <path
         style="-inkscape-font-specification:'Guild of Professional Actors';fill:currentColor;stroke:none;stroke-linejoin:miter;-inkscape-stroke:none"
         d="m 213.71213,27.574591 q 0,1.174876 -0.44757,4.363827 h -20.8121 l -0.11189,1.230823 q -0.1119,2.517592 1.11893,4.195987 1.23082,1.678395 2.51759,3.412737 l -1.79029,1.062983 q -1.39866,-1.958127 -2.79733,-3.972201 -1.17487,-1.790288 -1.17487,-4.699506 0,-5.930329 4.6995,-9.958477 4.47572,-3.860308 10.51795,-3.860308 8.28008,0 8.28008,8.224135 z m -2.12597,0 q 0,-6.098169 -5.48276,-6.098169 -4.53166,0 -8.00035,2.014074 -3.8603,2.23786 -5.20302,6.321955 h 18.51829 q 0.16784,-1.230823 0.16784,-2.23786 z"
         id="path8479" />
      <path
         style="-inkscape-font-specification:'Guild of Professional Actors';fill:currentColor;stroke:none;stroke-linejoin:miter;-inkscape-stroke:none"
         d="m 205.43164,19.085937 c -4.0845,0 -7.66105,1.311833 -10.68945,3.923829 -3.18171,2.727182 -4.79297,6.136717 -4.79297,10.160156 0,1.975093 0.39943,3.595264 1.21875,4.84375 a 0.26460996,0.26460996 0 0 0 0.004,0.0059 c 0.93311,1.343657 1.8657,2.668223 2.79883,3.97461 a 0.26460996,0.26460996 0 0 0 0.35157,0.07422 l 1.78906,-1.0625 a 0.26460996,0.26460996 0 0 0 0.0781,-0.384765 c -0.85756,-1.155847 -1.69538,-2.293592 -2.51562,-3.41211 -0.78099,-1.064971 -1.14093,-2.394546 -1.06836,-4.027343 l 0.0879,-0.978516 h 20.57031 a 0.26460996,0.26460996 0 0 0 0.26367,-0.228516 c 0.29901,-2.130394 0.44922,-3.583543 0.44922,-4.40039 0,-2.785773 -0.70585,-4.922632 -2.14844,-6.355469 -1.44258,-1.432837 -3.59266,-2.132813 -6.39648,-2.132813 z m 0,0.529297 c 2.71623,0 4.706,0.669978 6.02344,1.978516 1.31744,1.308538 1.99219,3.28349 1.99219,5.980469 0,0.710073 -0.15489,2.156768 -0.42188,4.099609 h -20.57227 a 0.26460996,0.26460996 0 0 0 -0.26367,0.240234 l -0.11328,1.230469 a 0.26460996,0.26460996 0 0 0 0,0.01367 c -0.0766,1.723989 0.3098,3.190395 1.16992,4.363281 0.76408,1.041927 1.54737,2.103518 2.34375,3.177735 l -1.32812,0.789062 c -0.8839,-1.239233 -1.76645,-2.492802 -2.65039,-3.765625 -0.74718,-1.138563 -1.13281,-2.648874 -1.13281,-4.552734 0,-3.883659 1.52313,-7.114136 4.60742,-9.757813 a 0.26460996,0.26460996 0 0 0 0,-0.002 c 2.93922,-2.535076 6.3739,-3.794922 10.3457,-3.794922 z m 0.67188,1.595703 c -3.06031,10e-7 -5.77709,0.682943 -8.13282,2.050782 -2.62243,1.520255 -4.4081,3.688177 -5.32226,6.46875 a 0.26460996,0.26460996 0 0 0 0.25195,0.345703 h 18.51758 a 0.26460996,0.26460996 0 0 0 0.26172,-0.228516 c 0.1132,-0.830119 0.17187,-1.587381 0.17187,-2.273437 0,-2.072368 -0.46702,-3.668425 -1.43945,-4.75 -0.97243,-1.081576 -2.43196,-1.613281 -4.30859,-1.613282 z m 0,0.529297 c 1.77853,0 3.06085,0.486355 3.91601,1.4375 0.85516,0.951146 1.30274,2.403411 1.30274,4.396485 0,0.588539 -0.0597,1.261998 -0.14844,1.974609 h -17.83399 c 0.90844,-2.477434 2.49516,-4.437998 4.89649,-5.830078 2.26919,-1.317591 4.88528,-1.978516 7.86719,-1.978516 z"
         id="path8481" />
    </g>
    <g
       id="path8426">
      <path
         style="-inkscape-font-specification:'Guild of Professional Actors';fill:currentColor;stroke:none;stroke-linejoin:miter;-inkscape-stroke:none"
         d="m 236.98583,20.021814 -0.0559,2.125966 h -4.92329 q -1.34271,0 -2.74138,1.062984 -1.51055,1.230823 -1.51055,2.853271 0,2.293807 2.23786,4.923292 2.23786,2.573539 2.23786,4.923292 0,2.517593 -1.95813,4.251934 -1.95813,1.678395 -4.19599,1.678395 h -6.71358 v -2.125967 h 6.71358 q 1.17488,0 2.57354,-1.11893 1.45461,-1.11893 1.45461,-2.685432 0,-2.181913 -2.23786,-4.699506 -2.23786,-2.517592 -2.23786,-5.147078 0,-2.685432 2.34975,-4.531666 1.95813,-1.510555 4.02815,-1.510555 z"
         id="path8485" />
      <path
         style="-inkscape-font-specification:'Guild of Professional Actors';fill:currentColor;stroke:none;stroke-linejoin:miter;-inkscape-stroke:none"
         d="m 232.00586,19.757812 c -1.44437,0 -2.84833,0.529877 -4.18945,1.564454 a 0.26460996,0.26460996 0 0 0 -0.002,0.002 c -1.6155,1.269324 -2.45117,2.872778 -2.45117,4.740234 0,1.828048 0.7824,3.609687 2.30469,5.322266 1.46669,1.650026 2.17187,3.159286 2.17187,4.523437 0,0.962439 -0.42912,1.766992 -1.35156,2.476563 a 0.26460996,0.26460996 0 0 0 -0.004,0.002 c -0.90421,0.723377 -1.70894,1.0625 -2.4082,1.0625 h -6.71289 a 0.26460996,0.26460996 0 0 0 -0.26562,0.263672 v 2.126953 a 0.26460996,0.26460996 0 0 0 0.26562,0.263672 h 6.71289 c 1.55805,0 3.02591,-0.590847 4.36914,-1.742188 a 0.26460996,0.26460996 0 0 0 0.002,-0.002 c 1.35298,-1.198358 2.04687,-2.704182 2.04687,-4.451172 0,-1.649775 -0.78401,-3.348772 -2.30078,-5.09375 l -0.002,-0.002 c -1.46594,-1.723159 -2.17188,-3.307497 -2.17188,-4.75 0,-0.997387 0.44954,-1.859327 1.4082,-2.642578 0.89933,-0.683056 1.75335,-1.009766 2.57813,-1.009766 h 4.92383 a 0.26460996,0.26460996 0 0 0 0.26562,-0.257812 l 0.0547,-2.125 a 0.26460996,0.26460996 0 0 0 -0.26367,-0.271485 z m 0,0.529297 h 4.70703 l -0.041,1.595703 h -4.66601 c -0.96496,0 -1.93547,0.383853 -2.90039,1.117188 a 0.26460996,0.26460996 0 0 0 -0.008,0.0059 c -1.05117,0.85651 -1.60743,1.894851 -1.60743,3.058594 0,1.615247 0.78427,3.311844 2.30079,5.09375 a 0.26460996,0.26460996 0 0 0 0.002,0.002 c 1.46574,1.685603 2.17383,3.267494 2.17383,4.75 0,1.608308 -0.6117,2.937319 -1.86719,4.050781 -1.26761,1.086518 -2.59768,1.615235 -4.02344,1.615235 h -6.44922 v -1.595703 h 6.44922 c 0.86584,0 1.77544,-0.407719 2.73438,-1.173828 l 0.004,-0.0039 c 1.01395,-0.781747 1.55469,-1.768115 1.55469,-2.892578 0,-1.545063 -0.78757,-3.168239 -2.30469,-4.875 -1.46151,-1.644207 -2.17187,-3.292773 -2.17187,-4.970703 0,-1.713116 0.7325,-3.1319 2.25,-4.324219 1.26896,-0.978295 2.54842,-1.453125 3.86328,-1.453125 z"
         id="path8487" />
    </g>
    <path
       id="rect370-9"
       style="fill:#7a2532;fill-opacity:1;stroke:none;stroke-width:0.264583;stroke-linejoin:round;paint-order:fill markers stroke;stop-color:#000000"
       d="m 185.16031,0.9650179 c -0.72207,-0.021473 -2.07127,0.138051 -2.7114,0.3620553 -2.01729,0.705936 -3.73052,2.5356408 -4.15905,4.4422325 -0.30176,1.3425113 -0.14523,3.2081987 0.35116,4.1870785 1.6513,3.2563928 5.25683,4.4722588 8.51226,2.8703488 1.48744,-0.731935 2.73185,-2.020982 3.27935,-3.3965846 0.29621,-0.7442398 0.38435,-1.3037976 0.38861,-2.4693513 0.005,-1.3783829 -0.0409,-1.5961816 -0.5384,-2.5475357 -0.7362,-1.4077018 -2.28751,-2.8919867 -3.02444,-2.8942024 -0.18832,-4.963e-4 -0.71677,1.0016897 -0.71677,1.3592899 0,0.2107437 0.74927,0.1812575 1.2578,-0.049395 0.33039,-0.14989 0.47967,-0.1500704 0.62972,-6.206e-4 0.22798,0.2269767 -0.0538,0.4930388 -1.12049,1.057728 -1.16907,0.6188473 -2.82909,0.1890326 -3.38218,-0.8758873 -0.29554,-0.569076 -0.11242,-0.7300551 0.6652,-0.5848122 0.52318,0.097724 0.56519,0.067245 0.82814,-0.5991772 0.15236,-0.3862177 0.24425,-0.7350752 0.20399,-0.7751599 -0.0519,-0.051627 -0.2228,-0.078861 -0.4635,-0.086015 z"
       sodipodi:nodetypes="sssssssssssssssssss" />
  </g>
</svg>
